<svg width="166" height="233" viewBox="0 0 166 233" fill="none" xmlns="http://www.w3.org/2000/svg">
<path d="M23.4875 25.096L42.4723 61.0413C44.1603 64.2374 43.9922 68.0957 42.0327 71.1329L34.0838 83.4534C32.1242 86.4906 31.9561 90.3489 33.6442 93.545L96.2061 211.999C98.7854 216.882 104.835 218.75 109.719 216.171L145.089 197.49C149.972 194.911 151.84 188.861 149.261 183.977L86.7269 65.5767C85.024 62.3524 81.7011 60.3107 78.0554 60.2483L63.0902 59.9925C59.4445 59.9302 56.1216 57.8884 54.4187 54.6641L35.4619 18.7716C33.7155 15.465 29.6192 14.2002 26.3125 15.9466C23.0059 17.693 21.7411 21.7893 23.4875 25.096Z" fill="#C4C4C4" stroke="#C4C4C4" stroke-width="30.3139"/>
<circle cx="56.2906" cy="85.3944" r="2.47137" transform="rotate(-27.841 56.2906 85.3944)" fill="black"/>
<circle cx="61.5426" cy="82.6288" r="2.47137" transform="rotate(-27.841 61.5426 82.6288)" fill="black"/>
<circle cx="67.0758" cy="79.7069" r="2.47137" transform="rotate(-27.841 67.0758 79.7069)" fill="black"/>
<circle cx="69.8473" cy="84.953" r="2.47137" transform="rotate(-27.841 69.8473 84.953)" fill="black"/>
<circle cx="72.6168" cy="90.1952" r="2.47137" transform="rotate(-27.841 72.6168 90.1952)" fill="black"/>
<circle cx="75.3864" cy="95.4374" r="2.47137" transform="rotate(-27.841 75.3864 95.4374)" fill="black"/>
<circle cx="80.7789" cy="99.2967" r="2.47137" transform="rotate(-27.841 80.7789 99.2967)" fill="black"/>
<circle cx="86.1715" cy="103.16" r="2.47137" transform="rotate(-27.841 86.1715 103.16)" fill="black"/>
<circle cx="89.0914" cy="108.695" r="2.47137" transform="rotate(-27.841 89.0914 108.695)" fill="black"/>
<circle cx="91.861" cy="113.933" r="2.47137" transform="rotate(-27.841 91.861 113.933)" fill="black"/>
<circle cx="94.6324" cy="119.183" r="2.47137" transform="rotate(-27.841 94.6324 119.183)" fill="black"/>
<circle cx="97.4039" cy="124.426" r="2.47137" transform="rotate(-27.841 97.4039 124.426)" fill="black"/>
<circle cx="100.173" cy="129.676" r="2.47137" transform="rotate(-27.841 100.173 129.676)" fill="black"/>
<circle cx="59.0641" cy="90.6405" r="2.47137" transform="rotate(-27.841 59.0641 90.6405)" fill="black"/>
<circle cx="61.8336" cy="95.8905" r="2.47137" transform="rotate(-27.841 61.8336 95.8905)" fill="black"/>
<circle cx="64.6012" cy="101.137" r="2.47137" transform="rotate(-27.841 64.6012 101.137)" fill="black"/>
<circle cx="64.7516" cy="107.758" r="2.47137" transform="rotate(-27.841 64.7516 107.758)" fill="black"/>
<circle cx="64.8981" cy="114.39" r="2.47137" transform="rotate(-27.841 64.8981 114.39)" fill="black"/>
<circle cx="67.8258" cy="119.926" r="2.47137" transform="rotate(-27.841 67.8258 119.926)" fill="black"/>
<circle cx="70.5914" cy="125.168" r="2.47137" transform="rotate(-27.841 70.5914 125.168)" fill="black"/>
<circle cx="73.3629" cy="130.418" r="2.47137" transform="rotate(-27.841 73.3629 130.418)" fill="black"/>
<circle cx="76.1324" cy="135.66" r="2.47137" transform="rotate(-27.841 76.1324 135.66)" fill="black"/>
<circle cx="78.9039" cy="140.906" r="2.47137" transform="rotate(-27.841 78.9039 140.906)" fill="black"/>
<circle cx="100.265" cy="136.187" r="2.47137" transform="rotate(-27.841 100.265 136.187)" fill="black"/>
<circle cx="84.2399" cy="144.656" r="2.47137" transform="rotate(-27.841 84.2399 144.656)" fill="black"/>
<circle cx="89.484" cy="141.887" r="2.47137" transform="rotate(-27.841 89.484 141.887)" fill="black"/>
<circle cx="95.0192" cy="138.961" r="2.47137" transform="rotate(-27.841 95.0192 138.961)" fill="black"/>
<path d="M84.2063 159.652C85.0455 159.209 85.8977 158.949 86.7629 158.874C87.6281 158.798 88.4476 158.905 89.2212 159.195L88.6073 161.081C88.055 160.855 87.4736 160.758 86.8631 160.79C86.2526 160.821 85.6567 160.99 85.0754 161.297C83.9835 161.874 83.2732 162.708 82.9446 163.8C82.616 164.892 82.7521 166.006 83.3528 167.143C83.9509 168.276 84.7896 169.019 85.869 169.374C86.9508 169.72 88.0199 169.615 89.0765 169.057C90.0319 168.552 90.6672 167.913 90.9824 167.138C91.3026 166.362 91.2974 165.495 90.9667 164.538L88.1535 166.024L87.3125 164.431L91.9834 161.964C92.0896 162.141 92.1668 162.275 92.2148 162.366C92.618 163.129 92.8771 163.914 92.9922 164.719C93.1097 165.517 93.0846 166.283 92.9169 167.019C92.7491 167.754 92.4104 168.447 91.9006 169.097C91.3932 169.74 90.7402 170.273 89.9415 170.695C89.3905 170.986 88.8095 171.195 88.1987 171.324C87.5928 171.45 86.9734 171.483 86.3404 171.423C85.7125 171.36 85.1081 171.207 84.5273 170.965C83.9489 170.714 83.3986 170.345 82.8763 169.858C82.359 169.369 81.9188 168.78 81.5557 168.093C81.1392 167.304 80.8898 166.495 80.8074 165.666C80.725 164.836 80.7996 164.054 81.0312 163.317C81.2653 162.573 81.6539 161.883 82.1973 161.246C82.743 160.603 83.4127 160.071 84.2063 159.652ZM92.9892 154.878L98.7561 165.797L97.1638 166.638L91.3968 155.719L92.9892 154.878ZM104.376 153.538L108.213 160.802L106.628 161.639L106.167 160.767C105.99 161.766 105.416 162.522 104.445 163.034C103.419 163.576 102.367 163.67 101.287 163.315C100.208 162.961 99.377 162.233 98.795 161.131C98.2129 160.029 98.0798 158.932 98.3956 157.841C98.7114 156.749 99.3824 155.933 100.409 155.391C101.379 154.878 102.328 154.833 103.256 155.254L102.791 154.375L104.376 153.538ZM101.387 156.784C100.725 157.134 100.313 157.64 100.151 158.3C99.9868 158.956 100.078 159.613 100.425 160.27C100.772 160.927 101.264 161.375 101.901 161.614C102.536 161.848 103.184 161.79 103.846 161.44C104.493 161.098 104.903 160.601 105.075 159.948C105.252 159.291 105.163 158.627 104.808 157.955C104.453 157.283 103.955 156.835 103.313 156.611C102.676 156.385 102.034 156.443 101.387 156.784ZM112.798 149.836L112.768 151.433C112.425 151.407 112.013 151.441 111.532 151.533C111.055 151.623 110.61 151.778 110.196 151.996C109.771 152.221 109.476 152.477 109.311 152.764C109.151 153.049 109.141 153.323 109.28 153.586C109.344 153.707 109.428 153.799 109.531 153.86C109.637 153.914 109.763 153.938 109.909 153.932C110.059 153.924 110.206 153.901 110.348 153.865C110.496 153.826 110.671 153.772 110.874 153.704L111.685 153.421C113.496 152.775 114.716 153.045 115.343 154.233C115.72 154.946 115.73 155.675 115.373 156.419C115.016 157.164 114.322 157.808 113.291 158.353C112.052 159.007 110.849 159.245 109.682 159.066L109.789 157.487C110.697 157.641 111.627 157.467 112.577 156.965C113.113 156.682 113.481 156.387 113.681 156.081C113.882 155.775 113.908 155.482 113.762 155.204C113.54 154.785 112.979 154.739 112.078 155.065L111.268 155.367C110.405 155.681 109.67 155.769 109.061 155.631C108.449 155.489 107.988 155.125 107.678 154.538C107.299 153.82 107.268 153.113 107.585 152.415C107.904 151.71 108.526 151.113 109.452 150.624C110.624 150.005 111.74 149.742 112.798 149.836ZM120.47 145.785L120.44 147.381C120.097 147.355 119.684 147.389 119.203 147.481C118.727 147.571 118.282 147.726 117.867 147.945C117.442 148.169 117.148 148.425 116.983 148.712C116.823 148.997 116.812 149.271 116.951 149.534C117.015 149.655 117.099 149.747 117.203 149.808C117.309 149.862 117.435 149.886 117.58 149.881C117.731 149.872 117.878 149.85 118.02 149.813C118.167 149.774 118.343 149.72 118.546 149.652L119.356 149.369C121.168 148.723 122.387 148.994 123.015 150.181C123.391 150.894 123.401 151.623 123.044 152.367C122.688 153.112 121.994 153.756 120.962 154.301C119.724 154.955 118.521 155.193 117.353 155.014L117.46 153.435C118.369 153.589 119.298 153.415 120.249 152.913C120.784 152.63 121.153 152.335 121.353 152.029C121.553 151.723 121.58 151.431 121.433 151.153C121.212 150.733 120.65 150.687 119.75 151.014L118.94 151.316C118.077 151.629 117.341 151.717 116.732 151.58C116.12 151.437 115.66 151.073 115.35 150.486C114.971 149.769 114.94 149.061 115.256 148.363C115.576 147.658 116.198 147.061 117.123 146.573C118.296 145.953 119.411 145.691 120.47 145.785Z" fill="black"/>
<path d="M104.148 188.96C103.801 189.143 103.367 189.009 103.184 188.662C102.997 188.31 103.135 187.881 103.481 187.698C103.834 187.511 104.263 187.649 104.446 187.996C104.629 188.342 104.501 188.774 104.148 188.96ZM105.416 188.29C105.064 188.477 104.629 188.342 104.446 187.996C104.26 187.643 104.397 187.214 104.75 187.028C105.097 186.845 105.531 186.979 105.714 187.326C105.898 187.673 105.763 188.107 105.416 188.29ZM106.679 187.624C106.326 187.81 105.898 187.673 105.714 187.326C105.528 186.973 105.66 186.547 106.012 186.361C106.359 186.178 106.794 186.312 106.977 186.659C107.16 187.006 107.026 187.44 106.679 187.624ZM102.219 188.365C101.872 188.548 101.437 188.414 101.254 188.067C101.068 187.714 101.205 187.285 101.552 187.102C101.905 186.916 102.331 187.047 102.517 187.4C102.7 187.747 102.566 188.181 102.219 188.365ZM107.275 185.694C106.928 185.878 106.493 185.743 106.31 185.396C106.124 185.044 106.261 184.615 106.608 184.432C106.955 184.249 107.386 184.377 107.573 184.73C107.756 185.077 107.622 185.511 107.275 185.694ZM106.608 184.432C106.261 184.615 105.826 184.481 105.64 184.128C105.457 183.781 105.591 183.347 105.938 183.164C106.285 182.98 106.719 183.115 106.903 183.461C107.089 183.814 106.955 184.249 106.608 184.432ZM103.413 184.497C103.06 184.683 102.629 184.555 102.443 184.202C102.259 183.855 102.394 183.421 102.746 183.235C103.093 183.051 103.528 183.186 103.711 183.533C103.897 183.885 103.76 184.314 103.413 184.497ZM104.676 183.83C104.323 184.017 103.897 183.885 103.711 183.533C103.528 183.186 103.656 182.754 104.009 182.568C104.356 182.385 104.79 182.519 104.973 182.866C105.16 183.218 105.022 183.647 104.676 183.83ZM105.271 181.901C104.924 182.084 104.49 181.95 104.307 181.603C104.123 181.256 104.258 180.822 104.604 180.639C104.951 180.455 105.386 180.59 105.569 180.936C105.752 181.283 105.618 181.718 105.271 181.901ZM99.5487 183.309C99.2018 183.492 98.7672 183.358 98.584 183.011C98.3978 182.658 98.535 182.229 98.8819 182.046C99.2345 181.86 99.6603 181.992 99.8465 182.344C100.03 182.691 99.8956 183.126 99.5487 183.309ZM104.604 180.639C104.258 180.822 103.823 180.688 103.64 180.341C103.454 179.988 103.591 179.559 103.938 179.376C104.285 179.193 104.716 179.321 104.902 179.674C105.086 180.021 104.951 180.455 104.604 180.639ZM100.144 181.379C99.7975 181.563 99.363 181.429 99.1797 181.082C98.9935 180.729 99.1277 180.294 99.4746 180.111C99.8272 179.925 100.256 180.062 100.442 180.415C100.625 180.762 100.497 181.193 100.144 181.379ZM101.413 180.71C101.06 180.896 100.625 180.762 100.442 180.415C100.256 180.062 100.39 179.628 100.743 179.441C101.09 179.258 101.524 179.392 101.71 179.745C101.894 180.092 101.76 180.526 101.413 180.71ZM102.675 180.043C102.323 180.229 101.894 180.092 101.71 179.745C101.524 179.392 101.653 178.961 102.005 178.775C102.352 178.591 102.787 178.726 102.973 179.078C103.156 179.425 103.022 179.86 102.675 180.043ZM110.461 185.626C110.114 185.809 109.68 185.675 109.496 185.328C109.31 184.976 109.447 184.547 109.794 184.364C110.147 184.177 110.576 184.315 110.759 184.661C110.942 185.008 110.808 185.443 110.461 185.626ZM111.723 184.959C111.377 185.143 110.942 185.008 110.759 184.661C110.573 184.309 110.71 183.88 111.057 183.697C111.409 183.511 111.838 183.648 112.021 183.995C112.205 184.342 112.076 184.773 111.723 184.959ZM112.992 184.29C112.639 184.476 112.205 184.342 112.021 183.995C111.835 183.642 111.972 183.213 112.325 183.027C112.672 182.844 113.106 182.978 113.29 183.325C113.473 183.672 113.339 184.106 112.992 184.29ZM111.057 183.697C110.71 183.88 110.275 183.746 110.092 183.399C109.906 183.046 110.043 182.618 110.39 182.434C110.742 182.248 111.168 182.38 111.355 182.732C111.538 183.079 111.409 183.511 111.057 183.697ZM110.39 182.434C110.043 182.618 109.608 182.483 109.422 182.131C109.239 181.784 109.373 181.349 109.72 181.166C110.073 180.98 110.502 181.117 110.685 181.464C110.871 181.817 110.742 182.248 110.39 182.434ZM109.72 181.166C109.373 181.349 108.942 181.221 108.755 180.868C108.572 180.521 108.706 180.087 109.053 179.904C109.406 179.717 109.835 179.855 110.018 180.201C110.204 180.554 110.073 180.98 109.72 181.166ZM109.053 179.904C108.706 180.087 108.272 179.953 108.089 179.606C107.905 179.259 108.04 178.824 108.386 178.641C108.739 178.455 109.168 178.592 109.351 178.939C109.534 179.286 109.406 179.717 109.053 179.904ZM107.124 179.308C106.777 179.491 106.343 179.357 106.159 179.01C105.973 178.657 106.11 178.229 106.457 178.045C106.81 177.859 107.236 177.991 107.422 178.343C107.605 178.69 107.471 179.125 107.124 179.308ZM108.386 178.641C108.04 178.824 107.605 178.69 107.422 178.343C107.236 177.991 107.373 177.562 107.72 177.379C108.072 177.192 108.498 177.324 108.684 177.676C108.868 178.023 108.739 178.455 108.386 178.641ZM107.72 177.379C107.373 177.562 106.938 177.428 106.755 177.081C106.569 176.728 106.703 176.294 107.05 176.11C107.402 175.924 107.831 176.061 108.018 176.414C108.201 176.761 108.072 177.192 107.72 177.379ZM116.777 182.29C116.43 182.473 115.996 182.339 115.813 181.992C115.626 181.64 115.764 181.211 116.111 181.028C116.463 180.841 116.892 180.979 117.075 181.325C117.258 181.672 117.13 182.104 116.777 182.29ZM123.096 178.953C122.749 179.136 122.314 179.002 122.131 178.655C121.945 178.303 122.082 177.874 122.429 177.691C122.781 177.504 123.216 177.638 123.399 177.985C123.582 178.332 123.448 178.767 123.096 178.953ZM124.364 178.283C124.011 178.469 123.582 178.332 123.399 177.985C123.213 177.633 123.344 177.207 123.697 177.021C124.044 176.838 124.478 176.972 124.662 177.319C124.845 177.665 124.711 178.1 124.364 178.283ZM117.379 180.358C117.026 180.544 116.592 180.41 116.408 180.063C116.222 179.71 116.359 179.281 116.712 179.095C117.059 178.912 117.49 179.041 117.677 179.393C117.86 179.74 117.726 180.175 117.379 180.358ZM121.166 178.357C120.819 178.541 120.385 178.406 120.202 178.059C120.015 177.707 120.153 177.278 120.5 177.095C120.852 176.909 121.278 177.04 121.464 177.393C121.647 177.74 121.519 178.171 121.166 178.357ZM124.96 176.354C124.607 176.54 124.178 176.403 123.995 176.056C123.809 175.703 123.946 175.275 124.293 175.091C124.64 174.908 125.071 175.037 125.257 175.389C125.441 175.736 125.306 176.171 124.96 176.354ZM117.974 178.428C117.622 178.615 117.193 178.477 117.007 178.125C116.824 177.778 116.952 177.346 117.305 177.16C117.652 176.977 118.086 177.111 118.269 177.458C118.456 177.811 118.321 178.245 117.974 178.428ZM120.5 177.095C120.153 177.278 119.718 177.144 119.532 176.791C119.349 176.444 119.483 176.01 119.83 175.827C120.182 175.64 120.611 175.778 120.794 176.124C120.981 176.477 120.852 176.909 120.5 177.095ZM124.293 175.091C123.94 175.278 123.511 175.14 123.325 174.788C123.142 174.441 123.276 174.006 123.623 173.823C123.97 173.64 124.404 173.774 124.588 174.121C124.774 174.474 124.64 174.908 124.293 175.091ZM114.774 178.497C114.427 178.68 113.996 178.552 113.809 178.199C113.626 177.852 113.76 177.418 114.107 177.234C114.46 177.048 114.889 177.185 115.072 177.532C115.258 177.885 115.127 178.311 114.774 178.497ZM116.042 177.827C115.69 178.013 115.258 177.885 115.072 177.532C114.889 177.185 115.023 176.751 115.375 176.565C115.722 176.381 116.157 176.515 116.34 176.862C116.526 177.215 116.389 177.644 116.042 177.827ZM118.567 176.493C118.22 176.677 117.789 176.548 117.603 176.196C117.419 175.849 117.553 175.414 117.9 175.231C118.247 175.048 118.682 175.182 118.865 175.529C119.051 175.881 118.914 176.31 118.567 176.493ZM121.092 175.16C120.745 175.343 120.314 175.215 120.128 174.862C119.944 174.515 120.079 174.081 120.425 173.897C120.778 173.711 121.213 173.845 121.396 174.192C121.582 174.545 121.445 174.974 121.092 175.16ZM122.36 174.49C122.008 174.676 121.582 174.545 121.396 174.192C121.213 173.845 121.341 173.414 121.694 173.227C122.041 173.044 122.475 173.178 122.658 173.525C122.845 173.878 122.707 174.307 122.36 174.49ZM112.845 177.901C112.498 178.084 112.063 177.95 111.88 177.603C111.697 177.256 111.831 176.822 112.178 176.639C112.53 176.452 112.959 176.59 113.142 176.936C113.326 177.283 113.192 177.718 112.845 177.901ZM116.638 175.898C116.285 176.084 115.856 175.947 115.673 175.6C115.49 175.253 115.618 174.821 115.971 174.635C116.318 174.452 116.753 174.586 116.936 174.933C117.119 175.28 116.985 175.714 116.638 175.898ZM119.163 174.564C118.816 174.747 118.381 174.613 118.198 174.266C118.015 173.919 118.149 173.485 118.496 173.302C118.849 173.115 119.278 173.253 119.461 173.599C119.644 173.946 119.515 174.378 119.163 174.564ZM112.178 176.639C111.831 176.822 111.396 176.688 111.213 176.341C111.027 175.988 111.164 175.559 111.511 175.376C111.864 175.19 112.289 175.321 112.476 175.674C112.659 176.021 112.525 176.455 112.178 176.639ZM115.971 174.635C115.618 174.821 115.19 174.684 115.006 174.337C114.82 173.985 114.952 173.559 115.304 173.373C115.651 173.189 116.083 173.318 116.269 173.671C116.452 174.017 116.318 174.452 115.971 174.635ZM119.759 172.635C119.412 172.818 118.977 172.684 118.794 172.337C118.608 171.984 118.745 171.555 119.092 171.372C119.444 171.186 119.876 171.315 120.062 171.667C120.245 172.014 120.111 172.449 119.759 172.635ZM112.774 174.709C112.427 174.893 111.992 174.758 111.809 174.411C111.623 174.059 111.757 173.624 112.104 173.441C112.456 173.255 112.885 173.392 113.071 173.745C113.255 174.092 113.126 174.523 112.774 174.709ZM114.042 174.039C113.689 174.226 113.255 174.092 113.071 173.745C112.885 173.392 113.019 172.958 113.372 172.771C113.719 172.588 114.153 172.722 114.34 173.075C114.523 173.422 114.389 173.856 114.042 174.039ZM120.36 170.702C120.007 170.889 119.579 170.752 119.395 170.405C119.209 170.052 119.338 169.62 119.69 169.434C120.037 169.251 120.472 169.385 120.658 169.738C120.841 170.085 120.707 170.519 120.36 170.702Z" fill="black"/>
</svg>
