<svg width="91" height="247" viewBox="0 0 91 247" fill="none" xmlns="http://www.w3.org/2000/svg">
<path d="M38.1423 21.9272V62.578C38.1423 66.1925 36.1918 69.5257 33.0406 71.2962L20.2579 78.4782C17.1067 80.2487 15.1562 83.5819 15.1562 87.1964V221.156C15.1562 226.679 19.6334 231.156 25.1563 231.156H65.1562C70.6791 231.156 75.1562 226.679 75.1562 221.156V87.2562C75.1562 83.6099 73.1716 80.2526 69.9769 78.4948L56.8635 71.2796C53.6689 69.5218 51.6842 66.1645 51.6842 62.5182V21.9272C51.6842 18.1877 48.6527 15.1562 44.9133 15.1562C41.1738 15.1562 38.1423 18.1877 38.1423 21.9272Z" fill="#D9B97E" stroke="#D9B97E" stroke-width="30.3139"/>
<circle cx="38.9831" cy="90.5651" r="2.47137" fill="black"/>
<circle cx="44.9206" cy="90.569" r="2.47137" fill="black"/>
<circle cx="51.1784" cy="90.569" r="2.47137" fill="black"/>
<circle cx="51.1784" cy="96.5065" r="2.47137" fill="black"/>
<circle cx="51.1784" cy="102.432" r="2.47137" fill="black"/>
<circle cx="51.1784" cy="108.366" r="2.47137" fill="black"/>
<circle cx="54.1452" cy="114.292" r="2.47137" fill="black"/>
<circle cx="57.1081" cy="120.229" r="2.47137" fill="black"/>
<circle cx="57.1081" cy="126.487" r="2.47137" fill="black"/>
<circle cx="57.1081" cy="132.413" r="2.47137" fill="black"/>
<circle cx="57.1081" cy="138.346" r="2.47137" fill="black"/>
<circle cx="57.112" cy="144.28" r="2.47137" fill="black"/>
<circle cx="57.1081" cy="150.214" r="2.47137" fill="black"/>
<circle cx="38.987" cy="96.4987" r="2.47137" fill="black"/>
<circle cx="38.9831" cy="102.432" r="2.47137" fill="black"/>
<circle cx="38.9831" cy="108.366" r="2.47137" fill="black"/>
<circle cx="36.0221" cy="114.292" r="2.47137" fill="black"/>
<circle cx="33.0554" cy="120.221" r="2.47137" fill="black"/>
<circle cx="33.0573" cy="126.487" r="2.47137" fill="black"/>
<circle cx="33.0554" cy="132.413" r="2.47137" fill="black"/>
<circle cx="33.0554" cy="138.346" r="2.47137" fill="black"/>
<circle cx="33.0554" cy="144.28" r="2.47137" fill="black"/>
<circle cx="33.0554" cy="150.214" r="2.47137" fill="black"/>
<circle cx="54.1471" cy="156.014" r="2.47137" fill="black"/>
<circle cx="36.0221" cy="156.018" r="2.47137" fill="black"/>
<circle cx="41.9518" cy="156.018" r="2.47137" fill="black"/>
<circle cx="48.2136" cy="156.018" r="2.47137" fill="black"/>
<path d="M28.9913 169.264C29.9403 169.264 30.815 169.432 31.6154 169.77C32.4157 170.107 33.0903 170.584 33.6391 171.202L32.2156 172.582C31.8326 172.125 31.3638 171.768 30.8093 171.511C30.2547 171.253 29.6488 171.125 28.9913 171.125C27.7565 171.125 26.7389 171.531 25.9385 172.342C25.1381 173.154 24.738 174.203 24.738 175.489C24.738 176.77 25.1324 177.819 25.9214 178.637C26.716 179.448 27.7107 179.854 28.9056 179.854C29.986 179.854 30.8464 179.586 31.4867 179.048C32.1327 178.511 32.5329 177.742 32.6873 176.741H29.5058V174.941H34.7882C34.7996 175.146 34.8054 175.301 34.8054 175.404C34.8054 176.267 34.6682 177.082 34.3937 177.848C34.1251 178.608 33.7449 179.274 33.2532 179.846C32.7616 180.417 32.1384 180.872 31.3838 181.209C30.6349 181.541 29.8088 181.707 28.9056 181.707C28.2824 181.707 27.6707 181.621 27.0704 181.449C26.4759 181.278 25.9128 181.018 25.3811 180.669C24.8552 180.32 24.3921 179.903 23.9919 179.417C23.5975 178.925 23.283 178.342 23.0486 177.668C22.82 176.993 22.7056 176.267 22.7056 175.489C22.7056 174.598 22.8628 173.766 23.1773 172.994C23.4917 172.222 23.9233 171.565 24.4721 171.022C25.0267 170.473 25.6927 170.044 26.4702 169.735C27.2534 169.421 28.0938 169.264 28.9913 169.264ZM38.9873 169.144V181.492H37.1865V169.144H38.9873ZM49.6816 173.277V181.492H47.8894V180.506C47.2662 181.306 46.4059 181.707 45.3082 181.707C44.1477 181.707 43.173 181.298 42.384 180.48C41.5951 179.663 41.2007 178.631 41.2007 177.385C41.2007 176.138 41.5951 175.106 42.384 174.289C43.173 173.471 44.1477 173.063 45.3082 173.063C46.4059 173.063 47.2662 173.466 47.8894 174.272V173.277H49.6816ZM45.5226 174.752C44.7737 174.752 44.1734 175.006 43.7218 175.515C43.2702 176.018 43.0443 176.641 43.0443 177.385C43.0443 178.128 43.2702 178.754 43.7218 179.263C44.1734 179.766 44.7737 180.017 45.5226 180.017C46.2544 180.017 46.8489 179.769 47.3063 179.271C47.7693 178.774 48.0009 178.145 48.0009 177.385C48.0009 176.624 47.7693 175.995 47.3063 175.498C46.8489 175.001 46.2544 174.752 45.5226 174.752ZM58.8576 173.937L58.0858 175.335C57.7942 175.152 57.4141 174.989 56.9453 174.846C56.4822 174.703 56.0163 174.632 55.5475 174.632C55.0673 174.632 54.6871 174.721 54.407 174.898C54.1326 175.075 53.9954 175.312 53.9954 175.61C53.9954 175.747 54.0268 175.867 54.0897 175.97C54.1583 176.067 54.2584 176.147 54.3899 176.21C54.5271 176.273 54.6671 176.321 54.81 176.356C54.9587 176.39 55.1388 176.424 55.3503 176.458L56.1992 176.587C58.103 176.862 59.0548 177.67 59.0548 179.014C59.0548 179.82 58.7232 180.469 58.0601 180.961C57.3969 181.452 56.4822 181.698 55.316 181.698C53.9154 181.698 52.7405 181.346 51.7915 180.643L52.6233 179.297C53.3551 179.857 54.2584 180.137 55.3331 180.137C55.9391 180.137 56.4022 180.049 56.7223 179.871C57.0425 179.694 57.2025 179.448 57.2025 179.134C57.2025 178.659 56.728 178.356 55.779 178.225L54.9215 178.114C54.0125 177.988 53.3208 177.722 52.8463 177.316C52.3718 176.904 52.1345 176.367 52.1345 175.704C52.1345 174.892 52.4375 174.252 53.0435 173.783C53.6552 173.309 54.4842 173.071 55.5304 173.071C56.8567 173.071 57.9657 173.36 58.8576 173.937ZM67.5334 173.937L66.7616 175.335C66.47 175.152 66.0899 174.989 65.6211 174.846C65.158 174.703 64.6921 174.632 64.2233 174.632C63.7431 174.632 63.3629 174.721 63.0828 174.898C62.8084 175.075 62.6712 175.312 62.6712 175.61C62.6712 175.747 62.7026 175.867 62.7655 175.97C62.8341 176.067 62.9341 176.147 63.0656 176.21C63.2028 176.273 63.3429 176.321 63.4858 176.356C63.6345 176.39 63.8145 176.424 64.0261 176.458L64.875 176.587C66.7787 176.862 67.7306 177.67 67.7306 179.014C67.7306 179.82 67.399 180.469 66.7359 180.961C66.0727 181.452 65.158 181.698 63.9918 181.698C62.5911 181.698 61.4163 181.346 60.4673 180.643L61.2991 179.297C62.0309 179.857 62.9341 180.137 64.0089 180.137C64.6149 180.137 65.078 180.049 65.3981 179.871C65.7183 179.694 65.8783 179.448 65.8783 179.134C65.8783 178.659 65.4038 178.356 64.4548 178.225L63.5973 178.114C62.6883 177.988 61.9966 177.722 61.5221 177.316C61.0476 176.904 60.8103 176.367 60.8103 175.704C60.8103 174.892 61.1133 174.252 61.7193 173.783C62.331 173.309 63.16 173.071 64.2061 173.071C65.5325 173.071 66.6415 173.36 67.5334 173.937Z" fill="black"/>
<path d="M32.937 204.492C32.5447 204.492 32.2231 204.171 32.2231 203.778C32.2231 203.38 32.5447 203.064 32.937 203.064C33.3358 203.064 33.6509 203.386 33.6509 203.778C33.6509 204.171 33.3358 204.492 32.937 204.492ZM34.3712 204.492C33.9725 204.492 33.6509 204.171 33.6509 203.778C33.6509 203.38 33.9725 203.064 34.3712 203.064C34.7635 203.064 35.0851 203.386 35.0851 203.778C35.0851 204.171 34.7635 204.492 34.3712 204.492ZM35.799 204.492C35.4003 204.492 35.0851 204.171 35.0851 203.778C35.0851 203.38 35.4003 203.064 35.799 203.064C36.1913 203.064 36.5129 203.386 36.5129 203.778C36.5129 204.171 36.1913 204.492 35.799 204.492ZM31.5092 203.064C31.1169 203.064 30.7953 202.743 30.7953 202.351C30.7953 201.952 31.1169 201.637 31.5092 201.637C31.908 201.637 32.2231 201.952 32.2231 202.351C32.2231 202.743 31.9015 203.064 31.5092 203.064ZM37.2268 203.064C36.8345 203.064 36.5129 202.743 36.5129 202.351C36.5129 201.952 36.8345 201.637 37.2268 201.637C37.6191 201.637 37.9407 201.952 37.9407 202.351C37.9407 202.743 37.6191 203.064 37.2268 203.064ZM37.2268 201.637C36.8345 201.637 36.5129 201.315 36.5129 200.916C36.5129 200.524 36.8345 200.202 37.2268 200.202C37.6191 200.202 37.9407 200.524 37.9407 200.916C37.9407 201.315 37.6191 201.637 37.2268 201.637ZM34.3712 200.202C33.9725 200.202 33.6509 199.887 33.6509 199.489C33.6509 199.096 33.9725 198.775 34.3712 198.775C34.7635 198.775 35.0851 199.096 35.0851 199.489C35.0851 199.887 34.7635 200.202 34.3712 200.202ZM35.799 200.202C35.4003 200.202 35.0851 199.887 35.0851 199.489C35.0851 199.096 35.4003 198.775 35.799 198.775C36.1913 198.775 36.5129 199.096 36.5129 199.489C36.5129 199.887 36.1913 200.202 35.799 200.202ZM37.2268 198.775C36.8345 198.775 36.5129 198.453 36.5129 198.061C36.5129 197.668 36.8345 197.347 37.2268 197.347C37.6191 197.347 37.9407 197.668 37.9407 198.061C37.9407 198.453 37.6191 198.775 37.2268 198.775ZM31.5092 197.347C31.1169 197.347 30.7953 197.025 30.7953 196.633C30.7953 196.234 31.1169 195.919 31.5092 195.919C31.908 195.919 32.2231 196.234 32.2231 196.633C32.2231 197.025 31.9015 197.347 31.5092 197.347ZM37.2268 197.347C36.8345 197.347 36.5129 197.025 36.5129 196.633C36.5129 196.234 36.8345 195.919 37.2268 195.919C37.6191 195.919 37.9407 196.234 37.9407 196.633C37.9407 197.025 37.6191 197.347 37.2268 197.347ZM32.937 195.919C32.5447 195.919 32.2231 195.597 32.2231 195.205C32.2231 194.806 32.5447 194.485 32.937 194.485C33.3358 194.485 33.6509 194.806 33.6509 195.205C33.6509 195.597 33.3358 195.919 32.937 195.919ZM34.3712 195.919C33.9725 195.919 33.6509 195.597 33.6509 195.205C33.6509 194.806 33.9725 194.485 34.3712 194.485C34.7635 194.485 35.0851 194.806 35.0851 195.205C35.0851 195.597 34.7635 195.919 34.3712 195.919ZM35.799 195.919C35.4003 195.919 35.0851 195.597 35.0851 195.205C35.0851 194.806 35.4003 194.485 35.799 194.485C36.1913 194.485 36.5129 194.806 36.5129 195.205C36.5129 195.597 36.1913 195.919 35.799 195.919ZM40.0761 204.492C39.6838 204.492 39.3622 204.171 39.3622 203.778C39.3622 203.38 39.6838 203.064 40.0761 203.064C40.4749 203.064 40.79 203.386 40.79 203.778C40.79 204.171 40.4685 204.492 40.0761 204.492ZM41.5039 204.492C41.1116 204.492 40.79 204.171 40.79 203.778C40.79 203.38 41.1116 203.064 41.5039 203.064C41.9027 203.064 42.2178 203.386 42.2178 203.778C42.2178 204.171 41.9027 204.492 41.5039 204.492ZM42.9381 204.492C42.5394 204.492 42.2178 204.171 42.2178 203.778C42.2178 203.38 42.5394 203.064 42.9381 203.064C43.3305 203.064 43.652 203.386 43.652 203.778C43.652 204.171 43.3305 204.492 42.9381 204.492ZM41.5039 203.064C41.1116 203.064 40.79 202.743 40.79 202.351C40.79 201.952 41.1116 201.637 41.5039 201.637C41.9027 201.637 42.2178 201.952 42.2178 202.351C42.2178 202.743 41.9027 203.064 41.5039 203.064ZM41.5039 201.637C41.1116 201.637 40.79 201.315 40.79 200.916C40.79 200.524 41.1116 200.202 41.5039 200.202C41.9027 200.202 42.2178 200.524 42.2178 200.916C42.2178 201.315 41.9027 201.637 41.5039 201.637ZM41.5039 200.202C41.1116 200.202 40.79 199.887 40.79 199.489C40.79 199.096 41.1116 198.775 41.5039 198.775C41.9027 198.775 42.2178 199.096 42.2178 199.489C42.2178 199.887 41.9027 200.202 41.5039 200.202ZM41.5039 198.775C41.1116 198.775 40.79 198.453 40.79 198.061C40.79 197.668 41.1116 197.347 41.5039 197.347C41.9027 197.347 42.2178 197.668 42.2178 198.061C42.2178 198.453 41.9027 198.775 41.5039 198.775ZM40.0761 197.347C39.6838 197.347 39.3622 197.025 39.3622 196.633C39.3622 196.234 39.6838 195.919 40.0761 195.919C40.4749 195.919 40.79 196.234 40.79 196.633C40.79 197.025 40.4685 197.347 40.0761 197.347ZM41.5039 197.347C41.1116 197.347 40.79 197.025 40.79 196.633C40.79 196.234 41.1116 195.919 41.5039 195.919C41.9027 195.919 42.2178 196.234 42.2178 196.633C42.2178 197.025 41.9027 197.347 41.5039 197.347ZM41.5039 195.919C41.1116 195.919 40.79 195.597 40.79 195.205C40.79 194.806 41.1116 194.485 41.5039 194.485C41.9027 194.485 42.2178 194.806 42.2178 195.205C42.2178 195.597 41.9027 195.919 41.5039 195.919ZM47.2194 204.492C46.8271 204.492 46.5055 204.171 46.5055 203.778C46.5055 203.38 46.8271 203.064 47.2194 203.064C47.6181 203.064 47.9333 203.386 47.9333 203.778C47.9333 204.171 47.6181 204.492 47.2194 204.492ZM54.3647 204.492C53.9724 204.492 53.6509 204.171 53.6509 203.778C53.6509 203.38 53.9724 203.064 54.3647 203.064C54.7635 203.064 55.0851 203.386 55.0851 203.778C55.0851 204.171 54.7635 204.492 54.3647 204.492ZM55.799 204.492C55.4002 204.492 55.0851 204.171 55.0851 203.778C55.0851 203.38 55.4002 203.064 55.799 203.064C56.1913 203.064 56.5129 203.386 56.5129 203.778C56.5129 204.171 56.1913 204.492 55.799 204.492ZM48.6536 203.064C48.2548 203.064 47.9333 202.743 47.9333 202.351C47.9333 201.952 48.2548 201.637 48.6536 201.637C49.0459 201.637 49.3675 201.952 49.3675 202.351C49.3675 202.743 49.0459 203.064 48.6536 203.064ZM52.937 203.064C52.5446 203.064 52.2231 202.743 52.2231 202.351C52.2231 201.952 52.5446 201.637 52.937 201.637C53.3357 201.637 53.6509 201.952 53.6509 202.351C53.6509 202.743 53.3357 203.064 52.937 203.064ZM57.2267 203.064C56.828 203.064 56.5129 202.743 56.5129 202.351C56.5129 201.952 56.8344 201.637 57.2267 201.637C57.6191 201.637 57.9406 201.952 57.9406 202.351C57.9406 202.743 57.6191 203.064 57.2267 203.064ZM50.0814 201.637C49.6826 201.637 49.3675 201.315 49.3675 200.916C49.3675 200.524 49.6826 200.202 50.0814 200.202C50.4737 200.202 50.7953 200.524 50.7953 200.916C50.7953 201.315 50.4737 201.637 50.0814 201.637ZM52.937 201.637C52.5446 201.637 52.2231 201.315 52.2231 200.916C52.2231 200.524 52.5446 200.202 52.937 200.202C53.3357 200.202 53.6509 200.524 53.6509 200.916C53.6509 201.315 53.3357 201.637 52.937 201.637ZM57.2267 201.637C56.828 201.637 56.5129 201.315 56.5129 200.916C56.5129 200.524 56.8344 200.202 57.2267 200.202C57.6191 200.202 57.9406 200.524 57.9406 200.916C57.9406 201.315 57.6191 201.637 57.2267 201.637ZM47.2194 200.202C46.8271 200.202 46.5055 199.887 46.5055 199.489C46.5055 199.096 46.8271 198.775 47.2194 198.775C47.6181 198.775 47.9333 199.096 47.9333 199.489C47.9333 199.887 47.6181 200.202 47.2194 200.202ZM48.6536 200.202C48.2548 200.202 47.9333 199.887 47.9333 199.489C47.9333 199.096 48.2548 198.775 48.6536 198.775C49.0459 198.775 49.3675 199.096 49.3675 199.489C49.3675 199.887 49.0459 200.202 48.6536 200.202ZM51.5092 200.202C51.1169 200.202 50.7953 199.887 50.7953 199.489C50.7953 199.096 51.1169 198.775 51.5092 198.775C51.9015 198.775 52.2231 199.096 52.2231 199.489C52.2231 199.887 51.9015 200.202 51.5092 200.202ZM54.3647 200.202C53.9724 200.202 53.6509 199.887 53.6509 199.489C53.6509 199.096 53.9724 198.775 54.3647 198.775C54.7635 198.775 55.0851 199.096 55.0851 199.489C55.0851 199.887 54.7635 200.202 54.3647 200.202ZM55.799 200.202C55.4002 200.202 55.0851 199.887 55.0851 199.489C55.0851 199.096 55.4002 198.775 55.799 198.775C56.1913 198.775 56.5129 199.096 56.5129 199.489C56.5129 199.887 56.1913 200.202 55.799 200.202ZM45.7916 198.775C45.3993 198.775 45.0777 198.453 45.0777 198.061C45.0777 197.668 45.3993 197.347 45.7916 197.347C46.1903 197.347 46.5055 197.668 46.5055 198.061C46.5055 198.453 46.1839 198.775 45.7916 198.775ZM50.0814 198.775C49.6826 198.775 49.3675 198.453 49.3675 198.061C49.3675 197.668 49.6826 197.347 50.0814 197.347C50.4737 197.347 50.7953 197.668 50.7953 198.061C50.7953 198.453 50.4737 198.775 50.0814 198.775ZM52.937 198.775C52.5446 198.775 52.2231 198.453 52.2231 198.061C52.2231 197.668 52.5446 197.347 52.937 197.347C53.3357 197.347 53.6509 197.668 53.6509 198.061C53.6509 198.453 53.3357 198.775 52.937 198.775ZM45.7916 197.347C45.3993 197.347 45.0777 197.025 45.0777 196.633C45.0777 196.234 45.3993 195.919 45.7916 195.919C46.1903 195.919 46.5055 196.234 46.5055 196.633C46.5055 197.025 46.1839 197.347 45.7916 197.347ZM50.0814 197.347C49.6826 197.347 49.3675 197.025 49.3675 196.633C49.3675 196.234 49.6826 195.919 50.0814 195.919C50.4737 195.919 50.7953 196.234 50.7953 196.633C50.7953 197.025 50.4737 197.347 50.0814 197.347ZM54.3647 197.347C53.9724 197.347 53.6509 197.025 53.6509 196.633C53.6509 196.234 53.9724 195.919 54.3647 195.919C54.7635 195.919 55.0851 196.234 55.0851 196.633C55.0851 197.025 54.7635 197.347 54.3647 197.347ZM47.2194 195.919C46.8271 195.919 46.5055 195.597 46.5055 195.205C46.5055 194.806 46.8271 194.485 47.2194 194.485C47.6181 194.485 47.9333 194.806 47.9333 195.205C47.9333 195.597 47.6181 195.919 47.2194 195.919ZM48.6536 195.919C48.2548 195.919 47.9333 195.597 47.9333 195.205C47.9333 194.806 48.2548 194.485 48.6536 194.485C49.0459 194.485 49.3675 194.806 49.3675 195.205C49.3675 195.597 49.0459 195.919 48.6536 195.919ZM55.799 195.919C55.4002 195.919 55.0851 195.597 55.0851 195.205C55.0851 194.806 55.4002 194.485 55.799 194.485C56.1913 194.485 56.5129 194.806 56.5129 195.205C56.5129 195.597 56.1913 195.919 55.799 195.919Z" fill="black"/>
</svg>
