<svg width="223" height="185" viewBox="0 0 223 185" fill="none" xmlns="http://www.w3.org/2000/svg">
<path d="M18.7672 34.1652L52.0092 57.563C54.965 59.6435 56.568 63.157 56.2021 66.7529L54.7176 81.3397C54.3517 84.9357 55.9547 88.4492 58.9104 90.5296L168.455 167.634C172.972 170.813 179.21 169.729 182.389 165.213L205.412 132.503C208.591 127.987 207.507 121.749 202.99 118.57L93.4942 41.4994C90.5124 39.4006 86.6247 39.0912 83.3485 40.6919L69.9005 47.2623C66.6243 48.863 62.7365 48.5536 59.7548 46.4548L26.5617 23.0914C23.5038 20.939 19.2799 21.6731 17.1276 24.731C14.9752 27.789 15.7093 32.0128 18.7672 34.1652Z" fill="#D9B97E" stroke="#D9B97E" stroke-width="30.3139"/>
<circle cx="75.3829" cy="72.9857" r="2.47137" transform="rotate(-54.8597 75.3829 72.9857)" fill="black"/>
<circle cx="78.8067" cy="68.1342" r="2.47137" transform="rotate(-54.8597 78.8067 68.1342)" fill="black"/>
<circle cx="82.4083" cy="63.017" r="2.47137" transform="rotate(-54.8597 82.4083 63.017)" fill="black"/>
<circle cx="87.2598" cy="66.431" r="2.47137" transform="rotate(-54.8597 87.2598 66.431)" fill="black"/>
<circle cx="92.1075" cy="69.8451" r="2.47137" transform="rotate(-54.8597 92.1075 69.8451)" fill="black"/>
<circle cx="96.9571" cy="73.2592" r="2.47137" transform="rotate(-54.8597 96.9571 73.2592)" fill="black"/>
<circle cx="103.514" cy="74.2435" r="2.47137" transform="rotate(-54.8597 103.514 74.2435)" fill="black"/>
<circle cx="110.074" cy="75.2396" r="2.47137" transform="rotate(-54.8597 110.074 75.2396)" fill="black"/>
<circle cx="115.19" cy="78.8373" r="2.47137" transform="rotate(-54.8597 115.19 78.8373)" fill="black"/>
<circle cx="120.037" cy="82.2514" r="2.47137" transform="rotate(-54.8597 120.037 82.2514)" fill="black"/>
<circle cx="124.889" cy="85.6654" r="2.47137" transform="rotate(-54.8597 124.889 85.6654)" fill="black"/>
<circle cx="129.742" cy="89.0756" r="2.47137" transform="rotate(-54.8597 129.742 89.0756)" fill="black"/>
<circle cx="134.592" cy="92.4975" r="2.47137" transform="rotate(-54.8597 134.592 92.4975)" fill="black"/>
<circle cx="80.2383" cy="76.3959" r="2.47137" transform="rotate(-54.8597 80.2383 76.3959)" fill="black"/>
<circle cx="85.088" cy="79.8139" r="2.47137" transform="rotate(-54.8597 85.088 79.8139)" fill="black"/>
<circle cx="89.9376" cy="83.2318" r="2.47137" transform="rotate(-54.8597 89.9376 83.2318)" fill="black"/>
<circle cx="93.0821" cy="89.0639" r="2.47137" transform="rotate(-54.8597 93.0821 89.0639)" fill="black"/>
<circle cx="96.2227" cy="94.9037" r="2.47137" transform="rotate(-54.8597 96.2227 94.9037)" fill="black"/>
<circle cx="101.346" cy="98.5053" r="2.47137" transform="rotate(-54.8597 101.346 98.5053)" fill="black"/>
<circle cx="106.191" cy="101.919" r="2.47137" transform="rotate(-54.8597 106.191 101.919)" fill="black"/>
<circle cx="111.045" cy="105.337" r="2.47137" transform="rotate(-54.8597 111.045 105.337)" fill="black"/>
<circle cx="115.895" cy="108.751" r="2.47137" transform="rotate(-54.8597 115.895 108.751)" fill="black"/>
<circle cx="120.748" cy="112.165" r="2.47137" transform="rotate(-54.8597 120.748 112.165)" fill="black"/>
<circle cx="137.633" cy="98.2553" r="2.47137" transform="rotate(-54.8597 137.633 98.2553)" fill="black"/>
<circle cx="127.203" cy="113.079" r="2.47137" transform="rotate(-54.8597 127.203 113.079)" fill="black"/>
<circle cx="130.617" cy="108.232" r="2.47137" transform="rotate(-54.8597 130.617 108.232)" fill="black"/>
<circle cx="134.221" cy="103.111" r="2.47137" transform="rotate(-54.8597 134.221 103.111)" fill="black"/>
<path d="M133.985 126.454C134.531 125.678 135.173 125.06 135.909 124.6C136.646 124.139 137.424 123.863 138.245 123.769L138.555 125.728C137.96 125.778 137.398 125.956 136.869 126.261C136.339 126.566 135.885 126.988 135.507 127.525C134.796 128.535 134.542 129.601 134.746 130.723C134.949 131.845 135.576 132.776 136.628 133.516C137.675 134.253 138.76 134.534 139.883 134.36C141.004 134.177 141.908 133.597 142.596 132.62C143.218 131.737 143.494 130.878 143.423 130.046C143.355 129.208 142.957 128.438 142.227 127.736L140.396 130.338L138.924 129.301L141.964 124.982C142.139 125.091 142.268 125.175 142.353 125.234C143.058 125.731 143.646 126.312 144.114 126.977C144.581 127.635 144.907 128.329 145.092 129.06C145.276 129.791 145.289 130.562 145.131 131.373C144.971 132.177 144.631 132.948 144.111 133.686C143.752 134.196 143.33 134.647 142.844 135.039C142.362 135.426 141.825 135.737 141.234 135.971C140.646 136.201 140.038 136.339 139.41 136.387C138.781 136.426 138.123 136.348 137.437 136.151C136.754 135.95 136.094 135.625 135.458 135.178C134.729 134.665 134.139 134.057 133.689 133.356C133.239 132.655 132.95 131.923 132.822 131.162C132.692 130.392 132.725 129.601 132.92 128.788C133.113 127.966 133.469 127.188 133.985 126.454ZM139.641 118.211L149.738 125.319L148.702 126.791L138.604 119.684L139.641 118.211ZM149.176 111.845L155.894 116.573L154.862 118.039L154.056 117.471C154.352 118.442 154.184 119.376 153.552 120.273C152.884 121.222 151.989 121.784 150.866 121.959C149.743 122.133 148.673 121.862 147.653 121.144C146.634 120.427 146.017 119.511 145.803 118.395C145.589 117.279 145.815 116.247 146.483 115.298C147.115 114.4 147.94 113.929 148.958 113.883L148.144 113.311L149.176 111.845ZM147.988 116.095C147.557 116.707 147.42 117.345 147.576 118.007C147.727 118.666 148.107 119.209 148.715 119.637C149.322 120.065 149.964 120.24 150.64 120.164C151.312 120.084 151.863 119.738 152.294 119.126C152.715 118.527 152.854 117.898 152.71 117.238C152.57 116.573 152.189 116.021 151.567 115.584C150.946 115.146 150.298 114.973 149.625 115.066C148.955 115.154 148.409 115.497 147.988 116.095ZM154.997 104.721L155.696 106.157C155.379 106.29 155.027 106.507 154.64 106.808C154.257 107.105 153.93 107.445 153.66 107.828C153.384 108.221 153.237 108.583 153.221 108.914C153.208 109.24 153.323 109.489 153.566 109.66C153.678 109.739 153.795 109.782 153.915 109.79C154.034 109.79 154.157 109.754 154.284 109.683C154.415 109.607 154.535 109.52 154.645 109.423C154.759 109.321 154.891 109.194 155.04 109.041L155.634 108.42C156.954 107.022 158.164 106.709 159.262 107.482C159.921 107.946 160.261 108.591 160.282 109.416C160.302 110.241 159.976 111.131 159.305 112.084C158.499 113.23 157.535 113.988 156.414 114.359L155.792 112.904C156.671 112.628 157.42 112.051 158.039 111.172C158.388 110.677 158.582 110.247 158.621 109.883C158.66 109.519 158.551 109.247 158.294 109.066C157.906 108.793 157.385 109.006 156.732 109.707L156.147 110.344C155.521 111.015 154.905 111.427 154.3 111.582C153.691 111.733 153.115 111.618 152.572 111.236C151.908 110.769 151.559 110.152 151.525 109.387C151.489 108.614 151.772 107.799 152.374 106.944C153.137 105.859 154.012 105.118 154.997 104.721ZM159.991 97.6269L160.69 99.0625C160.372 99.1956 160.02 99.4127 159.634 99.7138C159.25 100.01 158.924 100.35 158.654 100.733C158.377 101.126 158.231 101.488 158.215 101.819C158.202 102.146 158.317 102.394 158.56 102.565C158.672 102.644 158.788 102.688 158.909 102.696C159.028 102.695 159.151 102.66 159.278 102.588C159.408 102.512 159.529 102.426 159.639 102.329C159.752 102.227 159.884 102.099 160.034 101.946L160.628 101.326C161.948 99.9271 163.157 99.6143 164.256 100.388C164.915 100.852 165.255 101.496 165.275 102.321C165.296 103.147 164.97 104.036 164.299 104.99C163.493 106.135 162.529 106.894 161.408 107.265L160.785 105.81C161.665 105.534 162.414 104.956 163.032 104.078C163.381 103.582 163.575 103.152 163.615 102.789C163.654 102.425 163.545 102.152 163.288 101.971C162.9 101.698 162.379 101.912 161.725 102.612L161.141 103.249C160.515 103.92 159.899 104.333 159.294 104.487C158.684 104.638 158.108 104.523 157.566 104.141C156.902 103.674 156.553 103.058 156.518 102.292C156.482 101.519 156.766 100.705 157.368 99.8492C158.131 98.7646 159.006 98.0238 159.991 97.6269Z" fill="black"/>
<path d="M165.064 143.503C164.839 143.824 164.391 143.902 164.07 143.676C163.744 143.447 163.671 143.002 163.897 142.682C164.126 142.355 164.571 142.283 164.892 142.509C165.212 142.734 165.294 143.177 165.064 143.503ZM165.89 142.331C165.66 142.657 165.212 142.734 164.892 142.509C164.566 142.279 164.493 141.835 164.722 141.509C164.948 141.188 165.396 141.11 165.717 141.336C166.038 141.562 166.116 142.01 165.89 142.331ZM166.712 141.163C166.482 141.489 166.038 141.562 165.717 141.336C165.391 141.106 165.315 140.667 165.544 140.341C165.77 140.02 166.218 139.942 166.539 140.168C166.86 140.394 166.938 140.842 166.712 141.163ZM163.075 143.849C162.849 144.17 162.401 144.248 162.08 144.022C161.754 143.792 161.682 143.348 161.908 143.027C162.137 142.701 162.576 142.625 162.902 142.854C163.223 143.08 163.301 143.528 163.075 143.849ZM166.366 139.174C166.14 139.494 165.692 139.572 165.371 139.346C165.045 139.117 164.973 138.673 165.198 138.352C165.424 138.031 165.867 137.949 166.193 138.179C166.514 138.405 166.592 138.853 166.366 139.174ZM165.198 138.352C164.973 138.673 164.525 138.75 164.199 138.521C163.878 138.295 163.8 137.847 164.026 137.526C164.251 137.205 164.7 137.128 165.02 137.353C165.346 137.583 165.424 138.031 165.198 138.352ZM162.382 139.861C162.153 140.187 161.71 140.269 161.384 140.04C161.063 139.814 160.985 139.366 161.214 139.04C161.44 138.719 161.888 138.641 162.209 138.867C162.535 139.096 162.608 139.541 162.382 139.861ZM163.204 138.694C162.974 139.02 162.535 139.096 162.209 138.867C161.888 138.641 161.807 138.198 162.036 137.872C162.262 137.551 162.71 137.473 163.031 137.699C163.357 137.929 163.43 138.373 163.204 138.694ZM162.858 136.704C162.632 137.025 162.184 137.103 161.863 136.877C161.543 136.652 161.465 136.203 161.691 135.883C161.916 135.562 162.364 135.484 162.685 135.71C163.006 135.936 163.084 136.384 162.858 136.704ZM158.4 140.558C158.174 140.879 157.726 140.957 157.405 140.731C157.079 140.502 157.006 140.057 157.232 139.736C157.462 139.41 157.901 139.334 158.227 139.563C158.548 139.789 158.625 140.237 158.4 140.558ZM161.691 135.883C161.465 136.203 161.017 136.281 160.696 136.056C160.37 135.826 160.297 135.382 160.523 135.061C160.749 134.74 161.192 134.658 161.518 134.888C161.838 135.114 161.916 135.562 161.691 135.883ZM158.054 138.569C157.828 138.89 157.38 138.967 157.059 138.742C156.733 138.512 156.655 138.064 156.881 137.743C157.111 137.417 157.555 137.345 157.881 137.574C158.202 137.8 158.283 138.243 158.054 138.569ZM158.879 137.396C158.65 137.722 158.202 137.8 157.881 137.574C157.555 137.345 157.477 136.897 157.707 136.57C157.932 136.25 158.38 136.172 158.706 136.401C159.027 136.627 159.105 137.075 158.879 137.396ZM159.701 136.228C159.472 136.554 159.027 136.627 158.706 136.401C158.38 136.172 158.299 135.729 158.528 135.403C158.754 135.082 159.202 135.004 159.528 135.234C159.849 135.46 159.927 135.908 159.701 136.228ZM169.174 137.665C168.948 137.986 168.5 138.064 168.179 137.838C167.853 137.609 167.78 137.164 168.006 136.844C168.236 136.517 168.68 136.445 169.001 136.671C169.322 136.896 169.399 137.345 169.174 137.665ZM169.995 136.498C169.77 136.819 169.322 136.896 169.001 136.671C168.675 136.441 168.602 135.997 168.828 135.676C169.057 135.35 169.502 135.277 169.823 135.503C170.143 135.729 170.225 136.172 169.995 136.498ZM170.821 135.325C170.591 135.651 170.143 135.729 169.823 135.503C169.496 135.274 169.424 134.829 169.653 134.503C169.879 134.182 170.327 134.104 170.648 134.33C170.969 134.556 171.047 135.004 170.821 135.325ZM168.828 135.676C168.602 135.997 168.154 136.075 167.833 135.849C167.507 135.619 167.435 135.175 167.66 134.854C167.89 134.528 168.329 134.452 168.655 134.681C168.976 134.907 169.057 135.35 168.828 135.676ZM167.66 134.854C167.435 135.175 166.986 135.253 166.66 135.023C166.34 134.798 166.262 134.349 166.487 134.029C166.717 133.703 167.161 133.63 167.482 133.856C167.808 134.085 167.89 134.528 167.66 134.854ZM166.487 134.029C166.262 134.349 165.819 134.431 165.493 134.202C165.172 133.976 165.094 133.528 165.32 133.207C165.549 132.881 165.994 132.808 166.315 133.034C166.641 133.263 166.717 133.703 166.487 134.029ZM165.32 133.207C165.094 133.528 164.646 133.606 164.325 133.38C164.004 133.154 163.927 132.706 164.152 132.385C164.382 132.059 164.826 131.986 165.147 132.212C165.468 132.438 165.549 132.881 165.32 133.207ZM163.331 133.553C163.105 133.873 162.657 133.951 162.336 133.725C162.01 133.496 161.937 133.052 162.163 132.731C162.393 132.405 162.832 132.328 163.158 132.558C163.479 132.784 163.556 133.232 163.331 133.553ZM164.152 132.385C163.927 132.706 163.479 132.784 163.158 132.558C162.832 132.328 162.759 131.884 162.985 131.563C163.214 131.237 163.653 131.161 163.979 131.39C164.3 131.616 164.382 132.059 164.152 132.385ZM162.985 131.563C162.759 131.884 162.311 131.962 161.99 131.736C161.664 131.507 161.586 131.059 161.812 130.738C162.041 130.412 162.486 130.339 162.812 130.569C163.133 130.794 163.214 131.237 162.985 131.563ZM173.285 131.824C173.059 132.145 172.611 132.223 172.29 131.997C171.964 131.767 171.892 131.323 172.118 131.002C172.347 130.676 172.791 130.603 173.112 130.829C173.433 131.055 173.515 131.498 173.285 131.824ZM177.398 125.981C177.172 126.302 176.724 126.38 176.403 126.154C176.077 125.924 176.005 125.48 176.23 125.159C176.46 124.833 176.908 124.755 177.229 124.981C177.55 125.207 177.627 125.655 177.398 125.981ZM178.223 124.808C177.994 125.134 177.55 125.207 177.229 124.981C176.903 124.751 176.826 124.312 177.056 123.986C177.282 123.665 177.73 123.588 178.051 123.813C178.371 124.039 178.449 124.487 178.223 124.808ZM172.943 129.829C172.714 130.155 172.266 130.233 171.945 130.008C171.619 129.778 171.546 129.334 171.776 129.008C172.001 128.687 172.444 128.605 172.77 128.835C173.091 129.06 173.169 129.509 172.943 129.829ZM175.409 126.327C175.183 126.647 174.735 126.725 174.414 126.5C174.088 126.27 174.015 125.826 174.241 125.505C174.47 125.179 174.91 125.102 175.236 125.332C175.556 125.558 175.638 126.001 175.409 126.327ZM177.878 122.819C177.648 123.145 177.204 123.217 176.883 122.992C176.557 122.762 176.484 122.318 176.71 121.997C176.936 121.676 177.379 121.595 177.705 121.824C178.026 122.05 178.103 122.498 177.878 122.819ZM172.597 127.84C172.368 128.166 171.923 128.239 171.597 128.009C171.277 127.783 171.195 127.341 171.425 127.014C171.65 126.694 172.098 126.616 172.419 126.842C172.745 127.071 172.823 127.519 172.597 127.84ZM174.241 125.505C174.015 125.826 173.567 125.904 173.241 125.674C172.92 125.448 172.842 125 173.068 124.679C173.298 124.353 173.742 124.281 174.063 124.506C174.389 124.736 174.47 125.179 174.241 125.505ZM176.71 121.997C176.481 122.323 176.036 122.396 175.71 122.166C175.389 121.94 175.311 121.492 175.537 121.171C175.763 120.851 176.211 120.773 176.532 120.999C176.858 121.228 176.936 121.676 176.71 121.997ZM169.777 129.355C169.551 129.676 169.109 129.757 168.783 129.528C168.462 129.302 168.384 128.854 168.61 128.533C168.839 128.207 169.284 128.134 169.604 128.36C169.93 128.59 170.007 129.029 169.777 129.355ZM170.603 128.182C170.373 128.508 169.93 128.59 169.604 128.36C169.284 128.134 169.206 127.686 169.435 127.36C169.661 127.039 170.109 126.962 170.43 127.187C170.756 127.417 170.829 127.861 170.603 128.182ZM172.246 125.847C172.021 126.168 171.578 126.249 171.252 126.02C170.931 125.794 170.853 125.346 171.079 125.025C171.305 124.704 171.753 124.626 172.073 124.852C172.4 125.082 172.472 125.526 172.246 125.847ZM173.89 123.512C173.664 123.833 173.221 123.914 172.895 123.685C172.574 123.459 172.497 123.011 172.722 122.69C172.952 122.364 173.4 122.286 173.721 122.512C174.047 122.741 174.119 123.186 173.89 123.512ZM174.715 122.339C174.486 122.665 174.047 122.741 173.721 122.512C173.4 122.286 173.318 121.843 173.548 121.517C173.774 121.196 174.222 121.118 174.543 121.344C174.869 121.574 174.941 122.018 174.715 122.339ZM167.788 129.701C167.562 130.021 167.114 130.099 166.793 129.874C166.472 129.648 166.394 129.2 166.62 128.879C166.85 128.553 167.294 128.48 167.615 128.706C167.936 128.932 168.014 129.38 167.788 129.701ZM170.257 126.193C170.027 126.519 169.583 126.591 169.262 126.366C168.941 126.14 168.86 125.697 169.089 125.371C169.315 125.05 169.763 124.972 170.084 125.198C170.405 125.424 170.483 125.872 170.257 126.193ZM171.901 123.858C171.675 124.178 171.227 124.256 170.906 124.03C170.585 123.805 170.507 123.357 170.733 123.036C170.963 122.71 171.407 122.637 171.728 122.863C172.049 123.089 172.13 123.531 171.901 123.858ZM166.62 128.879C166.394 129.2 165.946 129.278 165.626 129.052C165.3 128.822 165.227 128.378 165.453 128.057C165.682 127.731 166.121 127.655 166.447 127.884C166.768 128.11 166.846 128.558 166.62 128.879ZM169.089 125.371C168.86 125.697 168.416 125.77 168.095 125.544C167.769 125.314 167.692 124.875 167.922 124.549C168.148 124.228 168.59 124.147 168.917 124.376C169.237 124.602 169.315 125.05 169.089 125.371ZM171.555 121.868C171.329 122.189 170.881 122.267 170.56 122.041C170.234 121.812 170.161 121.367 170.387 121.046C170.617 120.72 171.06 120.639 171.386 120.868C171.706 121.094 171.784 121.542 171.555 121.868ZM166.275 126.889C166.049 127.21 165.601 127.288 165.28 127.062C164.954 126.833 164.876 126.385 165.102 126.064C165.331 125.738 165.776 125.665 166.102 125.895C166.422 126.121 166.504 126.563 166.275 126.889ZM167.1 125.717C166.871 126.043 166.422 126.121 166.102 125.895C165.776 125.665 165.698 125.217 165.927 124.891C166.153 124.57 166.601 124.492 166.927 124.722C167.248 124.948 167.326 125.396 167.1 125.717ZM171.213 119.874C170.983 120.2 170.539 120.272 170.218 120.046C169.892 119.817 169.81 119.374 170.04 119.048C170.266 118.727 170.714 118.649 171.04 118.879C171.361 119.105 171.439 119.553 171.213 119.874Z" fill="black"/>
</svg>
