<svg width="114" height="226" viewBox="0 0 114 226" fill="none" xmlns="http://www.w3.org/2000/svg">
<path d="M66.6416 3.71777C74.2186 3.71777 80.3613 9.86056 80.3613 17.4375V41.25C80.3615 43.5341 81.6013 45.6378 83.5996 46.7441L94.8174 52.9551C97.0585 54.196 98.9079 56.0398 100.155 58.2773L107.983 72.3193C109.122 74.3617 109.72 76.6617 109.72 79L109.72 208.507C109.719 216.084 103.577 222.226 96 222.226H17.4395C9.86267 222.226 3.71999 216.084 3.71973 208.507L3.71973 79C3.71973 76.6617 4.31749 74.3617 5.45605 72.3193L13.2852 58.2773C14.5326 56.0397 16.3817 54.196 18.623 52.9551L29.8398 46.7441C31.8382 45.6378 33.079 43.5341 33.0791 41.25V17.4375C33.0791 9.8606 39.221 3.71785 46.7979 3.71777L66.6416 3.71777Z" fill="#B6CDC7" stroke="#B6CDC7" stroke-width="7.43855" stroke-linejoin="round"/>
<rect x="17.5797" y="61.9664" width="79.3317" height="123.446" fill="#B6CDC7"/>
<rect x="17.5797" y="61.9664" width="79.3317" height="123.446" stroke="#B6CDC7" stroke-width="1.05776"/>
<circle cx="56.9628" cy="66.6445" r="2.3593" fill="black"/>
<circle cx="51.4589" cy="66.6445" r="2.3593" fill="black"/>
<circle cx="51.4589" cy="72.1484" r="2.3593" fill="black"/>
<circle cx="51.4589" cy="77.6562" r="2.3593" fill="black"/>
<circle cx="56.9628" cy="77.6562" r="2.3593" fill="black"/>
<circle cx="46.2226" cy="80.8046" r="2.3593" fill="black"/>
<circle cx="43.3749" cy="86.3046" r="2.3593" fill="black"/>
<circle cx="43.3749" cy="92.5976" r="2.3593" fill="black"/>
<circle cx="43.3749" cy="98.1015" r="2.3593" fill="black"/>
<circle cx="43.3749" cy="103.609" r="2.3593" fill="black"/>
<circle cx="52.4529" cy="92.5466" r="1.0271" fill="black"/>
<circle cx="52.4529" cy="95.2849" r="1.0271" fill="black"/>
<circle cx="60.6697" cy="92.5466" r="1.0271" fill="black"/>
<circle cx="52.4529" cy="98.0271" r="1.0271" fill="black"/>
<circle cx="55.1912" cy="98.0271" r="1.0271" fill="black"/>
<circle cx="57.9314" cy="98.0271" r="1.0271" fill="black"/>
<circle cx="60.6697" cy="98.0271" r="1.0271" fill="black"/>
<circle cx="52.4529" cy="103.504" r="1.0271" fill="black"/>
<circle cx="52.4529" cy="100.765" r="1.0271" fill="black"/>
<circle cx="60.6697" cy="95.2849" r="1.0271" fill="black"/>
<circle cx="60.6697" cy="100.765" r="1.0271" fill="black"/>
<circle cx="60.6697" cy="103.504" r="1.0271" fill="black"/>
<circle cx="43.3749" cy="109.113" r="2.3593" fill="black"/>
<circle cx="43.3749" cy="114.723" r="2.3593" fill="black"/>
<circle cx="43.3749" cy="120.226" r="2.3593" fill="black"/>
<circle cx="43.3749" cy="125.73" r="2.3593" fill="black"/>
<circle cx="48.8827" cy="125.73" r="2.3593" fill="black"/>
<circle cx="54.3847" cy="125.73" r="2.3593" fill="black"/>
<circle cx="59.8905" cy="125.73" r="2.3593" fill="black"/>
<circle cx="65.6113" cy="125.73" r="2.3593" fill="black"/>
<circle cx="71.1191" cy="125.73" r="2.3593" fill="black"/>
<circle cx="62.4648" cy="66.6445" r="2.3593" fill="black"/>
<circle cx="62.4648" cy="72.1484" r="2.3593" fill="black"/>
<circle cx="62.4648" cy="77.6562" r="2.3593" fill="black"/>
<circle cx="67.9706" cy="80.8046" r="2.3593" fill="black"/>
<circle cx="71.1191" cy="86.3046" r="2.3593" fill="black"/>
<circle cx="71.1191" cy="92.5976" r="2.3593" fill="black"/>
<circle cx="71.1191" cy="98.1015" r="2.3593" fill="black"/>
<circle cx="71.1191" cy="103.609" r="2.3593" fill="black"/>
<circle cx="71.1191" cy="109.113" r="2.3593" fill="black"/>
<circle cx="71.1191" cy="114.723" r="2.3593" fill="black"/>
<circle cx="71.1191" cy="120.226" r="2.3593" fill="black"/>
<path d="M32.9956 141.446V147.114H40.2834V141.446H42.462V154.941H40.2834V149.177H32.9956V154.941H30.817V141.446H32.9956ZM46.1241 141.446H51.4839C53.5982 141.446 55.2948 142.063 56.5737 143.296C57.8526 144.53 58.492 146.163 58.492 148.193C58.492 150.224 57.8526 151.857 56.5737 153.091C55.2948 154.324 53.5982 154.941 51.4839 154.941H46.1241V141.446ZM51.4839 143.509H48.3027V152.878H51.4839C53.0198 152.878 54.1894 152.451 54.9928 151.596C55.8025 150.742 56.2074 149.607 56.2074 148.193C56.2074 146.767 55.8025 145.629 54.9928 144.781C54.1894 143.933 53.0198 143.509 51.4839 143.509ZM66.6656 149.639H63.6098V154.941H61.4312V141.446H66.6656C68.2016 141.446 69.3808 141.809 70.2034 142.535C71.0325 143.261 71.447 144.264 71.447 145.543C71.447 146.821 71.0325 147.824 70.2034 148.55C69.3808 149.276 68.2016 149.639 66.6656 149.639ZM66.6078 143.499H63.6098V147.586H66.6078C67.4882 147.586 68.1373 147.419 68.555 147.085C68.9728 146.751 69.1816 146.237 69.1816 145.543C69.1816 144.848 68.9728 144.334 68.555 144C68.1373 143.666 67.4882 143.499 66.6078 143.499ZM84.0388 152.898V154.941H74.1965V141.446H83.9135V143.489H76.3751V147.123H83.6532V149.167H76.3751V152.898H84.0388Z" fill="black"/>
<path d="M40.2925 182.941C39.8025 182.941 39.4008 182.54 39.4008 182.05C39.4008 181.552 39.8025 181.158 40.2925 181.158C40.7906 181.158 41.1842 181.56 41.1842 182.05C41.1842 182.54 40.7906 182.941 40.2925 182.941ZM42.0839 182.941C41.5859 182.941 41.1842 182.54 41.1842 182.05C41.1842 181.552 41.5859 181.158 42.0839 181.158C42.574 181.158 42.9756 181.56 42.9756 182.05C42.9756 182.54 42.574 182.941 42.0839 182.941ZM43.8673 182.941C43.3692 182.941 42.9756 182.54 42.9756 182.05C42.9756 181.552 43.3692 181.158 43.8673 181.158C44.3573 181.158 44.759 181.56 44.759 182.05C44.759 182.54 44.3573 182.941 43.8673 182.941ZM38.5091 181.158C38.0191 181.158 37.6175 180.756 37.6175 180.266C37.6175 179.768 38.0191 179.375 38.5091 179.375C39.0072 179.375 39.4008 179.768 39.4008 180.266C39.4008 180.756 38.9992 181.158 38.5091 181.158ZM45.6507 181.158C45.1607 181.158 44.759 180.756 44.759 180.266C44.759 179.768 45.1607 179.375 45.6507 179.375C46.1407 179.375 46.5424 179.768 46.5424 180.266C46.5424 180.756 46.1407 181.158 45.6507 181.158ZM45.6507 179.375C45.1607 179.375 44.759 178.973 44.759 178.475C44.759 177.985 45.1607 177.583 45.6507 177.583C46.1407 177.583 46.5424 177.985 46.5424 178.475C46.5424 178.973 46.1407 179.375 45.6507 179.375ZM42.0839 177.583C41.5859 177.583 41.1842 177.19 41.1842 176.692C41.1842 176.202 41.5859 175.8 42.0839 175.8C42.574 175.8 42.9756 176.202 42.9756 176.692C42.9756 177.19 42.574 177.583 42.0839 177.583ZM43.8673 177.583C43.3692 177.583 42.9756 177.19 42.9756 176.692C42.9756 176.202 43.3692 175.8 43.8673 175.8C44.3573 175.8 44.759 176.202 44.759 176.692C44.759 177.19 44.3573 177.583 43.8673 177.583ZM45.6507 175.8C45.1607 175.8 44.759 175.398 44.759 174.908C44.759 174.418 45.1607 174.016 45.6507 174.016C46.1407 174.016 46.5424 174.418 46.5424 174.908C46.5424 175.398 46.1407 175.8 45.6507 175.8ZM38.5091 174.016C38.0191 174.016 37.6175 173.615 37.6175 173.125C37.6175 172.627 38.0191 172.233 38.5091 172.233C39.0072 172.233 39.4008 172.627 39.4008 173.125C39.4008 173.615 38.9992 174.016 38.5091 174.016ZM45.6507 174.016C45.1607 174.016 44.759 173.615 44.759 173.125C44.759 172.627 45.1607 172.233 45.6507 172.233C46.1407 172.233 46.5424 172.627 46.5424 173.125C46.5424 173.615 46.1407 174.016 45.6507 174.016ZM40.2925 172.233C39.8025 172.233 39.4008 171.831 39.4008 171.341C39.4008 170.843 39.8025 170.442 40.2925 170.442C40.7906 170.442 41.1842 170.843 41.1842 171.341C41.1842 171.831 40.7906 172.233 40.2925 172.233ZM42.0839 172.233C41.5859 172.233 41.1842 171.831 41.1842 171.341C41.1842 170.843 41.5859 170.442 42.0839 170.442C42.574 170.442 42.9756 170.843 42.9756 171.341C42.9756 171.831 42.574 172.233 42.0839 172.233ZM43.8673 172.233C43.3692 172.233 42.9756 171.831 42.9756 171.341C42.9756 170.843 43.3692 170.442 43.8673 170.442C44.3573 170.442 44.759 170.843 44.759 171.341C44.759 171.831 44.3573 172.233 43.8673 172.233ZM50.993 182.941C50.503 182.941 50.1013 182.54 50.1013 182.05C50.1013 181.552 50.503 181.158 50.993 181.158C51.4911 181.158 51.8847 181.56 51.8847 182.05C51.8847 182.54 51.4911 182.941 50.993 182.941ZM52.7844 182.941C52.2864 182.941 51.8847 182.54 51.8847 182.05C51.8847 181.552 52.2864 181.158 52.7844 181.158C53.2745 181.158 53.6761 181.56 53.6761 182.05C53.6761 182.54 53.2745 182.941 52.7844 182.941ZM54.5678 182.941C54.0698 182.941 53.6761 182.54 53.6761 182.05C53.6761 181.552 54.0698 181.158 54.5678 181.158C55.0579 181.158 55.4595 181.56 55.4595 182.05C55.4595 182.54 55.0579 182.941 54.5678 182.941ZM49.2097 181.158C48.7196 181.158 48.318 180.756 48.318 180.266C48.318 179.768 48.7196 179.375 49.2097 179.375C49.7077 179.375 50.1013 179.768 50.1013 180.266C50.1013 180.756 49.6997 181.158 49.2097 181.158ZM56.3512 181.158C55.8612 181.158 55.4595 180.756 55.4595 180.266C55.4595 179.768 55.8612 179.375 56.3512 179.375C56.8412 179.375 57.2429 179.768 57.2429 180.266C57.2429 180.756 56.8412 181.158 56.3512 181.158ZM49.2097 179.375C48.7196 179.375 48.318 178.973 48.318 178.475C48.318 177.985 48.7196 177.583 49.2097 177.583C49.7077 177.583 50.1013 177.985 50.1013 178.475C50.1013 178.973 49.6997 179.375 49.2097 179.375ZM56.3512 179.375C55.8612 179.375 55.4595 178.973 55.4595 178.475C55.4595 177.985 55.8612 177.583 56.3512 177.583C56.8412 177.583 57.2429 177.985 57.2429 178.475C57.2429 178.973 56.8412 179.375 56.3512 179.375ZM49.2097 177.583C48.7196 177.583 48.318 177.19 48.318 176.692C48.318 176.202 48.7196 175.8 49.2097 175.8C49.7077 175.8 50.1013 176.202 50.1013 176.692C50.1013 177.19 49.6997 177.583 49.2097 177.583ZM56.3512 177.583C55.8612 177.583 55.4595 177.19 55.4595 176.692C55.4595 176.202 55.8612 175.8 56.3512 175.8C56.8412 175.8 57.2429 176.202 57.2429 176.692C57.2429 177.19 56.8412 177.583 56.3512 177.583ZM49.2097 175.8C48.7196 175.8 48.318 175.398 48.318 174.908C48.318 174.418 48.7196 174.016 49.2097 174.016C49.7077 174.016 50.1013 174.418 50.1013 174.908C50.1013 175.398 49.6997 175.8 49.2097 175.8ZM56.3512 175.8C55.8612 175.8 55.4595 175.398 55.4595 174.908C55.4595 174.418 55.8612 174.016 56.3512 174.016C56.8412 174.016 57.2429 174.418 57.2429 174.908C57.2429 175.398 56.8412 175.8 56.3512 175.8ZM49.2097 174.016C48.7196 174.016 48.318 173.615 48.318 173.125C48.318 172.627 48.7196 172.233 49.2097 172.233C49.7077 172.233 50.1013 172.627 50.1013 173.125C50.1013 173.615 49.6997 174.016 49.2097 174.016ZM56.3512 174.016C55.8612 174.016 55.4595 173.615 55.4595 173.125C55.4595 172.627 55.8612 172.233 56.3512 172.233C56.8412 172.233 57.2429 172.627 57.2429 173.125C57.2429 173.615 56.8412 174.016 56.3512 174.016ZM50.993 172.233C50.503 172.233 50.1013 171.831 50.1013 171.341C50.1013 170.843 50.503 170.442 50.993 170.442C51.4911 170.442 51.8847 170.843 51.8847 171.341C51.8847 171.831 51.4911 172.233 50.993 172.233ZM52.7844 172.233C52.2864 172.233 51.8847 171.831 51.8847 171.341C51.8847 170.843 52.2864 170.442 52.7844 170.442C53.2745 170.442 53.6761 170.843 53.6761 171.341C53.6761 171.831 53.2745 172.233 52.7844 172.233ZM54.5678 172.233C54.0698 172.233 53.6761 171.831 53.6761 171.341C53.6761 170.843 54.0698 170.442 54.5678 170.442C55.0579 170.442 55.4595 170.843 55.4595 171.341C55.4595 171.831 55.0579 172.233 54.5678 172.233ZM61.6936 182.941C61.2035 182.941 60.8019 182.54 60.8019 182.05C60.8019 181.552 61.2035 181.158 61.6936 181.158C62.1916 181.158 62.5852 181.56 62.5852 182.05C62.5852 182.54 62.1916 182.941 61.6936 182.941ZM70.6185 182.941C70.1284 182.941 69.7268 182.54 69.7268 182.05C69.7268 181.552 70.1284 181.158 70.6185 181.158C71.1165 181.158 71.5182 181.56 71.5182 182.05C71.5182 182.54 71.1165 182.941 70.6185 182.941ZM72.4099 182.941C71.9118 182.941 71.5182 182.54 71.5182 182.05C71.5182 181.552 71.9118 181.158 72.4099 181.158C72.8999 181.158 73.3016 181.56 73.3016 182.05C73.3016 182.54 72.8999 182.941 72.4099 182.941ZM63.485 181.158C62.9869 181.158 62.5852 180.756 62.5852 180.266C62.5852 179.768 62.9869 179.375 63.485 179.375C63.975 179.375 64.3767 179.768 64.3767 180.266C64.3767 180.756 63.975 181.158 63.485 181.158ZM68.8351 181.158C68.3451 181.158 67.9434 180.756 67.9434 180.266C67.9434 179.768 68.3451 179.375 68.8351 179.375C69.3332 179.375 69.7268 179.768 69.7268 180.266C69.7268 180.756 69.3332 181.158 68.8351 181.158ZM74.1933 181.158C73.6952 181.158 73.3016 180.756 73.3016 180.266C73.3016 179.768 73.7032 179.375 74.1933 179.375C74.6833 179.375 75.0849 179.768 75.0849 180.266C75.0849 180.756 74.6833 181.158 74.1933 181.158ZM65.2683 179.375C64.7703 179.375 64.3767 178.973 64.3767 178.475C64.3767 177.985 64.7703 177.583 65.2683 177.583C65.7584 177.583 66.16 177.985 66.16 178.475C66.16 178.973 65.7584 179.375 65.2683 179.375ZM68.8351 179.375C68.3451 179.375 67.9434 178.973 67.9434 178.475C67.9434 177.985 68.3451 177.583 68.8351 177.583C69.3332 177.583 69.7268 177.985 69.7268 178.475C69.7268 178.973 69.3332 179.375 68.8351 179.375ZM74.1933 179.375C73.6952 179.375 73.3016 178.973 73.3016 178.475C73.3016 177.985 73.7032 177.583 74.1933 177.583C74.6833 177.583 75.0849 177.985 75.0849 178.475C75.0849 178.973 74.6833 179.375 74.1933 179.375ZM61.6936 177.583C61.2035 177.583 60.8019 177.19 60.8019 176.692C60.8019 176.202 61.2035 175.8 61.6936 175.8C62.1916 175.8 62.5852 176.202 62.5852 176.692C62.5852 177.19 62.1916 177.583 61.6936 177.583ZM63.485 177.583C62.9869 177.583 62.5852 177.19 62.5852 176.692C62.5852 176.202 62.9869 175.8 63.485 175.8C63.975 175.8 64.3767 176.202 64.3767 176.692C64.3767 177.19 63.975 177.583 63.485 177.583ZM67.0517 177.583C66.5617 177.583 66.16 177.19 66.16 176.692C66.16 176.202 66.5617 175.8 67.0517 175.8C67.5417 175.8 67.9434 176.202 67.9434 176.692C67.9434 177.19 67.5417 177.583 67.0517 177.583ZM70.6185 177.583C70.1284 177.583 69.7268 177.19 69.7268 176.692C69.7268 176.202 70.1284 175.8 70.6185 175.8C71.1165 175.8 71.5182 176.202 71.5182 176.692C71.5182 177.19 71.1165 177.583 70.6185 177.583ZM72.4099 177.583C71.9118 177.583 71.5182 177.19 71.5182 176.692C71.5182 176.202 71.9118 175.8 72.4099 175.8C72.8999 175.8 73.3016 176.202 73.3016 176.692C73.3016 177.19 72.8999 177.583 72.4099 177.583ZM59.9102 175.8C59.4201 175.8 59.0185 175.398 59.0185 174.908C59.0185 174.418 59.4201 174.016 59.9102 174.016C60.4082 174.016 60.8019 174.418 60.8019 174.908C60.8019 175.398 60.4002 175.8 59.9102 175.8ZM65.2683 175.8C64.7703 175.8 64.3767 175.398 64.3767 174.908C64.3767 174.418 64.7703 174.016 65.2683 174.016C65.7584 174.016 66.16 174.418 66.16 174.908C66.16 175.398 65.7584 175.8 65.2683 175.8ZM68.8351 175.8C68.3451 175.8 67.9434 175.398 67.9434 174.908C67.9434 174.418 68.3451 174.016 68.8351 174.016C69.3332 174.016 69.7268 174.418 69.7268 174.908C69.7268 175.398 69.3332 175.8 68.8351 175.8ZM59.9102 174.016C59.4201 174.016 59.0185 173.615 59.0185 173.125C59.0185 172.627 59.4201 172.233 59.9102 172.233C60.4082 172.233 60.8019 172.627 60.8019 173.125C60.8019 173.615 60.4002 174.016 59.9102 174.016ZM65.2683 174.016C64.7703 174.016 64.3767 173.615 64.3767 173.125C64.3767 172.627 64.7703 172.233 65.2683 172.233C65.7584 172.233 66.16 172.627 66.16 173.125C66.16 173.615 65.7584 174.016 65.2683 174.016ZM70.6185 174.016C70.1284 174.016 69.7268 173.615 69.7268 173.125C69.7268 172.627 70.1284 172.233 70.6185 172.233C71.1165 172.233 71.5182 172.627 71.5182 173.125C71.5182 173.615 71.1165 174.016 70.6185 174.016ZM61.6936 172.233C61.2035 172.233 60.8019 171.831 60.8019 171.341C60.8019 170.843 61.2035 170.442 61.6936 170.442C62.1916 170.442 62.5852 170.843 62.5852 171.341C62.5852 171.831 62.1916 172.233 61.6936 172.233ZM63.485 172.233C62.9869 172.233 62.5852 171.831 62.5852 171.341C62.5852 170.843 62.9869 170.442 63.485 170.442C63.975 170.442 64.3767 170.843 64.3767 171.341C64.3767 171.831 63.975 172.233 63.485 172.233ZM72.4099 172.233C71.9118 172.233 71.5182 171.831 71.5182 171.341C71.5182 170.843 71.9118 170.442 72.4099 170.442C72.8999 170.442 73.3016 170.843 73.3016 171.341C73.3016 171.831 72.8999 172.233 72.4099 172.233Z" fill="black"/>
</svg>
