<svg width="237" height="192" viewBox="0 0 237 192" fill="none" xmlns="http://www.w3.org/2000/svg">
<path d="M220.863 50.2372C224.482 56.8942 222.019 65.2249 215.362 68.8436L194.441 80.2164C192.434 81.3074 191.178 83.4014 191.16 85.6854L191.061 98.5075C191.041 101.069 190.304 103.575 188.934 105.739L180.336 119.323C179.085 121.299 177.35 122.923 175.296 124.039L61.5139 185.892C54.857 189.51 46.527 187.046 42.9084 180.39L5.38806 111.368C1.7694 104.711 4.23194 96.381 10.8886 92.7622L124.67 30.91C126.725 29.7932 129.031 29.22 131.369 29.2448L147.445 29.4169C150.007 29.4442 152.51 30.1882 154.671 31.5648L165.485 38.4533C167.411 39.6806 169.852 39.766 171.859 38.6752L192.78 27.3024C199.437 23.6837 207.767 26.1461 211.386 32.8029L220.863 50.2372Z" fill="#B6CDC7" stroke="#B6CDC7" stroke-width="7.43855" stroke-linejoin="round"/>
<rect x="146.257" y="34.9516" width="79.3317" height="123.445" transform="rotate(61.4714 146.257 34.9516)" fill="#B6CDC7"/>
<rect x="146.257" y="34.9516" width="79.3317" height="123.445" transform="rotate(61.4714 146.257 34.9516)" stroke="#B6CDC7" stroke-width="1.05776"/>
<circle cx="160.954" cy="71.7856" r="2.3593" transform="rotate(61.4714 160.954 71.7856)" fill="black"/>
<circle cx="158.325" cy="66.9535" r="2.3593" transform="rotate(61.4714 158.325 66.9535)" fill="black"/>
<circle cx="153.49" cy="69.5824" r="2.3593" transform="rotate(61.4714 153.49 69.5824)" fill="black"/>
<circle cx="148.654" cy="72.2113" r="2.3593" transform="rotate(61.4714 148.654 72.2113)" fill="black"/>
<circle cx="151.282" cy="77.0473" r="2.3593" transform="rotate(61.4714 151.282 77.0473)" fill="black"/>
<circle cx="143.386" cy="69.1137" r="2.3593" transform="rotate(61.4714 143.386 69.1137)" fill="black"/>
<circle cx="137.193" cy="69.2387" r="2.3593" transform="rotate(61.4714 137.193 69.2387)" fill="black"/>
<circle cx="131.665" cy="72.2426" r="2.3593" transform="rotate(61.4714 131.665 72.2426)" fill="black"/>
<circle cx="126.827" cy="74.8754" r="2.3593" transform="rotate(61.4714 126.827 74.8754)" fill="black"/>
<circle cx="121.99" cy="77.5043" r="2.3593" transform="rotate(61.4714 121.99 77.5043)" fill="black"/>
<circle cx="136.043" cy="80.1976" r="1.0271" transform="rotate(61.4714 136.043 80.1976)" fill="black"/>
<circle cx="133.637" cy="81.5062" r="1.0271" transform="rotate(61.4714 133.637 81.5062)" fill="black"/>
<circle cx="139.967" cy="87.4164" r="1.0271" transform="rotate(61.4714 139.967 87.4164)" fill="black"/>
<circle cx="131.231" cy="82.8148" r="1.0271" transform="rotate(61.4714 131.231 82.8148)" fill="black"/>
<circle cx="132.537" cy="85.2211" r="1.0271" transform="rotate(61.4714 132.537 85.2211)" fill="black"/>
<circle cx="133.846" cy="87.6273" r="1.0271" transform="rotate(61.4714 133.846 87.6273)" fill="black"/>
<circle cx="135.155" cy="90.0336" r="1.0271" transform="rotate(61.4714 135.155 90.0336)" fill="black"/>
<circle cx="126.416" cy="85.432" r="1.0271" transform="rotate(61.4714 126.416 85.432)" fill="black"/>
<circle cx="128.823" cy="84.1234" r="1.0271" transform="rotate(61.4714 128.823 84.1234)" fill="black"/>
<circle cx="137.561" cy="88.725" r="1.0271" transform="rotate(61.4714 137.561 88.725)" fill="black"/>
<circle cx="132.748" cy="91.3421" r="1.0271" transform="rotate(61.4714 132.748 91.3421)" fill="black"/>
<circle cx="130.342" cy="92.6468" r="1.0271" transform="rotate(61.4714 130.342 92.6468)" fill="black"/>
<circle cx="117.154" cy="80.1332" r="2.3593" transform="rotate(61.4714 117.154 80.1332)" fill="black"/>
<circle cx="112.226" cy="82.809" r="2.3593" transform="rotate(61.4714 112.226 82.809)" fill="black"/>
<circle cx="107.39" cy="85.4379" r="2.3593" transform="rotate(61.4714 107.39 85.4379)" fill="black"/>
<circle cx="102.554" cy="88.0668" r="2.3593" transform="rotate(61.4714 102.554 88.0668)" fill="black"/>
<circle cx="105.185" cy="92.9067" r="2.3593" transform="rotate(61.4714 105.185 92.9067)" fill="black"/>
<circle cx="107.812" cy="97.7426" r="2.3593" transform="rotate(61.4714 107.812 97.7426)" fill="black"/>
<circle cx="110.441" cy="102.579" r="2.3593" transform="rotate(61.4714 110.441 102.579)" fill="black"/>
<circle cx="113.173" cy="107.606" r="2.3593" transform="rotate(61.4714 113.173 107.606)" fill="black"/>
<circle cx="115.804" cy="112.442" r="2.3593" transform="rotate(61.4714 115.804 112.442)" fill="black"/>
<circle cx="163.583" cy="76.6215" r="2.3593" transform="rotate(61.4714 163.583 76.6215)" fill="black"/>
<circle cx="158.745" cy="79.2504" r="2.3593" transform="rotate(61.4714 158.745 79.2504)" fill="black"/>
<circle cx="153.909" cy="81.8793" r="2.3593" transform="rotate(61.4714 153.909 81.8793)" fill="black"/>
<circle cx="153.773" cy="88.2192" r="2.3593" transform="rotate(61.4714 153.773 88.2192)" fill="black"/>
<circle cx="150.443" cy="93.6137" r="2.3593" transform="rotate(61.4714 150.443 93.6137)" fill="black"/>
<circle cx="144.915" cy="96.6176" r="2.3593" transform="rotate(61.4714 144.915 96.6176)" fill="black"/>
<circle cx="140.077" cy="99.2504" r="2.3593" transform="rotate(61.4714 140.077 99.2504)" fill="black"/>
<circle cx="135.241" cy="101.879" r="2.3593" transform="rotate(61.4714 135.241 101.879)" fill="black"/>
<circle cx="130.406" cy="104.508" r="2.3593" transform="rotate(61.4714 130.406 104.508)" fill="black"/>
<circle cx="125.476" cy="107.184" r="2.3593" transform="rotate(61.4714 125.476 107.184)" fill="black"/>
<circle cx="120.64" cy="109.813" r="2.3593" transform="rotate(61.4714 120.64 109.813)" fill="black"/>
<path d="M83.7914 86.4522L78.8114 89.1593L82.292 95.5622L87.272 92.855L88.3125 94.7691L76.4553 101.215L75.4148 99.3006L80.4795 96.5474L76.9989 90.1446L71.9342 92.8977L70.8937 90.9837L82.7509 84.5381L83.7914 86.4522ZM90.0615 97.9866L92.6213 102.696C93.6311 104.553 93.8994 106.338 93.4261 108.051C92.9528 109.764 91.8241 111.106 90.0398 112.076C88.2556 113.045 86.5161 113.263 84.8212 112.729C83.1263 112.195 81.774 110.999 80.7642 109.141L78.2043 104.432L90.0615 97.9866ZM90.8089 103.681L89.2895 100.886L81.0573 105.361L82.5766 108.156C83.3102 109.505 84.2443 110.329 85.3789 110.626C86.5166 110.93 87.7065 110.744 88.9487 110.068C90.2022 109.387 91.0082 108.488 91.3668 107.371C91.7284 106.26 91.5424 105.03 90.8089 103.681ZM92.6731 119.947L91.2136 117.262L86.5555 119.795L85.515 117.881L97.3721 111.435L99.8721 116.034C100.606 117.383 100.85 118.593 100.605 119.662C100.363 120.738 99.6798 121.581 98.5562 122.191C97.4326 122.802 96.3538 122.917 95.3198 122.535C94.2889 122.159 93.4067 121.297 92.6731 119.947ZM98.0405 116.964L96.6086 114.33L93.0176 116.282L94.4495 118.916C94.87 119.689 95.3268 120.18 95.8199 120.387C96.313 120.595 96.8644 120.533 97.4742 120.201C98.084 119.87 98.436 119.441 98.5301 118.914C98.6242 118.387 98.461 117.737 98.0405 116.964ZM98.1078 136.767L96.3123 137.743L91.6117 129.096L103.469 122.65L108.11 131.187L106.314 132.164L102.714 125.54L99.5208 127.276L102.997 133.671L101.201 134.647L97.7253 128.252L94.4477 130.034L98.1078 136.767Z" fill="black"/>
<path d="M50.819 112.684C50.585 112.254 50.746 111.709 51.1765 111.475C51.6141 111.237 52.1518 111.402 52.3858 111.833C52.6237 112.27 52.4588 112.808 52.0283 113.042C51.5977 113.276 51.0569 113.122 50.819 112.684ZM51.6746 114.258C51.4367 113.821 51.5977 113.276 52.0283 113.042C52.4659 112.804 53.0035 112.969 53.2414 113.407C53.4754 113.837 53.3144 114.382 52.8838 114.616C52.4533 114.85 51.9086 114.689 51.6746 114.258ZM52.5263 115.825C52.2884 115.388 52.4533 114.85 52.8838 114.616C53.3214 114.378 53.8553 114.536 54.0931 114.973C54.3272 115.404 54.1661 115.949 53.7356 116.183C53.3051 116.417 52.7603 116.256 52.5263 115.825ZM51.5341 110.266C51.3001 109.835 51.4611 109.291 51.8916 109.057C52.3292 108.819 52.8669 108.984 53.1009 109.414C53.3388 109.852 53.181 110.386 52.7434 110.623C52.3128 110.857 51.7681 110.696 51.5341 110.266ZM54.9449 116.54C54.7108 116.11 54.8719 115.565 55.3024 115.331C55.74 115.093 56.2777 115.258 56.5117 115.689C56.7457 116.119 56.5917 116.66 56.1542 116.898C55.7236 117.132 55.1789 116.971 54.9449 116.54ZM56.5117 115.689C56.2777 115.258 56.4387 114.713 56.8763 114.475C57.3068 114.241 57.8516 114.402 58.0856 114.833C58.3196 115.263 58.1586 115.808 57.7281 116.042C57.2905 116.28 56.7457 116.119 56.5117 115.689ZM56.3821 111.699C56.1443 111.262 56.2983 110.721 56.7358 110.483C57.1664 110.249 57.7111 110.41 57.949 110.848C58.183 111.278 58.0219 111.823 57.5914 112.057C57.1538 112.295 56.6162 112.13 56.3821 111.699ZM57.2339 113.266C56.996 112.829 57.1538 112.295 57.5914 112.057C58.0219 111.823 58.5628 111.977 58.8007 112.414C59.0347 112.845 58.8737 113.39 58.4432 113.624C58.0056 113.862 57.4679 113.697 57.2339 113.266ZM59.6524 113.981C59.4184 113.551 59.5795 113.006 60.01 112.772C60.4405 112.538 60.9852 112.699 61.2193 113.129C61.4533 113.56 61.2923 114.105 60.8617 114.339C60.4312 114.573 59.8865 114.412 59.6524 113.981ZM57.8085 106.855C57.5745 106.425 57.7355 105.88 58.166 105.646C58.6036 105.408 59.1413 105.573 59.3753 106.003C59.6132 106.441 59.4554 106.975 59.0178 107.213C58.5873 107.447 58.0425 107.286 57.8085 106.855ZM61.2193 113.129C60.9852 112.699 61.1463 112.154 61.5768 111.92C62.0144 111.682 62.5521 111.847 62.7861 112.278C63.0202 112.708 62.8662 113.249 62.4286 113.487C61.998 113.721 61.4533 113.56 61.2193 113.129ZM60.2271 107.57C59.993 107.14 60.1541 106.595 60.5846 106.361C61.0222 106.123 61.5669 106.284 61.801 106.715C62.0388 107.152 61.8739 107.69 61.4364 107.928C61.0058 108.162 60.4649 108.008 60.2271 107.57ZM61.0826 109.144C60.8448 108.706 61.0058 108.162 61.4364 107.928C61.8739 107.69 62.4187 107.851 62.6565 108.288C62.8906 108.719 62.7295 109.264 62.2919 109.502C61.8614 109.736 61.3167 109.575 61.0826 109.144ZM61.9344 110.711C61.6965 110.273 61.8614 109.736 62.2919 109.502C62.7295 109.264 63.2704 109.418 63.5083 109.855C63.7423 110.286 63.5813 110.831 63.1437 111.068C62.7131 111.302 62.1684 111.141 61.9344 110.711ZM55.9295 122.086C55.6955 121.655 55.8566 121.11 56.2871 120.876C56.7247 120.639 57.2623 120.803 57.4964 121.234C57.7342 121.672 57.5693 122.209 57.1388 122.443C56.7083 122.677 56.1674 122.523 55.9295 122.086ZM56.7851 123.66C56.5472 123.222 56.7083 122.677 57.1388 122.443C57.5764 122.205 58.1141 122.37 58.3519 122.808C58.586 123.238 58.4249 123.783 57.9944 124.017C57.5639 124.251 57.0191 124.09 56.7851 123.66ZM57.6368 125.226C57.399 124.789 57.5639 124.251 57.9944 124.017C58.432 123.779 58.9658 123.937 59.2037 124.375C59.4377 124.805 59.2767 125.35 58.8461 125.584C58.4156 125.818 57.8709 125.657 57.6368 125.226ZM56.6446 119.667C56.4106 119.237 56.5717 118.692 57.0022 118.458C57.4398 118.22 57.9774 118.385 58.2115 118.815C58.4493 119.253 58.2915 119.787 57.8539 120.025C57.4234 120.259 56.8787 120.098 56.6446 119.667ZM60.0554 125.942C59.8214 125.511 59.9824 124.966 60.413 124.732C60.8505 124.494 61.3882 124.659 61.6223 125.09C61.8563 125.52 61.7023 126.061 61.2647 126.299C60.8342 126.533 60.2894 126.372 60.0554 125.942ZM58.2115 118.815C57.9774 118.385 58.1385 117.84 58.5761 117.602C59.0066 117.368 59.5513 117.529 59.7854 117.96C60.0232 118.397 59.8583 118.935 59.4278 119.169C58.9902 119.407 58.4455 119.246 58.2115 118.815ZM61.6223 125.09C61.3882 124.659 61.5493 124.115 61.9869 123.877C62.4174 123.643 62.9621 123.804 63.1961 124.234C63.4302 124.665 63.2691 125.209 62.8386 125.443C62.401 125.681 61.8563 125.52 61.6223 125.09ZM59.7854 117.96C59.5513 117.529 59.7053 116.988 60.1429 116.75C60.5734 116.516 61.1182 116.678 61.3522 117.108C61.5901 117.546 61.4252 118.083 60.9946 118.317C60.5571 118.555 60.0194 118.39 59.7854 117.96ZM63.1961 124.234C62.9621 123.804 63.1161 123.263 63.5537 123.025C63.9842 122.791 64.5289 122.952 64.763 123.382C64.997 123.813 64.836 124.358 64.4054 124.592C63.9678 124.83 63.4302 124.665 63.1961 124.234ZM61.3522 117.108C61.1182 116.678 61.2792 116.133 61.7097 115.899C62.1403 115.665 62.685 115.826 62.919 116.256C63.1569 116.694 62.992 117.232 62.5615 117.466C62.131 117.7 61.5862 117.539 61.3522 117.108ZM64.763 123.382C64.5289 122.952 64.69 122.407 65.1205 122.173C65.5511 121.939 66.0958 122.1 66.3298 122.531C66.5639 122.961 66.4028 123.506 65.9723 123.74C65.5417 123.974 64.997 123.813 64.763 123.382ZM62.919 116.256C62.685 115.826 62.8461 115.281 63.2766 115.047C63.7142 114.809 64.2518 114.974 64.4859 115.405C64.7237 115.842 64.5659 116.376 64.1283 116.614C63.6978 116.848 63.1531 116.687 62.919 116.256ZM66.3298 122.531C66.0958 122.1 66.2568 121.555 66.6874 121.321C67.125 121.084 67.6626 121.248 67.8967 121.679C68.1307 122.11 67.9767 122.65 67.5391 122.888C67.1086 123.122 66.5639 122.961 66.3298 122.531ZM65.3376 116.971C65.1036 116.541 65.2646 115.996 65.6952 115.762C66.1327 115.524 66.6775 115.685 66.9115 116.116C67.1494 116.553 66.9845 117.091 66.5469 117.329C66.1164 117.563 65.5755 117.409 65.3376 116.971ZM66.1932 118.545C65.9553 118.108 66.1164 117.563 66.5469 117.329C66.9845 117.091 67.5292 117.252 67.7671 117.69C68.0011 118.12 67.8401 118.665 67.4025 118.903C66.9719 119.137 66.4272 118.976 66.1932 118.545ZM67.0449 120.112C66.807 119.675 66.9719 119.137 67.4025 118.903C67.8401 118.665 68.3809 118.819 68.6188 119.257C68.8529 119.687 68.6918 120.232 68.2542 120.47C67.8237 120.704 67.279 120.543 67.0449 120.112ZM61.0401 131.487C60.806 131.056 60.9671 130.512 61.3976 130.278C61.8352 130.04 62.3729 130.205 62.6069 130.635C62.8448 131.073 62.6799 131.61 62.2494 131.844C61.8188 132.078 61.2779 131.924 61.0401 131.487ZM65.3026 139.328C65.0686 138.898 65.2296 138.353 65.6601 138.119C66.0977 137.881 66.6354 138.046 66.8694 138.476C67.1073 138.914 66.9462 139.459 66.5157 139.693C66.0852 139.927 65.5405 139.766 65.3026 139.328ZM66.1582 140.902C65.9203 140.464 66.0852 139.927 66.5157 139.693C66.9533 139.455 67.4871 139.613 67.725 140.05C67.959 140.481 67.798 141.026 67.3675 141.26C66.9369 141.494 66.3922 141.333 66.1582 140.902ZM63.4625 132.209C63.2246 131.771 63.3857 131.227 63.8162 130.993C64.2538 130.755 64.7914 130.92 65.0293 131.357C65.2634 131.788 65.1094 132.329 64.6718 132.567C64.2412 132.801 63.6965 132.64 63.4625 132.209ZM66.0177 136.91C65.7837 136.479 65.9447 135.934 66.3752 135.7C66.8128 135.462 67.3505 135.627 67.5845 136.058C67.8224 136.495 67.6646 137.029 67.227 137.267C66.7965 137.501 66.2556 137.347 66.0177 136.91ZM68.5767 141.617C68.3389 141.18 68.5038 140.642 68.9343 140.408C69.3719 140.17 69.9095 140.335 70.1436 140.765C70.3776 141.196 70.2236 141.737 69.786 141.975C69.3555 142.209 68.8108 142.048 68.5767 141.617ZM65.8811 132.924C65.6432 132.487 65.8081 131.949 66.2457 131.711C66.6762 131.477 67.2171 131.631 67.455 132.069C67.689 132.499 67.5279 133.044 67.0974 133.278C66.6598 133.516 66.1151 133.355 65.8811 132.924ZM67.5845 136.058C67.3505 135.627 67.5116 135.083 67.9491 134.845C68.3797 134.611 68.9244 134.772 69.1584 135.202C69.3963 135.64 69.2314 136.178 68.8009 136.412C68.3633 136.649 67.8224 136.495 67.5845 136.058ZM70.1436 140.765C69.9057 140.328 70.0706 139.79 70.5082 139.552C70.9387 139.318 71.4834 139.479 71.7175 139.91C71.9515 140.34 71.7904 140.885 71.3599 141.119C70.9223 141.357 70.3776 141.196 70.1436 140.765ZM65.7476 128.928C65.5136 128.497 65.6676 127.956 66.1052 127.719C66.5357 127.485 67.0804 127.646 67.3145 128.076C67.5524 128.514 67.3875 129.051 66.9569 129.285C66.5193 129.523 65.9855 129.365 65.7476 128.928ZM66.6032 130.502C66.3653 130.064 66.5193 129.523 66.9569 129.285C67.3875 129.051 67.9322 129.212 68.1701 129.65C68.4041 130.081 68.243 130.625 67.8125 130.859C67.3749 131.097 66.8372 130.932 66.6032 130.502ZM68.3067 133.635C68.0727 133.205 68.2267 132.664 68.6642 132.426C69.0948 132.192 69.6395 132.353 69.8735 132.784C70.1076 133.214 69.9465 133.759 69.516 133.993C69.0784 134.231 68.5407 134.066 68.3067 133.635ZM70.0102 136.769C69.7761 136.339 69.9301 135.798 70.3677 135.56C70.7982 135.326 71.343 135.487 71.577 135.917C71.8149 136.355 71.6538 136.9 71.2233 137.134C70.7857 137.372 70.248 137.207 70.0102 136.769ZM70.8657 138.343C70.6279 137.905 70.7857 137.372 71.2233 137.134C71.6538 136.9 72.1947 137.054 72.4326 137.491C72.6666 137.922 72.5055 138.467 72.075 138.701C71.6374 138.938 71.0998 138.774 70.8657 138.343ZM66.4627 126.509C66.2287 126.079 66.3898 125.534 66.8203 125.3C67.2508 125.066 67.7955 125.227 68.0296 125.658C68.2675 126.095 68.1026 126.633 67.672 126.867C67.2415 127.101 66.6968 126.94 66.4627 126.509ZM69.0218 131.217C68.7839 130.779 68.9488 130.242 69.3793 130.008C69.8099 129.774 70.3508 129.928 70.5886 130.365C70.8227 130.796 70.6616 131.34 70.2311 131.574C69.8005 131.808 69.2558 131.647 69.0218 131.217ZM70.7253 134.351C70.4912 133.92 70.6523 133.375 71.0828 133.141C71.5133 132.907 72.0581 133.068 72.2921 133.499C72.53 133.936 72.3651 134.474 71.9345 134.708C71.504 134.942 70.9631 134.788 70.7253 134.351ZM68.0296 125.658C67.7955 125.227 67.9566 124.682 68.3871 124.448C68.8247 124.21 69.3624 124.375 69.5964 124.806C69.8343 125.243 69.6765 125.777 69.2389 126.015C68.8083 126.249 68.2636 126.088 68.0296 125.658ZM70.5886 130.365C70.3508 129.928 70.5156 129.39 70.9462 129.156C71.3838 128.918 71.9176 129.076 72.1555 129.513C72.3895 129.944 72.2355 130.485 71.7979 130.723C71.3674 130.957 70.8227 130.796 70.5886 130.365ZM73.1438 135.066C72.9098 134.635 73.0709 134.09 73.5014 133.856C73.939 133.618 74.4766 133.783 74.7107 134.214C74.9485 134.651 74.7945 135.192 74.357 135.43C73.9264 135.664 73.3817 135.503 73.1438 135.066ZM70.4482 126.373C70.2141 125.942 70.3752 125.397 70.8057 125.163C71.2433 124.925 71.788 125.087 72.022 125.517C72.2599 125.955 72.095 126.492 71.6574 126.73C71.2269 126.964 70.686 126.81 70.4482 126.373ZM71.3037 127.947C71.0659 127.509 71.2269 126.964 71.6574 126.73C72.095 126.492 72.6397 126.653 72.8776 127.091C73.1117 127.522 72.9506 128.066 72.513 128.304C72.0825 128.538 71.5378 128.377 71.3037 127.947ZM75.5662 135.788C75.3284 135.35 75.4933 134.813 75.9238 134.579C76.3614 134.341 76.9023 134.495 77.1401 134.932C77.3742 135.363 77.2131 135.907 76.7755 136.145C76.345 136.379 75.8003 136.218 75.5662 135.788Z" fill="black"/>
</svg>
