<svg width="115" height="150" viewBox="0 0 115 150" fill="none" xmlns="http://www.w3.org/2000/svg">
<path d="M49.2842 20.8135C54.7077 19.7288 60.2923 19.7288 65.7158 20.8135L66.5 20.9707C69.8263 21.636 73.0426 22.761 76.0566 24.3125L76.6572 24.6279L78.0137 25.3584C83.3643 28.2395 87.7619 32.6143 90.6719 37.9492C93.1835 42.5539 94.5 47.7149 94.5 52.96V95.7852C94.5 100.719 93.351 105.585 91.1445 109.998C88.0693 116.149 83.0821 121.136 76.9316 124.211L74.2588 125.548C71.7477 126.803 69.1066 127.78 66.3828 128.461C60.8554 129.843 55.0898 129.981 49.5029 128.863L49.1963 128.802C44.8118 127.925 40.6177 126.276 36.8096 123.933L35.8643 123.351H35.8633C31.1931 120.477 27.3041 116.495 24.541 111.758C21.5673 106.66 20.0001 100.864 20 94.9619V53.2744C20 47.6323 21.4979 42.0913 24.3408 37.2178L24.6543 36.6924C27.9431 31.2951 32.7657 26.9933 38.5127 24.3408L39.8467 23.7246L40.3359 23.5039C42.7901 22.4147 45.3573 21.5991 47.9912 21.0723L49.2842 20.8135Z" fill="#C4C4C4" stroke="#C4C4C4" stroke-width="40"/>
<ellipse cx="49.1159" cy="30.8933" rx="1.57292" ry="1.57295" fill="black"/>
<ellipse cx="52.8913" cy="29.0026" rx="1.57292" ry="1.57295" fill="black"/>
<ellipse cx="57.2936" cy="28.3737" rx="1.57292" ry="1.57295" fill="black"/>
<ellipse cx="61.6979" cy="29.0026" rx="1.57292" ry="1.57295" fill="black"/>
<ellipse cx="47.4362" cy="34.2487" rx="1.57292" ry="1.57295" fill="black"/>
<ellipse cx="47.4362" cy="38.2292" rx="1.57292" ry="1.57295" fill="black"/>
<ellipse cx="47.4362" cy="42.2136" rx="1.57292" ry="1.57295" fill="black"/>
<ellipse cx="47.4362" cy="46.198" rx="1.57292" ry="1.57295" fill="black"/>
<ellipse cx="47.4362" cy="50.1862" rx="1.57292" ry="1.57295" fill="black"/>
<ellipse cx="47.4362" cy="54.1706" rx="1.57292" ry="1.57295" fill="black"/>
<ellipse cx="47.4362" cy="58.155" rx="1.57292" ry="1.57295" fill="black"/>
<ellipse cx="47.4362" cy="62.1394" rx="1.57292" ry="1.57295" fill="black"/>
<ellipse cx="49.3249" cy="66.1237" rx="1.57292" ry="1.57295" fill="black"/>
<ellipse cx="53.3092" cy="68.2214" rx="1.57292" ry="1.57295" fill="black"/>
<ellipse cx="57.2936" cy="68.8503" rx="1.57292" ry="1.57295" fill="black"/>
<ellipse cx="61.28" cy="68.2214" rx="1.57292" ry="1.57295" fill="black"/>
<ellipse cx="65.2643" cy="66.1237" rx="1.57292" ry="1.57295" fill="black"/>
<ellipse cx="50.7936" cy="36.9714" rx="1.57292" ry="1.57295" fill="black"/>
<ellipse cx="55.1979" cy="38.2292" rx="1.57292" ry="1.57295" fill="black"/>
<path d="M61.1742 38.2292C61.1742 39.0979 60.47 39.8022 59.6013 39.8022C58.7326 39.8022 58.0284 39.0979 58.0284 38.2292C58.0284 37.3605 58.7326 36.6562 59.6013 36.6562C60.47 36.6562 61.1742 37.3605 61.1742 38.2292Z" fill="black"/>
<path d="M58.553 42.7699C58.553 43.6386 57.8488 44.3429 56.9801 44.3429C56.1114 44.3429 55.4072 43.6386 55.4072 42.7699C55.4072 41.9012 56.1114 41.197 56.9801 41.197C57.8488 41.197 58.553 41.9012 58.553 42.7699Z" fill="black"/>
<path d="M61.0697 47.129C61.0697 47.9977 60.3655 48.702 59.4968 48.702C58.6281 48.702 57.9238 47.9977 57.9238 47.129C57.9238 46.2603 58.6281 45.5561 59.4968 45.5561C60.3655 45.5561 61.0697 46.2603 61.0697 47.129Z" fill="black"/>
<path d="M58.3978 51.3371C58.3978 52.2058 57.6936 52.9101 56.8249 52.9101C55.9562 52.9101 55.252 52.2058 55.252 51.3371C55.252 50.4684 55.9562 49.7642 56.8249 49.7642C57.6936 49.7642 58.3978 50.4684 58.3978 51.3371Z" fill="black"/>
<path d="M60.9644 55.7828C60.9644 56.6515 60.2602 57.3557 59.3915 57.3557C58.5228 57.3557 57.8186 56.6515 57.8186 55.7828C57.8186 54.9141 58.5228 54.2098 59.3915 54.2098C60.2602 54.2098 60.9644 54.9141 60.9644 55.7828Z" fill="black"/>
<path d="M58.4456 60.1456C58.4456 61.0144 57.7414 61.7186 56.8727 61.7186C56.004 61.7186 55.2997 61.0144 55.2997 60.1456C55.2997 59.2769 56.004 58.5727 56.8727 58.5727C57.7414 58.5727 58.4456 59.2769 58.4456 60.1456Z" fill="black"/>
<path d="M61.1094 64.7596C61.1094 65.6284 60.4052 66.3326 59.5365 66.3326C58.6678 66.3326 57.9636 65.6284 57.9636 64.7596C57.9636 63.8909 58.6678 63.1867 59.5365 63.1867C60.4052 63.1867 61.1094 63.8909 61.1094 64.7596Z" fill="black"/>
<ellipse cx="64.0065" cy="37.1823" rx="1.57292" ry="1.57295" fill="black"/>
<ellipse cx="67.151" cy="34.2487" rx="1.57292" ry="1.57295" fill="black"/>
<ellipse cx="67.151" cy="38.2292" rx="1.57292" ry="1.57295" fill="black"/>
<ellipse cx="67.151" cy="42.2136" rx="1.57292" ry="1.57295" fill="black"/>
<ellipse cx="67.151" cy="46.198" rx="1.57292" ry="1.57295" fill="black"/>
<ellipse cx="67.151" cy="50.1862" rx="1.57292" ry="1.57295" fill="black"/>
<ellipse cx="67.151" cy="54.1706" rx="1.57292" ry="1.57295" fill="black"/>
<ellipse cx="67.151" cy="58.155" rx="1.57292" ry="1.57295" fill="black"/>
<ellipse cx="67.151" cy="62.1394" rx="1.57292" ry="1.57295" fill="black"/>
<ellipse cx="65.4733" cy="30.8933" rx="1.57292" ry="1.57295" fill="black"/>
<path d="M47.6929 81.7129V93.4258H45.8021V83.7878L42.3802 92.2796H40.3891L36.9672 83.8798V93.4258H35.0764V81.7129H37.9795L41.3846 90.0792L44.7897 81.7129H47.6929ZM54.0736 85.2017C55.1947 85.2017 56.1039 85.5921 56.801 86.373C57.5038 87.1482 57.858 88.1606 57.8636 89.4099C57.8636 89.5773 57.8524 89.7948 57.8301 90.0625H51.9067C52.0183 90.7486 52.2916 91.2617 52.7266 91.6019C53.1617 91.9366 53.6832 92.1039 54.2911 92.1039C55.1278 92.1039 55.9003 91.8222 56.6086 91.2589L57.4787 92.5055C56.5975 93.2585 55.4987 93.6349 54.1824 93.6349C52.9721 93.6349 51.9848 93.2473 51.2207 92.472C50.4622 91.6967 50.0829 90.6788 50.0829 89.4183C50.0829 88.1634 50.451 87.1482 51.1872 86.373C51.9291 85.5921 52.8912 85.2017 54.0736 85.2017ZM54.0402 86.7578C53.4378 86.7578 52.9553 86.9363 52.5928 87.2933C52.2358 87.6446 52.0099 88.1243 51.9151 88.7323H56.0732C55.9784 88.1076 55.7525 87.6223 55.3955 87.2765C55.0441 86.9307 54.5923 86.7578 54.0402 86.7578ZM65.4048 85.4108V87.0004H62.3343V90.4892C62.3343 91.0023 62.4515 91.3816 62.6857 91.627C62.92 91.8669 63.2267 91.9868 63.606 91.9868C64.108 91.9868 64.6462 91.8055 65.2207 91.443L65.9151 92.8401C65.1287 93.37 64.3088 93.6349 63.4554 93.6349C62.5295 93.6349 61.8184 93.3784 61.322 92.8652C60.8256 92.3521 60.5774 91.5712 60.5774 90.5227V87.0004H58.9794V85.4108H60.5774V82.9846H62.3343V85.4108H65.4048ZM75.2369 85.4108V93.4258H73.4883V92.4637C72.8804 93.2445 72.041 93.6349 70.9701 93.6349C69.8378 93.6349 68.8869 93.2361 68.1172 92.4386C67.3475 91.641 66.9626 90.6342 66.9626 89.4183C66.9626 88.2024 67.3475 87.1957 68.1172 86.3981C68.8869 85.6005 69.8378 85.2017 70.9701 85.2017C72.041 85.2017 72.8804 85.5949 73.4883 86.3813V85.4108H75.2369ZM71.1792 86.8498C70.4486 86.8498 69.8629 87.098 69.4223 87.5944C68.9817 88.0853 68.7614 88.6932 68.7614 89.4183C68.7614 90.1434 68.9817 90.7541 69.4223 91.2505C69.8629 91.7414 70.4486 91.9868 71.1792 91.9868C71.8932 91.9868 72.4732 91.7441 72.9194 91.2589C73.3712 90.7737 73.5971 90.1601 73.5971 89.4183C73.5971 88.6765 73.3712 88.063 72.9194 87.5777C72.4732 87.0925 71.8932 86.8498 71.1792 86.8498ZM79.7384 81.3783V93.4258H77.9815V81.3783H79.7384Z" fill="black"/>
<path d="M42.5794 119.426C42.1541 119.426 41.8055 119.077 41.8055 118.652C41.8055 118.22 42.1541 117.878 42.5794 117.878C43.0116 117.878 43.3533 118.227 43.3533 118.652C43.3533 119.077 43.0047 119.426 42.5794 119.426ZM44.1272 119.426C43.7019 119.426 43.3533 119.077 43.3533 118.652C43.3533 118.22 43.7019 117.878 44.1272 117.878C44.5594 117.878 44.901 118.227 44.901 118.652C44.901 119.077 44.5594 119.426 44.1272 119.426ZM45.6819 119.426C45.2496 119.426 44.901 119.077 44.901 118.652C44.901 118.22 45.2496 117.878 45.6819 117.878C46.1072 117.878 46.4558 118.227 46.4558 118.652C46.4558 119.077 46.1072 119.426 45.6819 119.426ZM44.1272 117.878C43.7019 117.878 43.3533 117.529 43.3533 117.104C43.3533 116.672 43.7019 116.33 44.1272 116.33C44.5594 116.33 44.901 116.672 44.901 117.104C44.901 117.529 44.5594 117.878 44.1272 117.878ZM44.1272 116.33C43.7019 116.33 43.3533 115.982 43.3533 115.549C43.3533 115.124 43.7019 114.775 44.1272 114.775C44.5594 114.775 44.901 115.124 44.901 115.549C44.901 115.982 44.5594 116.33 44.1272 116.33ZM44.1272 114.775C43.7019 114.775 43.3533 114.434 43.3533 114.002C43.3533 113.576 43.7019 113.228 44.1272 113.228C44.5594 113.228 44.901 113.576 44.901 114.002C44.901 114.434 44.5594 114.775 44.1272 114.775ZM44.1272 113.228C43.7019 113.228 43.3533 112.879 43.3533 112.454C43.3533 112.029 43.7019 111.68 44.1272 111.68C44.5594 111.68 44.901 112.029 44.901 112.454C44.901 112.879 44.5594 113.228 44.1272 113.228ZM42.5794 111.68C42.1541 111.68 41.8055 111.331 41.8055 110.906C41.8055 110.474 42.1541 110.132 42.5794 110.132C43.0116 110.132 43.3533 110.474 43.3533 110.906C43.3533 111.331 43.0047 111.68 42.5794 111.68ZM44.1272 111.68C43.7019 111.68 43.3533 111.331 43.3533 110.906C43.3533 110.474 43.7019 110.132 44.1272 110.132C44.5594 110.132 44.901 110.474 44.901 110.906C44.901 111.331 44.5594 111.68 44.1272 111.68ZM44.1272 110.132C43.7019 110.132 43.3533 109.784 43.3533 109.358C43.3533 108.926 43.7019 108.577 44.1272 108.577C44.5594 108.577 44.901 108.926 44.901 109.358C44.901 109.784 44.5594 110.132 44.1272 110.132ZM50.3229 119.426C49.8976 119.426 49.549 119.077 49.549 118.652C49.549 118.22 49.8976 117.878 50.3229 117.878C50.7552 117.878 51.0968 118.227 51.0968 118.652C51.0968 119.077 50.7552 119.426 50.3229 119.426ZM51.8777 119.426C51.4454 119.426 51.0968 119.077 51.0968 118.652C51.0968 118.22 51.4454 117.878 51.8777 117.878C52.303 117.878 52.6516 118.227 52.6516 118.652C52.6516 119.077 52.303 119.426 51.8777 119.426ZM53.4254 119.426C52.9932 119.426 52.6516 119.077 52.6516 118.652C52.6516 118.22 52.9932 117.878 53.4254 117.878C53.8507 117.878 54.1993 118.227 54.1993 118.652C54.1993 119.077 53.8507 119.426 53.4254 119.426ZM48.7752 117.878C48.3499 117.878 48.0013 117.529 48.0013 117.104C48.0013 116.672 48.3499 116.33 48.7752 116.33C49.2074 116.33 49.549 116.672 49.549 117.104C49.549 117.529 49.2004 117.878 48.7752 117.878ZM54.9732 117.878C54.5479 117.878 54.1993 117.529 54.1993 117.104C54.1993 116.672 54.5479 116.33 54.9732 116.33C55.3985 116.33 55.7471 116.672 55.7471 117.104C55.7471 117.529 55.3985 117.878 54.9732 117.878ZM48.7752 116.33C48.3499 116.33 48.0013 115.982 48.0013 115.549C48.0013 115.124 48.3499 114.775 48.7752 114.775C49.2074 114.775 49.549 115.124 49.549 115.549C49.549 115.982 49.2004 116.33 48.7752 116.33ZM54.9732 116.33C54.5479 116.33 54.1993 115.982 54.1993 115.549C54.1993 115.124 54.5479 114.775 54.9732 114.775C55.3985 114.775 55.7471 115.124 55.7471 115.549C55.7471 115.982 55.3985 116.33 54.9732 116.33ZM50.3229 114.775C49.8976 114.775 49.549 114.434 49.549 114.002C49.549 113.576 49.8976 113.228 50.3229 113.228C50.7552 113.228 51.0968 113.576 51.0968 114.002C51.0968 114.434 50.7552 114.775 50.3229 114.775ZM51.8777 114.775C51.4454 114.775 51.0968 114.434 51.0968 114.002C51.0968 113.576 51.4454 113.228 51.8777 113.228C52.303 113.228 52.6516 113.576 52.6516 114.002C52.6516 114.434 52.303 114.775 51.8777 114.775ZM53.4254 114.775C52.9932 114.775 52.6516 114.434 52.6516 114.002C52.6516 113.576 52.9932 113.228 53.4254 113.228C53.8507 113.228 54.1993 113.576 54.1993 114.002C54.1993 114.434 53.8507 114.775 53.4254 114.775ZM48.7752 113.228C48.3499 113.228 48.0013 112.879 48.0013 112.454C48.0013 112.029 48.3499 111.68 48.7752 111.68C49.2074 111.68 49.549 112.029 49.549 112.454C49.549 112.879 49.2004 113.228 48.7752 113.228ZM54.9732 113.228C54.5479 113.228 54.1993 112.879 54.1993 112.454C54.1993 112.029 54.5479 111.68 54.9732 111.68C55.3985 111.68 55.7471 112.029 55.7471 112.454C55.7471 112.879 55.3985 113.228 54.9732 113.228ZM48.7752 111.68C48.3499 111.68 48.0013 111.331 48.0013 110.906C48.0013 110.474 48.3499 110.132 48.7752 110.132C49.2074 110.132 49.549 110.474 49.549 110.906C49.549 111.331 49.2004 111.68 48.7752 111.68ZM54.9732 111.68C54.5479 111.68 54.1993 111.331 54.1993 110.906C54.1993 110.474 54.5479 110.132 54.9732 110.132C55.3985 110.132 55.7471 110.474 55.7471 110.906C55.7471 111.331 55.3985 111.68 54.9732 111.68ZM50.3229 110.132C49.8976 110.132 49.549 109.784 49.549 109.358C49.549 108.926 49.8976 108.577 50.3229 108.577C50.7552 108.577 51.0968 108.926 51.0968 109.358C51.0968 109.784 50.7552 110.132 50.3229 110.132ZM51.8777 110.132C51.4454 110.132 51.0968 109.784 51.0968 109.358C51.0968 108.926 51.4454 108.577 51.8777 108.577C52.303 108.577 52.6516 108.926 52.6516 109.358C52.6516 109.784 52.303 110.132 51.8777 110.132ZM53.4254 110.132C52.9932 110.132 52.6516 109.784 52.6516 109.358C52.6516 108.926 52.9932 108.577 53.4254 108.577C53.8507 108.577 54.1993 108.926 54.1993 109.358C54.1993 109.784 53.8507 110.132 53.4254 110.132ZM59.6098 119.426C59.1845 119.426 58.8359 119.077 58.8359 118.652C58.8359 118.22 59.1845 117.878 59.6098 117.878C60.042 117.878 60.3837 118.227 60.3837 118.652C60.3837 119.077 60.042 119.426 59.6098 119.426ZM67.3556 119.426C66.9303 119.426 66.5817 119.077 66.5817 118.652C66.5817 118.22 66.9303 117.878 67.3556 117.878C67.7879 117.878 68.1365 118.227 68.1365 118.652C68.1365 119.077 67.7879 119.426 67.3556 119.426ZM68.9103 119.426C68.4781 119.426 68.1365 119.077 68.1365 118.652C68.1365 118.22 68.4781 117.878 68.9103 117.878C69.3356 117.878 69.6842 118.227 69.6842 118.652C69.6842 119.077 69.3356 119.426 68.9103 119.426ZM61.1645 117.878C60.7323 117.878 60.3837 117.529 60.3837 117.104C60.3837 116.672 60.7323 116.33 61.1645 116.33C61.5898 116.33 61.9384 116.672 61.9384 117.104C61.9384 117.529 61.5898 117.878 61.1645 117.878ZM65.8078 117.878C65.3825 117.878 65.0339 117.529 65.0339 117.104C65.0339 116.672 65.3825 116.33 65.8078 116.33C66.2401 116.33 66.5817 116.672 66.5817 117.104C66.5817 117.529 66.2401 117.878 65.8078 117.878ZM70.4581 117.878C70.0259 117.878 69.6842 117.529 69.6842 117.104C69.6842 116.672 70.0328 116.33 70.4581 116.33C70.8834 116.33 71.232 116.672 71.232 117.104C71.232 117.529 70.8834 117.878 70.4581 117.878ZM62.7123 116.33C62.28 116.33 61.9384 115.982 61.9384 115.549C61.9384 115.124 62.28 114.775 62.7123 114.775C63.1376 114.775 63.4862 115.124 63.4862 115.549C63.4862 115.982 63.1376 116.33 62.7123 116.33ZM65.8078 116.33C65.3825 116.33 65.0339 115.982 65.0339 115.549C65.0339 115.124 65.3825 114.775 65.8078 114.775C66.2401 114.775 66.5817 115.124 66.5817 115.549C66.5817 115.982 66.2401 116.33 65.8078 116.33ZM70.4581 116.33C70.0259 116.33 69.6842 115.982 69.6842 115.549C69.6842 115.124 70.0328 114.775 70.4581 114.775C70.8834 114.775 71.232 115.124 71.232 115.549C71.232 115.982 70.8834 116.33 70.4581 116.33ZM59.6098 114.775C59.1845 114.775 58.8359 114.434 58.8359 114.002C58.8359 113.576 59.1845 113.228 59.6098 113.228C60.042 113.228 60.3837 113.576 60.3837 114.002C60.3837 114.434 60.042 114.775 59.6098 114.775ZM61.1645 114.775C60.7323 114.775 60.3837 114.434 60.3837 114.002C60.3837 113.576 60.7323 113.228 61.1645 113.228C61.5898 113.228 61.9384 113.576 61.9384 114.002C61.9384 114.434 61.5898 114.775 61.1645 114.775ZM64.2601 114.775C63.8348 114.775 63.4862 114.434 63.4862 114.002C63.4862 113.576 63.8348 113.228 64.2601 113.228C64.6853 113.228 65.0339 113.576 65.0339 114.002C65.0339 114.434 64.6853 114.775 64.2601 114.775ZM67.3556 114.775C66.9303 114.775 66.5817 114.434 66.5817 114.002C66.5817 113.576 66.9303 113.228 67.3556 113.228C67.7879 113.228 68.1365 113.576 68.1365 114.002C68.1365 114.434 67.7879 114.775 67.3556 114.775ZM68.9103 114.775C68.4781 114.775 68.1365 114.434 68.1365 114.002C68.1365 113.576 68.4781 113.228 68.9103 113.228C69.3356 113.228 69.6842 113.576 69.6842 114.002C69.6842 114.434 69.3356 114.775 68.9103 114.775ZM58.062 113.228C57.6367 113.228 57.2881 112.879 57.2881 112.454C57.2881 112.029 57.6367 111.68 58.062 111.68C58.4943 111.68 58.8359 112.029 58.8359 112.454C58.8359 112.879 58.4873 113.228 58.062 113.228ZM62.7123 113.228C62.28 113.228 61.9384 112.879 61.9384 112.454C61.9384 112.029 62.28 111.68 62.7123 111.68C63.1376 111.68 63.4862 112.029 63.4862 112.454C63.4862 112.879 63.1376 113.228 62.7123 113.228ZM65.8078 113.228C65.3825 113.228 65.0339 112.879 65.0339 112.454C65.0339 112.029 65.3825 111.68 65.8078 111.68C66.2401 111.68 66.5817 112.029 66.5817 112.454C66.5817 112.879 66.2401 113.228 65.8078 113.228ZM58.062 111.68C57.6367 111.68 57.2881 111.331 57.2881 110.906C57.2881 110.474 57.6367 110.132 58.062 110.132C58.4943 110.132 58.8359 110.474 58.8359 110.906C58.8359 111.331 58.4873 111.68 58.062 111.68ZM62.7123 111.68C62.28 111.68 61.9384 111.331 61.9384 110.906C61.9384 110.474 62.28 110.132 62.7123 110.132C63.1376 110.132 63.4862 110.474 63.4862 110.906C63.4862 111.331 63.1376 111.68 62.7123 111.68ZM67.3556 111.68C66.9303 111.68 66.5817 111.331 66.5817 110.906C66.5817 110.474 66.9303 110.132 67.3556 110.132C67.7879 110.132 68.1365 110.474 68.1365 110.906C68.1365 111.331 67.7879 111.68 67.3556 111.68ZM59.6098 110.132C59.1845 110.132 58.8359 109.784 58.8359 109.358C58.8359 108.926 59.1845 108.577 59.6098 108.577C60.042 108.577 60.3837 108.926 60.3837 109.358C60.3837 109.784 60.042 110.132 59.6098 110.132ZM61.1645 110.132C60.7323 110.132 60.3837 109.784 60.3837 109.358C60.3837 108.926 60.7323 108.577 61.1645 108.577C61.5898 108.577 61.9384 108.926 61.9384 109.358C61.9384 109.784 61.5898 110.132 61.1645 110.132ZM68.9103 110.132C68.4781 110.132 68.1365 109.784 68.1365 109.358C68.1365 108.926 68.4781 108.577 68.9103 108.577C69.3356 108.577 69.6842 108.926 69.6842 109.358C69.6842 109.784 69.3356 110.132 68.9103 110.132Z" fill="black"/>
</svg>
