<svg width="115" height="150" viewBox="0 0 115 150" fill="none" xmlns="http://www.w3.org/2000/svg">
<path d="M49.2842 20.8135C54.7077 19.7288 60.2923 19.7288 65.7158 20.8135L66.5 20.9707C69.8263 21.636 73.0426 22.761 76.0566 24.3125L76.6572 24.6279L78.0137 25.3584C83.3643 28.2395 87.7619 32.6143 90.6719 37.9492C93.1835 42.5539 94.5 47.7149 94.5 52.96V95.7852C94.5 100.719 93.351 105.585 91.1445 109.998C88.0693 116.149 83.0821 121.136 76.9316 124.211L74.2588 125.548C71.7477 126.803 69.1066 127.78 66.3828 128.461C60.8554 129.843 55.0898 129.981 49.5029 128.863L49.1963 128.802C44.8118 127.925 40.6177 126.276 36.8096 123.933L35.8643 123.351H35.8633C31.1931 120.477 27.3041 116.495 24.541 111.758C21.5673 106.66 20.0001 100.864 20 94.9619L20 53.2744C20 47.6323 21.4979 42.0913 24.3408 37.2178L24.6543 36.6924C27.9431 31.2951 32.7657 26.9933 38.5127 24.3408L39.8467 23.7246L40.3359 23.5039C42.7901 22.4147 45.3573 21.5991 47.9912 21.0723L49.2842 20.8135Z" fill="#B5A7D2" stroke="#B5A7D2" stroke-width="40"/>
<ellipse cx="49.1159" cy="30.8894" rx="1.57292" ry="1.57295" fill="black"/>
<ellipse cx="52.8913" cy="29.0026" rx="1.57292" ry="1.57295" fill="black"/>
<ellipse cx="57.2936" cy="28.3737" rx="1.57292" ry="1.57295" fill="black"/>
<ellipse cx="61.6979" cy="29.0026" rx="1.57292" ry="1.57295" fill="black"/>
<ellipse cx="47.4362" cy="34.2448" rx="1.57292" ry="1.57295" fill="black"/>
<ellipse cx="47.4362" cy="38.2292" rx="1.57292" ry="1.57295" fill="black"/>
<ellipse cx="47.4362" cy="42.2136" rx="1.57292" ry="1.57295" fill="black"/>
<ellipse cx="47.4362" cy="46.198" rx="1.57292" ry="1.57295" fill="black"/>
<ellipse cx="47.4362" cy="50.1862" rx="1.57292" ry="1.57295" fill="black"/>
<ellipse cx="47.4362" cy="54.1706" rx="1.57292" ry="1.57295" fill="black"/>
<ellipse cx="47.4362" cy="58.155" rx="1.57292" ry="1.57295" fill="black"/>
<ellipse cx="47.4362" cy="62.1355" rx="1.57292" ry="1.57295" fill="black"/>
<ellipse cx="49.3249" cy="66.1237" rx="1.57292" ry="1.57295" fill="black"/>
<ellipse cx="53.3092" cy="68.2214" rx="1.57292" ry="1.57295" fill="black"/>
<ellipse cx="57.2936" cy="68.8503" rx="1.57292" ry="1.57295" fill="black"/>
<ellipse cx="61.28" cy="68.2214" rx="1.57292" ry="1.57295" fill="black"/>
<ellipse cx="65.2643" cy="66.1237" rx="1.57292" ry="1.57295" fill="black"/>
<ellipse cx="50.7936" cy="36.9675" rx="1.57292" ry="1.57295" fill="black"/>
<ellipse cx="55.1979" cy="38.2292" rx="1.57292" ry="1.57295" fill="black"/>
<path d="M61.1742 38.2292C61.1742 39.0979 60.47 39.8022 59.6013 39.8022C58.7326 39.8022 58.0284 39.0979 58.0284 38.2292C58.0284 37.3605 58.7326 36.6562 59.6013 36.6562C60.47 36.6562 61.1742 37.3605 61.1742 38.2292Z" fill="black"/>
<path d="M58.553 42.7699C58.553 43.6386 57.8488 44.3429 56.9801 44.3429C56.1114 44.3429 55.4072 43.6386 55.4072 42.7699C55.4072 41.9012 56.1114 41.197 56.9801 41.197C57.8488 41.197 58.553 41.9012 58.553 42.7699Z" fill="black"/>
<path d="M61.0697 47.129C61.0697 47.9977 60.3655 48.702 59.4968 48.702C58.6281 48.702 57.9238 47.9977 57.9238 47.129C57.9238 46.2603 58.6281 45.5561 59.4968 45.5561C60.3655 45.5561 61.0697 46.2603 61.0697 47.129Z" fill="black"/>
<path d="M58.3978 51.3371C58.3978 52.2058 57.6936 52.9101 56.8249 52.9101C55.9562 52.9101 55.252 52.2058 55.252 51.3371C55.252 50.4684 55.9562 49.7642 56.8249 49.7642C57.6936 49.7642 58.3978 50.4684 58.3978 51.3371Z" fill="black"/>
<path d="M60.9644 55.7828C60.9644 56.6515 60.2602 57.3557 59.3915 57.3557C58.5228 57.3557 57.8186 56.6515 57.8186 55.7828C57.8186 54.9141 58.5228 54.2098 59.3915 54.2098C60.2602 54.2098 60.9644 54.9141 60.9644 55.7828Z" fill="black"/>
<path d="M58.4456 60.1456C58.4456 61.0144 57.7414 61.7186 56.8727 61.7186C56.004 61.7186 55.2997 61.0144 55.2997 60.1456C55.2997 59.2769 56.004 58.5727 56.8727 58.5727C57.7414 58.5727 58.4456 59.2769 58.4456 60.1456Z" fill="black"/>
<path d="M61.1094 64.7596C61.1094 65.6284 60.4052 66.3326 59.5365 66.3326C58.6678 66.3326 57.9636 65.6284 57.9636 64.7596C57.9636 63.8909 58.6678 63.1867 59.5365 63.1867C60.4052 63.1867 61.1094 63.8909 61.1094 64.7596Z" fill="black"/>
<ellipse cx="64.0065" cy="37.1823" rx="1.57292" ry="1.57295" fill="black"/>
<ellipse cx="67.151" cy="34.2448" rx="1.57292" ry="1.57295" fill="black"/>
<ellipse cx="67.151" cy="38.2292" rx="1.57292" ry="1.57295" fill="black"/>
<ellipse cx="67.151" cy="42.2136" rx="1.57292" ry="1.57295" fill="black"/>
<ellipse cx="67.151" cy="46.198" rx="1.57292" ry="1.57295" fill="black"/>
<ellipse cx="67.151" cy="50.1862" rx="1.57292" ry="1.57295" fill="black"/>
<ellipse cx="67.151" cy="54.1706" rx="1.57292" ry="1.57295" fill="black"/>
<ellipse cx="67.151" cy="58.155" rx="1.57292" ry="1.57295" fill="black"/>
<ellipse cx="67.151" cy="62.1355" rx="1.57292" ry="1.57295" fill="black"/>
<ellipse cx="65.4733" cy="30.8894" rx="1.57292" ry="1.57295" fill="black"/>
<path d="M47.6929 81.709V93.4219H45.8021V83.7839L42.3802 92.2757H40.3891L36.9672 83.8759V93.4219H35.0764V81.709H37.9795L41.3846 90.0753L44.7897 81.709H47.6929ZM54.0736 85.1978C55.1947 85.1978 56.1039 85.5882 56.801 86.3691C57.5038 87.1443 57.858 88.1567 57.8636 89.406C57.8636 89.5734 57.8524 89.7909 57.8301 90.0586H51.9067C52.0183 90.7446 52.2916 91.2578 52.7266 91.598C53.1617 91.9327 53.6832 92.1 54.2911 92.1C55.1278 92.1 55.9003 91.8183 56.6086 91.255L57.4787 92.5016C56.5975 93.2545 55.4987 93.631 54.1824 93.631C52.9721 93.631 51.9848 93.2434 51.2207 92.4681C50.4622 91.6928 50.0829 90.6749 50.0829 89.4144C50.0829 88.1595 50.451 87.1443 51.1872 86.3691C51.9291 85.5882 52.8912 85.1978 54.0736 85.1978ZM54.0402 86.7539C53.4378 86.7539 52.9553 86.9324 52.5928 87.2894C52.2358 87.6407 52.0099 88.1204 51.9151 88.7284H56.0732C55.9784 88.1037 55.7525 87.6184 55.3955 87.2726C55.0441 86.9268 54.5923 86.7539 54.0402 86.7539ZM65.4048 85.4069V86.9965H62.3343V90.4853C62.3343 90.9984 62.4515 91.3777 62.6857 91.6231C62.92 91.8629 63.2267 91.9829 63.606 91.9829C64.108 91.9829 64.6462 91.8016 65.2207 91.4391L65.9151 92.8362C65.1287 93.3661 64.3088 93.631 63.4554 93.631C62.5295 93.631 61.8184 93.3745 61.322 92.8613C60.8256 92.3482 60.5774 91.5673 60.5774 90.5188V86.9965H58.9794V85.4069H60.5774V82.9807H62.3343V85.4069H65.4048ZM75.2369 85.4069V93.4219H73.4883V92.4597C72.8804 93.2406 72.041 93.631 70.9701 93.631C69.8378 93.631 68.8869 93.2322 68.1172 92.4346C67.3475 91.6371 66.9626 90.6303 66.9626 89.4144C66.9626 88.1985 67.3475 87.1917 68.1172 86.3942C68.8869 85.5966 69.8378 85.1978 70.9701 85.1978C72.041 85.1978 72.8804 85.591 73.4883 86.3774V85.4069H75.2369ZM71.1792 86.8459C70.4486 86.8459 69.8629 87.0941 69.4223 87.5905C68.9817 88.0814 68.7614 88.6893 68.7614 89.4144C68.7614 90.1395 68.9817 90.7502 69.4223 91.2466C69.8629 91.7375 70.4486 91.9829 71.1792 91.9829C71.8932 91.9829 72.4732 91.7402 72.9194 91.255C73.3712 90.7697 73.5971 90.1562 73.5971 89.4144C73.5971 88.6726 73.3712 88.0591 72.9194 87.5738C72.4732 87.0886 71.8932 86.8459 71.1792 86.8459ZM79.7384 81.3744V93.4219H77.9815V81.3744H79.7384Z" fill="black"/>
<path d="M42.5794 119.422C42.1541 119.422 41.8055 119.073 41.8055 118.648C41.8055 118.216 42.1541 117.874 42.5794 117.874C43.0116 117.874 43.3533 118.223 43.3533 118.648C43.3533 119.073 43.0047 119.422 42.5794 119.422ZM44.1272 119.422C43.7019 119.422 43.3533 119.073 43.3533 118.648C43.3533 118.216 43.7019 117.874 44.1272 117.874C44.5594 117.874 44.901 118.223 44.901 118.648C44.901 119.073 44.5594 119.422 44.1272 119.422ZM45.6819 119.422C45.2496 119.422 44.901 119.073 44.901 118.648C44.901 118.216 45.2496 117.874 45.6819 117.874C46.1072 117.874 46.4558 118.223 46.4558 118.648C46.4558 119.073 46.1072 119.422 45.6819 119.422ZM44.1272 117.874C43.7019 117.874 43.3533 117.526 43.3533 117.1C43.3533 116.668 43.7019 116.326 44.1272 116.326C44.5594 116.326 44.901 116.668 44.901 117.1C44.901 117.526 44.5594 117.874 44.1272 117.874ZM44.1272 116.326C43.7019 116.326 43.3533 115.978 43.3533 115.545C43.3533 115.12 43.7019 114.772 44.1272 114.772C44.5594 114.772 44.901 115.12 44.901 115.545C44.901 115.978 44.5594 116.326 44.1272 116.326ZM44.1272 114.772C43.7019 114.772 43.3533 114.43 43.3533 113.998C43.3533 113.572 43.7019 113.224 44.1272 113.224C44.5594 113.224 44.901 113.572 44.901 113.998C44.901 114.43 44.5594 114.772 44.1272 114.772ZM44.1272 113.224C43.7019 113.224 43.3533 112.875 43.3533 112.45C43.3533 112.025 43.7019 111.676 44.1272 111.676C44.5594 111.676 44.901 112.025 44.901 112.45C44.901 112.875 44.5594 113.224 44.1272 113.224ZM42.5794 111.676C42.1541 111.676 41.8055 111.327 41.8055 110.902C41.8055 110.47 42.1541 110.128 42.5794 110.128C43.0116 110.128 43.3533 110.47 43.3533 110.902C43.3533 111.327 43.0047 111.676 42.5794 111.676ZM44.1272 111.676C43.7019 111.676 43.3533 111.327 43.3533 110.902C43.3533 110.47 43.7019 110.128 44.1272 110.128C44.5594 110.128 44.901 110.47 44.901 110.902C44.901 111.327 44.5594 111.676 44.1272 111.676ZM44.1272 110.128C43.7019 110.128 43.3533 109.78 43.3533 109.354C43.3533 108.922 43.7019 108.574 44.1272 108.574C44.5594 108.574 44.901 108.922 44.901 109.354C44.901 109.78 44.5594 110.128 44.1272 110.128ZM50.3229 119.422C49.8976 119.422 49.549 119.073 49.549 118.648C49.549 118.216 49.8976 117.874 50.3229 117.874C50.7552 117.874 51.0968 118.223 51.0968 118.648C51.0968 119.073 50.7552 119.422 50.3229 119.422ZM51.8777 119.422C51.4454 119.422 51.0968 119.073 51.0968 118.648C51.0968 118.216 51.4454 117.874 51.8777 117.874C52.303 117.874 52.6516 118.223 52.6516 118.648C52.6516 119.073 52.303 119.422 51.8777 119.422ZM53.4254 119.422C52.9932 119.422 52.6516 119.073 52.6516 118.648C52.6516 118.216 52.9932 117.874 53.4254 117.874C53.8507 117.874 54.1993 118.223 54.1993 118.648C54.1993 119.073 53.8507 119.422 53.4254 119.422ZM48.7752 117.874C48.3499 117.874 48.0013 117.526 48.0013 117.1C48.0013 116.668 48.3499 116.326 48.7752 116.326C49.2074 116.326 49.549 116.668 49.549 117.1C49.549 117.526 49.2004 117.874 48.7752 117.874ZM54.9732 117.874C54.5479 117.874 54.1993 117.526 54.1993 117.1C54.1993 116.668 54.5479 116.326 54.9732 116.326C55.3985 116.326 55.7471 116.668 55.7471 117.1C55.7471 117.526 55.3985 117.874 54.9732 117.874ZM48.7752 116.326C48.3499 116.326 48.0013 115.978 48.0013 115.545C48.0013 115.12 48.3499 114.772 48.7752 114.772C49.2074 114.772 49.549 115.12 49.549 115.545C49.549 115.978 49.2004 116.326 48.7752 116.326ZM54.9732 116.326C54.5479 116.326 54.1993 115.978 54.1993 115.545C54.1993 115.12 54.5479 114.772 54.9732 114.772C55.3985 114.772 55.7471 115.12 55.7471 115.545C55.7471 115.978 55.3985 116.326 54.9732 116.326ZM50.3229 114.772C49.8976 114.772 49.549 114.43 49.549 113.998C49.549 113.572 49.8976 113.224 50.3229 113.224C50.7552 113.224 51.0968 113.572 51.0968 113.998C51.0968 114.43 50.7552 114.772 50.3229 114.772ZM51.8777 114.772C51.4454 114.772 51.0968 114.43 51.0968 113.998C51.0968 113.572 51.4454 113.224 51.8777 113.224C52.303 113.224 52.6516 113.572 52.6516 113.998C52.6516 114.43 52.303 114.772 51.8777 114.772ZM53.4254 114.772C52.9932 114.772 52.6516 114.43 52.6516 113.998C52.6516 113.572 52.9932 113.224 53.4254 113.224C53.8507 113.224 54.1993 113.572 54.1993 113.998C54.1993 114.43 53.8507 114.772 53.4254 114.772ZM48.7752 113.224C48.3499 113.224 48.0013 112.875 48.0013 112.45C48.0013 112.025 48.3499 111.676 48.7752 111.676C49.2074 111.676 49.549 112.025 49.549 112.45C49.549 112.875 49.2004 113.224 48.7752 113.224ZM54.9732 113.224C54.5479 113.224 54.1993 112.875 54.1993 112.45C54.1993 112.025 54.5479 111.676 54.9732 111.676C55.3985 111.676 55.7471 112.025 55.7471 112.45C55.7471 112.875 55.3985 113.224 54.9732 113.224ZM48.7752 111.676C48.3499 111.676 48.0013 111.327 48.0013 110.902C48.0013 110.47 48.3499 110.128 48.7752 110.128C49.2074 110.128 49.549 110.47 49.549 110.902C49.549 111.327 49.2004 111.676 48.7752 111.676ZM54.9732 111.676C54.5479 111.676 54.1993 111.327 54.1993 110.902C54.1993 110.47 54.5479 110.128 54.9732 110.128C55.3985 110.128 55.7471 110.47 55.7471 110.902C55.7471 111.327 55.3985 111.676 54.9732 111.676ZM50.3229 110.128C49.8976 110.128 49.549 109.78 49.549 109.354C49.549 108.922 49.8976 108.574 50.3229 108.574C50.7552 108.574 51.0968 108.922 51.0968 109.354C51.0968 109.78 50.7552 110.128 50.3229 110.128ZM51.8777 110.128C51.4454 110.128 51.0968 109.78 51.0968 109.354C51.0968 108.922 51.4454 108.574 51.8777 108.574C52.303 108.574 52.6516 108.922 52.6516 109.354C52.6516 109.78 52.303 110.128 51.8777 110.128ZM53.4254 110.128C52.9932 110.128 52.6516 109.78 52.6516 109.354C52.6516 108.922 52.9932 108.574 53.4254 108.574C53.8507 108.574 54.1993 108.922 54.1993 109.354C54.1993 109.78 53.8507 110.128 53.4254 110.128ZM59.6098 119.422C59.1845 119.422 58.8359 119.073 58.8359 118.648C58.8359 118.216 59.1845 117.874 59.6098 117.874C60.042 117.874 60.3837 118.223 60.3837 118.648C60.3837 119.073 60.042 119.422 59.6098 119.422ZM67.3556 119.422C66.9303 119.422 66.5817 119.073 66.5817 118.648C66.5817 118.216 66.9303 117.874 67.3556 117.874C67.7879 117.874 68.1365 118.223 68.1365 118.648C68.1365 119.073 67.7879 119.422 67.3556 119.422ZM68.9103 119.422C68.4781 119.422 68.1365 119.073 68.1365 118.648C68.1365 118.216 68.4781 117.874 68.9103 117.874C69.3356 117.874 69.6842 118.223 69.6842 118.648C69.6842 119.073 69.3356 119.422 68.9103 119.422ZM61.1645 117.874C60.7323 117.874 60.3837 117.526 60.3837 117.1C60.3837 116.668 60.7323 116.326 61.1645 116.326C61.5898 116.326 61.9384 116.668 61.9384 117.1C61.9384 117.526 61.5898 117.874 61.1645 117.874ZM65.8078 117.874C65.3825 117.874 65.0339 117.526 65.0339 117.1C65.0339 116.668 65.3825 116.326 65.8078 116.326C66.2401 116.326 66.5817 116.668 66.5817 117.1C66.5817 117.526 66.2401 117.874 65.8078 117.874ZM70.4581 117.874C70.0259 117.874 69.6842 117.526 69.6842 117.1C69.6842 116.668 70.0328 116.326 70.4581 116.326C70.8834 116.326 71.232 116.668 71.232 117.1C71.232 117.526 70.8834 117.874 70.4581 117.874ZM62.7123 116.326C62.28 116.326 61.9384 115.978 61.9384 115.545C61.9384 115.12 62.28 114.772 62.7123 114.772C63.1376 114.772 63.4862 115.12 63.4862 115.545C63.4862 115.978 63.1376 116.326 62.7123 116.326ZM65.8078 116.326C65.3825 116.326 65.0339 115.978 65.0339 115.545C65.0339 115.12 65.3825 114.772 65.8078 114.772C66.2401 114.772 66.5817 115.12 66.5817 115.545C66.5817 115.978 66.2401 116.326 65.8078 116.326ZM70.4581 116.326C70.0259 116.326 69.6842 115.978 69.6842 115.545C69.6842 115.12 70.0328 114.772 70.4581 114.772C70.8834 114.772 71.232 115.12 71.232 115.545C71.232 115.978 70.8834 116.326 70.4581 116.326ZM59.6098 114.772C59.1845 114.772 58.8359 114.43 58.8359 113.998C58.8359 113.572 59.1845 113.224 59.6098 113.224C60.042 113.224 60.3837 113.572 60.3837 113.998C60.3837 114.43 60.042 114.772 59.6098 114.772ZM61.1645 114.772C60.7323 114.772 60.3837 114.43 60.3837 113.998C60.3837 113.572 60.7323 113.224 61.1645 113.224C61.5898 113.224 61.9384 113.572 61.9384 113.998C61.9384 114.43 61.5898 114.772 61.1645 114.772ZM64.2601 114.772C63.8348 114.772 63.4862 114.43 63.4862 113.998C63.4862 113.572 63.8348 113.224 64.2601 113.224C64.6853 113.224 65.0339 113.572 65.0339 113.998C65.0339 114.43 64.6853 114.772 64.2601 114.772ZM67.3556 114.772C66.9303 114.772 66.5817 114.43 66.5817 113.998C66.5817 113.572 66.9303 113.224 67.3556 113.224C67.7879 113.224 68.1365 113.572 68.1365 113.998C68.1365 114.43 67.7879 114.772 67.3556 114.772ZM68.9103 114.772C68.4781 114.772 68.1365 114.43 68.1365 113.998C68.1365 113.572 68.4781 113.224 68.9103 113.224C69.3356 113.224 69.6842 113.572 69.6842 113.998C69.6842 114.43 69.3356 114.772 68.9103 114.772ZM58.062 113.224C57.6367 113.224 57.2881 112.875 57.2881 112.45C57.2881 112.025 57.6367 111.676 58.062 111.676C58.4943 111.676 58.8359 112.025 58.8359 112.45C58.8359 112.875 58.4873 113.224 58.062 113.224ZM62.7123 113.224C62.28 113.224 61.9384 112.875 61.9384 112.45C61.9384 112.025 62.28 111.676 62.7123 111.676C63.1376 111.676 63.4862 112.025 63.4862 112.45C63.4862 112.875 63.1376 113.224 62.7123 113.224ZM65.8078 113.224C65.3825 113.224 65.0339 112.875 65.0339 112.45C65.0339 112.025 65.3825 111.676 65.8078 111.676C66.2401 111.676 66.5817 112.025 66.5817 112.45C66.5817 112.875 66.2401 113.224 65.8078 113.224ZM58.062 111.676C57.6367 111.676 57.2881 111.327 57.2881 110.902C57.2881 110.47 57.6367 110.128 58.062 110.128C58.4943 110.128 58.8359 110.47 58.8359 110.902C58.8359 111.327 58.4873 111.676 58.062 111.676ZM62.7123 111.676C62.28 111.676 61.9384 111.327 61.9384 110.902C61.9384 110.47 62.28 110.128 62.7123 110.128C63.1376 110.128 63.4862 110.47 63.4862 110.902C63.4862 111.327 63.1376 111.676 62.7123 111.676ZM67.3556 111.676C66.9303 111.676 66.5817 111.327 66.5817 110.902C66.5817 110.47 66.9303 110.128 67.3556 110.128C67.7879 110.128 68.1365 110.47 68.1365 110.902C68.1365 111.327 67.7879 111.676 67.3556 111.676ZM59.6098 110.128C59.1845 110.128 58.8359 109.78 58.8359 109.354C58.8359 108.922 59.1845 108.574 59.6098 108.574C60.042 108.574 60.3837 108.922 60.3837 109.354C60.3837 109.78 60.042 110.128 59.6098 110.128ZM61.1645 110.128C60.7323 110.128 60.3837 109.78 60.3837 109.354C60.3837 108.922 60.7323 108.574 61.1645 108.574C61.5898 108.574 61.9384 108.922 61.9384 109.354C61.9384 109.78 61.5898 110.128 61.1645 110.128ZM68.9103 110.128C68.4781 110.128 68.1365 109.78 68.1365 109.354C68.1365 108.922 68.4781 108.574 68.9103 108.574C69.3356 108.574 69.6842 108.922 69.6842 109.354C69.6842 109.78 69.3356 110.128 68.9103 110.128Z" fill="black"/>
</svg>
