<svg width="126" height="149" viewBox="0 0 126 149" fill="none" xmlns="http://www.w3.org/2000/svg">
<path d="M70.4695 20.2655C75.978 20.7628 81.3336 22.346 86.2271 24.9237L86.9345 25.2968C89.9357 26.8777 92.7012 28.8684 95.1517 31.2107L95.6383 31.6835L96.732 32.7685C101.046 37.0482 104.023 42.4902 105.302 48.4312C106.405 53.559 106.204 58.8815 104.717 63.9114L92.5768 104.98C91.1781 109.711 88.6968 114.052 85.3298 117.658C80.6371 122.685 74.4408 126.053 67.6708 127.259L64.7286 127.783C61.9646 128.275 59.1549 128.463 56.3499 128.344C50.6575 128.102 45.0894 126.6 40.0484 123.945L39.7718 123.799C35.8158 121.715 32.2611 118.945 29.2736 115.618L28.5321 114.792L28.5311 114.791C24.8673 110.711 22.2667 105.79 20.9598 100.465C19.5532 94.7328 19.6935 88.7301 21.3665 83.0704L33.1844 43.0931C34.7839 37.6824 37.7912 32.7934 41.899 28.9257L42.3486 28.5107C47.0326 24.2672 52.8768 21.5091 59.14 20.5946L60.5939 20.3818L61.1257 20.3089C63.7879 19.96 66.481 19.9057 69.1563 20.1472L70.4695 20.2655Z" fill="#B5A7D2" stroke="#B5A7D2" stroke-width="40"/>
<ellipse cx="67.4492" cy="29.884" rx="1.57292" ry="1.57295" transform="rotate(16.4685 67.4492 29.884)" fill="black"/>
<ellipse cx="71.6054" cy="29.1418" rx="1.57292" ry="1.57295" transform="rotate(16.4685 71.6054 29.1418)" fill="black"/>
<ellipse cx="76.0058" cy="29.7903" rx="1.57292" ry="1.57295" transform="rotate(16.4685 76.0058 29.7903)" fill="black"/>
<ellipse cx="80.0508" cy="31.6418" rx="1.57292" ry="1.57295" transform="rotate(16.4685 80.0508 31.6418)" fill="black"/>
<ellipse cx="64.8886" cy="32.6262" rx="1.57292" ry="1.57295" transform="rotate(16.4685 64.8886 32.6262)" fill="black"/>
<ellipse cx="63.7597" cy="36.4465" rx="1.57292" ry="1.57295" transform="rotate(16.4685 63.7597 36.4465)" fill="black"/>
<ellipse cx="62.6289" cy="40.2668" rx="1.57292" ry="1.57295" transform="rotate(16.4685 62.6289 40.2668)" fill="black"/>
<ellipse cx="61.5" cy="44.0871" rx="1.57292" ry="1.57295" transform="rotate(16.4685 61.5 44.0871)" fill="black"/>
<ellipse cx="60.3691" cy="47.9114" rx="1.57292" ry="1.57295" transform="rotate(16.4685 60.3691 47.9114)" fill="black"/>
<ellipse cx="59.2402" cy="51.7317" rx="1.57292" ry="1.57295" transform="rotate(16.4685 59.2402 51.7317)" fill="black"/>
<ellipse cx="58.1094" cy="55.5559" rx="1.57292" ry="1.57295" transform="rotate(16.4685 58.1094 55.5559)" fill="black"/>
<ellipse cx="56.9824" cy="59.3723" rx="1.57292" ry="1.57295" transform="rotate(16.4685 56.9824 59.3723)" fill="black"/>
<ellipse cx="57.6621" cy="63.7317" rx="1.57292" ry="1.57295" transform="rotate(16.4685 57.6621 63.7317)" fill="black"/>
<ellipse cx="60.8887" cy="66.8723" rx="1.57292" ry="1.57295" transform="rotate(16.4685 60.8887 66.8723)" fill="black"/>
<ellipse cx="64.5312" cy="68.6028" rx="1.57292" ry="1.57295" transform="rotate(16.4685 64.5312 68.6028)" fill="black"/>
<ellipse cx="68.5312" cy="69.134" rx="1.57292" ry="1.57295" transform="rotate(16.4685 68.5312 69.134)" fill="black"/>
<ellipse cx="72.9472" cy="68.2512" rx="1.57292" ry="1.57295" transform="rotate(16.4685 72.9472 68.2512)" fill="black"/>
<ellipse cx="67.334" cy="36.1887" rx="1.57292" ry="1.57295" transform="rotate(16.4685 67.334 36.1887)" fill="black"/>
<ellipse cx="71.2011" cy="38.6457" rx="1.57292" ry="1.57295" transform="rotate(16.4685 71.2011 38.6457)" fill="black"/>
<path d="M76.9326 40.3397C76.6864 41.1727 75.8114 41.6484 74.9783 41.4022C74.1453 41.1559 73.6696 40.2809 73.9158 39.4479C74.1621 38.6148 75.0371 38.1391 75.8702 38.3853C76.7032 38.6316 77.1789 39.5066 76.9326 40.3397Z" fill="black"/>
<path d="M73.1317 43.951C72.8854 44.7841 72.0105 45.2598 71.1774 45.0135C70.3443 44.7673 69.8686 43.8923 70.1149 43.0592C70.3612 42.2261 71.2362 41.7504 72.0692 41.9967C72.9023 42.243 73.378 43.1179 73.1317 43.951Z" fill="black"/>
<path d="M74.3094 48.8447C74.0631 49.6778 73.1881 50.1535 72.3551 49.9072C71.522 49.661 71.0463 48.786 71.2926 47.9529C71.5389 47.1198 72.4138 46.6441 73.2469 46.8904C74.08 47.1367 74.5557 48.0116 74.3094 48.8447Z" fill="black"/>
<path d="M70.5541 52.1228C70.3079 52.9558 69.4329 53.4315 68.5998 53.1853C67.7668 52.939 67.2911 52.064 67.5374 51.2309C67.7836 50.3979 68.6586 49.9222 69.4917 50.1684C70.3247 50.4147 70.8004 51.2897 70.5541 52.1228Z" fill="black"/>
<path d="M71.7552 57.1136C71.5089 57.9467 70.634 58.4224 69.8009 58.1762C68.9678 57.9299 68.4922 57.0549 68.7384 56.2218C68.9847 55.3887 69.8597 54.913 70.6927 55.1593C71.5258 55.4056 72.0015 56.2806 71.7552 57.1136Z" fill="black"/>
<path d="M68.1029 60.5835C67.8566 61.4165 66.9816 61.8922 66.1485 61.646C65.3155 61.3997 64.8398 60.5247 65.0861 59.6916C65.3323 58.8586 66.2073 58.3829 67.0404 58.6291C67.8734 58.8754 68.3491 59.7504 68.1029 60.5835Z" fill="black"/>
<path d="M69.3494 65.7633C69.1031 66.5964 68.2282 67.0721 67.3951 66.8258C66.562 66.5796 66.0863 65.7046 66.3326 64.8715C66.5789 64.0384 67.4539 63.5627 68.2869 63.809C69.12 64.0553 69.5957 64.9303 69.3494 65.7633Z" fill="black"/>
<ellipse cx="79.9453" cy="40.1379" rx="1.57292" ry="1.57295" transform="rotate(16.4685 79.9453 40.1379)" fill="black"/>
<ellipse cx="83.7929" cy="38.216" rx="1.57292" ry="1.57295" transform="rotate(16.4685 83.7929 38.216)" fill="black"/>
<ellipse cx="82.666" cy="42.0325" rx="1.57292" ry="1.57295" transform="rotate(16.4685 82.666 42.0325)" fill="black"/>
<ellipse cx="81.5351" cy="45.8567" rx="1.57292" ry="1.57295" transform="rotate(16.4685 81.5351 45.8567)" fill="black"/>
<ellipse cx="80.4062" cy="49.677" rx="1.57292" ry="1.57295" transform="rotate(16.4685 80.4062 49.677)" fill="black"/>
<ellipse cx="79.2754" cy="53.5012" rx="1.57292" ry="1.57295" transform="rotate(16.4685 79.2754 53.5012)" fill="black"/>
<ellipse cx="78.1465" cy="57.3215" rx="1.57292" ry="1.57295" transform="rotate(16.4685 78.1465 57.3215)" fill="black"/>
<ellipse cx="77.0156" cy="61.1457" rx="1.57292" ry="1.57295" transform="rotate(16.4685 77.0156 61.1457)" fill="black"/>
<ellipse cx="75.8867" cy="64.9621" rx="1.57292" ry="1.57295" transform="rotate(16.4685 75.8867 64.9621)" fill="black"/>
<ellipse cx="83.1367" cy="34.5207" rx="1.57292" ry="1.57295" transform="rotate(16.4685 83.1367 34.5207)" fill="black"/>
<path d="M51.6776 78.2144L48.3571 89.4467L46.5439 88.9107L49.2762 79.6681L43.5874 86.8415L41.6779 86.277L40.7777 77.2518L38.0715 86.4061L36.2583 85.8701L39.5787 74.6378L42.3627 75.4608L43.2564 84.4492L48.8936 77.3914L51.6776 78.2144ZM56.8075 83.3689C57.8826 83.6867 58.6438 84.3189 59.091 85.2653C59.5452 86.208 59.5979 87.2792 59.249 88.4789C59.2016 88.6394 59.1292 88.8448 59.0319 89.0952L53.3516 87.416C53.2641 88.1056 53.3807 88.6751 53.7014 89.1247C54.0238 89.569 54.4764 89.8773 55.0594 90.0496C55.8618 90.2868 56.6824 90.2357 57.5214 89.8963L58.0024 91.3384C56.9438 91.8106 55.7834 91.8602 54.5211 91.487C53.3604 91.1439 52.5236 90.4923 52.0106 89.5322C51.503 88.5737 51.4278 87.49 51.7852 86.2812C52.1409 85.0777 52.7817 84.2086 53.7075 83.6739C54.6403 83.1353 55.6736 83.0337 56.8075 83.3689ZM56.3343 84.8517C55.7566 84.6809 55.2434 84.7153 54.7945 84.9549C54.3526 85.1906 54 85.5866 53.7367 86.1427L57.7242 87.3215C57.8103 86.6956 57.7313 86.1662 57.487 85.7334C57.2481 85.3021 56.8638 85.0082 56.3343 84.8517ZM67.6145 86.7817L67.1639 88.3061L64.2194 87.4357L63.2304 90.7813C63.0849 91.2734 63.0897 91.6703 63.2448 91.9721C63.4015 92.2685 63.6617 92.4704 64.0254 92.578C64.5068 92.7203 65.0743 92.699 65.728 92.5142L65.9978 94.0509C65.0934 94.3361 64.2321 94.3577 63.4137 94.1158C62.5258 93.8533 61.9166 93.4057 61.586 92.7729C61.2555 92.1401 61.2388 91.3209 61.5361 90.3153L62.5346 86.9376L61.0022 86.4846L61.4528 84.9602L62.9852 85.4132L63.673 83.0865L65.3579 83.5846L64.6701 85.9113L67.6145 86.7817ZM77.0433 89.569L74.7712 97.2552L73.0944 96.7595L73.3671 95.8368C72.5627 96.4133 71.6471 96.5497 70.6201 96.2461C69.5343 95.9252 68.7354 95.2731 68.2234 94.2901C67.7114 93.307 67.6277 92.2324 67.9724 91.0664C68.3171 89.9004 68.9716 89.044 69.9358 88.4974C70.9 87.9507 71.925 87.8379 73.0108 88.1588C74.0378 88.4624 74.7313 89.0775 75.0914 90.004L75.3665 89.0733L77.0433 89.569ZM72.7442 89.7987C72.0435 89.5916 71.4115 89.6636 70.8482 90.0147C70.2865 90.3605 69.9029 90.881 69.6974 91.5763C69.4918 92.2717 69.53 92.9198 69.8118 93.5208C70.0952 94.1164 70.5872 94.5177 71.2879 94.7249C71.9726 94.9273 72.5976 94.859 73.1631 94.5202C73.7339 94.1829 74.1244 93.6586 74.3347 92.9472C74.545 92.2358 74.5023 91.5834 74.2066 90.99C73.9163 90.3982 73.4288 90.0011 72.7442 89.7987ZM82.5033 86.978L79.088 98.5313L77.4031 98.0332L80.8185 86.4799L82.5033 86.978Z" fill="black"/>
<path d="M36.0826 112.933C35.6748 112.812 35.4393 112.379 35.5598 111.971C35.6824 111.557 36.1135 111.328 36.5214 111.448C36.9359 111.571 37.1647 112.002 37.0441 112.41C36.9236 112.818 36.4904 113.053 36.0826 112.933ZM37.5669 113.371C37.159 113.251 36.9236 112.818 37.0441 112.41C37.1667 111.995 37.5978 111.767 38.0056 111.887C38.4202 112.01 38.649 112.441 38.5284 112.849C38.4078 113.257 37.9814 113.494 37.5669 113.371ZM39.0578 113.812C38.6433 113.69 38.4078 113.257 38.5284 112.849C38.6509 112.434 39.0821 112.205 39.4966 112.328C39.9045 112.448 40.1399 112.882 40.0194 113.289C39.8988 113.697 39.4657 113.933 39.0578 113.812ZM38.0056 111.887C37.5978 111.767 37.3623 111.333 37.4829 110.926C37.6054 110.511 38.0366 110.282 38.4444 110.403C38.859 110.525 39.0897 110.95 38.9672 111.364C38.8466 111.772 38.4202 112.01 38.0056 111.887ZM38.4444 110.403C38.0366 110.282 37.8011 109.849 37.9237 109.435C38.0442 109.027 38.4773 108.791 38.8852 108.912C39.2997 109.034 39.5285 109.466 39.4079 109.873C39.2854 110.288 38.859 110.525 38.4444 110.403ZM38.8852 108.912C38.4773 108.791 38.2399 108.365 38.3624 107.95C38.483 107.543 38.9161 107.307 39.324 107.428C39.7385 107.55 39.9673 107.981 39.8467 108.389C39.7242 108.804 39.2997 109.034 38.8852 108.912ZM39.324 107.428C38.9161 107.307 38.6806 106.874 38.8012 106.466C38.9218 106.058 39.3549 105.823 39.7627 105.943C40.1773 106.066 40.406 106.497 40.2855 106.905C40.1649 107.313 39.7385 107.55 39.324 107.428ZM38.2785 105.505C37.8706 105.384 37.6351 104.951 37.7557 104.543C37.8782 104.129 38.3094 103.9 38.7172 104.02C39.1318 104.143 39.3625 104.567 39.24 104.982C39.1194 105.39 38.6863 105.625 38.2785 105.505ZM39.7627 105.943C39.3549 105.823 39.1194 105.39 39.24 104.982C39.3625 104.567 39.7937 104.339 40.2015 104.459C40.616 104.582 40.8468 105.006 40.7243 105.421C40.6037 105.828 40.1773 106.066 39.7627 105.943ZM40.2015 104.459C39.7937 104.339 39.5582 103.905 39.6788 103.498C39.8013 103.083 40.2344 102.848 40.6423 102.968C41.0568 103.091 41.2856 103.522 41.163 103.936C41.0425 104.344 40.616 104.582 40.2015 104.459ZM43.5085 115.128C43.1006 115.007 42.8652 114.574 42.9857 114.166C43.1083 113.752 43.5394 113.523 43.9472 113.644C44.3618 113.766 44.5906 114.197 44.47 114.605C44.3494 115.013 43.923 115.25 43.5085 115.128ZM44.9994 115.569C44.5849 115.446 44.3494 115.013 44.47 114.605C44.5925 114.191 45.0237 113.962 45.4382 114.084C45.846 114.205 46.0815 114.638 45.961 115.046C45.8404 115.454 45.4073 115.689 44.9994 115.569ZM46.4837 116.007C46.0692 115.885 45.8404 115.454 45.961 115.046C46.0835 114.631 46.5079 114.401 46.9225 114.523C47.3303 114.644 47.5658 115.077 47.4452 115.485C47.3247 115.893 46.8915 116.128 46.4837 116.007ZM42.463 113.205C42.0551 113.084 41.8197 112.651 41.9402 112.243C42.0628 111.829 42.4939 111.6 42.9017 111.721C43.3163 111.843 43.547 112.268 43.4245 112.682C43.3039 113.09 42.8708 113.325 42.463 113.205ZM48.4068 114.962C47.9989 114.841 47.7634 114.408 47.884 114C48.0065 113.586 48.4377 113.357 48.8455 113.478C49.2534 113.598 49.4908 114.025 49.3683 114.439C49.2477 114.847 48.8146 115.082 48.4068 114.962ZM42.9017 111.721C42.4939 111.6 42.2584 111.167 42.381 110.752C42.5015 110.345 42.9347 110.109 43.3425 110.23C43.757 110.352 43.9858 110.783 43.8652 111.191C43.7427 111.606 43.3096 111.841 42.9017 111.721ZM48.8455 113.478C48.4377 113.357 48.2022 112.924 48.3248 112.509C48.4453 112.102 48.8784 111.866 49.2863 111.987C49.6941 112.107 49.9296 112.54 49.809 112.948C49.6865 113.363 49.2534 113.598 48.8455 113.478ZM44.8268 110.668C44.4189 110.548 44.1815 110.121 44.304 109.707C44.4246 109.299 44.8577 109.064 45.2655 109.184C45.6801 109.307 45.9089 109.738 45.7883 110.146C45.6658 110.56 45.2413 110.791 44.8268 110.668ZM46.3177 111.109C45.9032 110.987 45.6658 110.56 45.7883 110.146C45.9089 109.738 46.342 109.502 46.7565 109.625C47.1643 109.745 47.3998 110.179 47.2793 110.586C47.1567 111.001 46.7256 111.23 46.3177 111.109ZM47.802 111.548C47.3875 111.425 47.1567 111.001 47.2793 110.586C47.3998 110.179 47.8263 109.941 48.2408 110.064C48.6486 110.184 48.8841 110.617 48.7635 111.025C48.641 111.44 48.2098 111.668 47.802 111.548ZM43.7813 108.745C43.3734 108.625 43.138 108.192 43.2585 107.784C43.3791 107.376 43.8122 107.14 44.22 107.261C44.6346 107.384 44.8634 107.815 44.7428 108.223C44.6222 108.63 44.1891 108.866 43.7813 108.745ZM49.7251 110.502C49.3172 110.382 49.0817 109.949 49.2023 109.541C49.3229 109.133 49.756 108.898 50.1638 109.018C50.5717 109.139 50.8071 109.572 50.6866 109.98C50.566 110.387 50.1329 110.623 49.7251 110.502ZM44.22 107.261C43.8122 107.14 43.5767 106.707 43.6973 106.3C43.8198 105.885 44.251 105.656 44.6588 105.777C45.0733 105.899 45.3041 106.324 45.1816 106.738C45.061 107.146 44.6279 107.382 44.22 107.261ZM50.1638 109.018C49.756 108.898 49.5205 108.464 49.6411 108.057C49.7636 107.642 50.1948 107.413 50.6026 107.534C51.0104 107.654 51.2479 108.081 51.1254 108.495C51.0048 108.903 50.5717 109.139 50.1638 109.018ZM46.1431 106.216C45.7353 106.095 45.4998 105.662 45.6203 105.254C45.7429 104.839 46.176 104.604 46.5838 104.725C46.9984 104.847 47.2272 105.278 47.1046 105.693C46.9841 106.101 46.5576 106.338 46.1431 106.216ZM47.6341 106.656C47.2195 106.534 46.9841 106.101 47.1046 105.693C47.2272 105.278 47.6603 105.043 48.0748 105.165C48.4826 105.286 48.7181 105.719 48.5956 106.134C48.475 106.541 48.0419 106.777 47.6341 106.656ZM49.1183 107.095C48.7038 106.973 48.475 106.541 48.5956 106.134C48.7181 105.719 49.1446 105.482 49.5591 105.604C49.9669 105.725 50.2024 106.158 50.0799 106.572C49.9593 106.98 49.5262 107.216 49.1183 107.095ZM52.4143 117.761C52.0065 117.64 51.771 117.207 51.8916 116.799C52.0141 116.385 52.4453 116.156 52.8531 116.276C53.2676 116.399 53.4964 116.83 53.3759 117.238C53.2553 117.646 52.8289 117.883 52.4143 117.761ZM59.8424 119.956C59.4345 119.836 59.1991 119.403 59.3196 118.995C59.4422 118.58 59.8733 118.352 60.2812 118.472C60.6957 118.595 60.9312 119.028 60.8106 119.436C60.69 119.844 60.2569 120.079 59.8424 119.956ZM61.3333 120.397C60.9188 120.275 60.69 119.844 60.8106 119.436C60.9331 119.021 61.3576 118.79 61.7721 118.913C62.18 119.033 62.4154 119.467 62.2949 119.874C62.1743 120.282 61.7412 120.518 61.3333 120.397ZM54.3441 116.717C53.9295 116.595 53.6941 116.161 53.8146 115.754C53.9372 115.339 54.3683 115.11 54.7828 115.233C55.1907 115.353 55.4281 115.78 55.3056 116.194C55.185 116.602 54.7519 116.838 54.3441 116.717ZM58.7969 118.033C58.389 117.913 58.1536 117.48 58.2741 117.072C58.3967 116.657 58.8278 116.429 59.2357 116.549C59.6502 116.672 59.881 117.096 59.7584 117.511C59.6378 117.918 59.2114 118.156 58.7969 118.033ZM63.2564 119.352C62.8419 119.229 62.6131 118.798 62.7336 118.39C62.8562 117.976 63.2873 117.747 63.6952 117.867C64.103 117.988 64.3405 118.414 64.2179 118.829C64.0974 119.237 63.6642 119.472 63.2564 119.352ZM56.2671 115.672C55.8526 115.549 55.6238 115.118 55.7463 114.703C55.8669 114.296 56.2933 114.058 56.7079 114.181C57.1157 114.301 57.3512 114.734 57.2306 115.142C57.1081 115.557 56.675 115.792 56.2671 115.672ZM59.2357 116.549C58.8278 116.429 58.5923 115.995 58.7149 115.581C58.8355 115.173 59.2686 114.938 59.6764 115.058C60.0909 115.181 60.3197 115.612 60.1992 116.02C60.0766 116.434 59.6502 116.672 59.2357 116.549ZM63.6952 117.867C63.2806 117.745 63.0519 117.314 63.1744 116.899C63.295 116.491 63.7281 116.256 64.1359 116.376C64.5438 116.497 64.7792 116.93 64.6587 117.338C64.5361 117.753 64.103 117.988 63.6952 117.867ZM53.7326 113.301C53.3248 113.181 53.0873 112.754 53.2099 112.34C53.3304 111.932 53.7636 111.696 54.1714 111.817C54.5859 111.939 54.8147 112.37 54.6942 112.778C54.5716 113.193 54.1472 113.424 53.7326 113.301ZM55.2236 113.742C54.8091 113.619 54.5716 113.193 54.6942 112.778C54.8147 112.37 55.2478 112.135 55.6624 112.258C56.0702 112.378 56.3057 112.811 56.1851 113.219C56.0626 113.634 55.6314 113.862 55.2236 113.742ZM58.1921 114.619C57.7843 114.499 57.5468 114.072 57.6694 113.658C57.79 113.25 58.2231 113.015 58.6309 113.135C59.0388 113.256 59.2742 113.689 59.1537 114.097C59.0311 114.511 58.6 114.74 58.1921 114.619ZM61.1607 115.497C60.7528 115.376 60.5154 114.95 60.6379 114.535C60.7585 114.128 61.1916 113.892 61.5995 114.013C62.014 114.135 62.2495 114.568 62.1289 114.976C62.0064 115.391 61.5752 115.619 61.1607 115.497ZM62.6517 115.938C62.2371 115.815 62.0064 115.391 62.1289 114.976C62.2495 114.568 62.6759 114.331 63.0904 114.453C63.4983 114.574 63.7337 115.007 63.6132 115.415C63.4906 115.829 63.0595 116.058 62.6517 115.938ZM52.6871 111.378C52.2793 111.257 52.0438 110.824 52.1644 110.417C52.2849 110.009 52.7181 109.773 53.1259 109.894C53.5404 110.016 53.7692 110.447 53.6487 110.855C53.5281 111.263 53.095 111.499 52.6871 111.378ZM57.1466 112.696C56.7321 112.574 56.5033 112.143 56.6239 111.735C56.7445 111.327 57.1709 111.09 57.5854 111.212C57.9933 111.333 58.2287 111.766 58.1082 112.174C57.9876 112.581 57.5545 112.817 57.1466 112.696ZM60.1152 113.574C59.7073 113.453 59.4719 113.02 59.5924 112.612C59.713 112.205 60.1461 111.969 60.554 112.09C60.9685 112.212 61.1973 112.643 61.0767 113.051C60.9562 113.459 60.5297 113.696 60.1152 113.574ZM53.1259 109.894C52.7181 109.773 52.4826 109.34 52.6032 108.932C52.7257 108.518 53.1568 108.289 53.5647 108.409C53.9792 108.532 54.21 108.956 54.0874 109.371C53.9669 109.779 53.5337 110.014 53.1259 109.894ZM57.5854 111.212C57.1709 111.09 56.9421 110.658 57.0627 110.251C57.1852 109.836 57.6097 109.605 58.0242 109.728C58.432 109.848 58.6695 110.275 58.5469 110.689C58.4264 111.097 57.9933 111.333 57.5854 111.212ZM62.0382 112.528C61.6304 112.408 61.3949 111.975 61.5155 111.567C61.638 111.152 62.0692 110.924 62.477 111.044C62.8915 111.167 63.129 111.593 63.0065 112.008C62.8859 112.415 62.4528 112.651 62.0382 112.528ZM55.049 108.848C54.6411 108.728 54.4056 108.295 54.5262 107.887C54.6487 107.472 55.0819 107.237 55.4897 107.357C55.9042 107.48 56.133 107.911 56.0105 108.326C55.8899 108.733 55.4635 108.971 55.049 108.848ZM56.5399 109.289C56.1254 109.166 55.8899 108.733 56.0105 108.326C56.133 107.911 56.5661 107.676 56.9807 107.798C57.3885 107.919 57.624 108.352 57.5014 108.766C57.3809 109.174 56.9478 109.41 56.5399 109.289ZM63.968 111.485C63.5534 111.362 63.3247 110.931 63.4452 110.523C63.5678 110.109 63.9942 109.871 64.4087 109.994C64.8166 110.114 65.052 110.548 64.9295 110.962C64.8089 111.37 64.3758 111.605 63.968 111.485Z" fill="black"/>
</svg>
