<svg width="116" height="150" viewBox="0 0 116 150" fill="none" xmlns="http://www.w3.org/2000/svg">
<path d="M50.3415 20.7016C55.7799 19.6943 61.364 19.7739 66.7715 20.9358L67.5534 21.1042C70.8698 21.8168 74.0698 22.9875 77.0614 24.5818L77.6574 24.9058L79.0033 25.6555C84.3123 28.6126 88.6472 33.0496 91.4808 38.4255C93.9265 43.0654 95.1693 48.2447 95.0946 53.4893L94.4842 96.3101C94.4139 101.243 93.1957 106.093 90.9265 110.474C87.7639 116.58 82.7062 121.495 76.5125 124.483L73.8209 125.781C71.2922 127.001 68.6374 127.94 65.9042 128.582C60.3577 129.885 54.5907 129.94 49.0203 128.744L48.7146 128.678C44.343 127.738 40.1728 126.03 36.3985 123.632L35.4616 123.037L35.4606 123.037C30.8318 120.097 27.0001 116.06 24.3047 111.284C21.4039 106.144 19.9195 100.326 20.0035 94.4251L20.5977 52.7419C20.6781 47.1004 22.2548 41.5813 25.1669 36.7487L25.4878 36.2279C28.8533 30.878 33.7366 26.6454 39.5209 24.0751L40.8635 23.4779L41.3558 23.2642C43.8253 22.2101 46.4038 21.4311 49.045 20.9419L50.3415 20.7016Z" fill="#C4C4C4" stroke="#C4C4C4" stroke-width="40"/>
<ellipse cx="50.0328" cy="30.7749" rx="1.57292" ry="1.57295" transform="rotate(0.816619 50.0328 30.7749)" fill="black"/>
<ellipse cx="53.8335" cy="28.939" rx="1.57292" ry="1.57295" transform="rotate(0.816619 53.8335 28.939)" fill="black"/>
<ellipse cx="58.2457" cy="28.3726" rx="1.57292" ry="1.57295" transform="rotate(0.816619 58.2457 28.3726)" fill="black"/>
<ellipse cx="62.6402" cy="29.064" rx="1.57292" ry="1.57295" transform="rotate(0.816619 62.6402 29.064)" fill="black"/>
<ellipse cx="48.3062" cy="34.103" rx="1.57292" ry="1.57295" transform="rotate(0.816619 48.3062 34.103)" fill="black"/>
<ellipse cx="48.2496" cy="38.0874" rx="1.57292" ry="1.57295" transform="rotate(0.816619 48.2496 38.0874)" fill="black"/>
<ellipse cx="48.191" cy="42.0718" rx="1.57292" ry="1.57295" transform="rotate(0.816619 48.191 42.0718)" fill="black"/>
<ellipse cx="48.1343" cy="46.0561" rx="1.57292" ry="1.57295" transform="rotate(0.816619 48.1343 46.0561)" fill="black"/>
<ellipse cx="48.0777" cy="50.0405" rx="1.57292" ry="1.57295" transform="rotate(0.816619 48.0777 50.0405)" fill="black"/>
<ellipse cx="48.021" cy="54.0249" rx="1.57292" ry="1.57295" transform="rotate(0.816619 48.021 54.0249)" fill="black"/>
<ellipse cx="47.9644" cy="58.0132" rx="1.57292" ry="1.57295" transform="rotate(0.816619 47.9644 58.0132)" fill="black"/>
<ellipse cx="47.9078" cy="61.9936" rx="1.57292" ry="1.57295" transform="rotate(0.816619 47.9078 61.9936)" fill="black"/>
<ellipse cx="49.7398" cy="66.0054" rx="1.57292" ry="1.57295" transform="rotate(0.816619 49.7398 66.0054)" fill="black"/>
<ellipse cx="53.6929" cy="68.1577" rx="1.57292" ry="1.57295" transform="rotate(0.816619 53.6929 68.1577)" fill="black"/>
<ellipse cx="57.6675" cy="68.8452" rx="1.57292" ry="1.57295" transform="rotate(0.816619 57.6675 68.8452)" fill="black"/>
<ellipse cx="61.6617" cy="68.271" rx="1.57292" ry="1.57295" transform="rotate(0.816619 61.6617 68.271)" fill="black"/>
<ellipse cx="65.6753" cy="66.2319" rx="1.57292" ry="1.57295" transform="rotate(0.816619 65.6753 66.2319)" fill="black"/>
<ellipse cx="51.6226" cy="36.8765" rx="1.57292" ry="1.57295" transform="rotate(0.816619 51.6226 36.8765)" fill="black"/>
<ellipse cx="56.0074" cy="38.1968" rx="1.57292" ry="1.57295" transform="rotate(0.816619 56.0074 38.1968)" fill="black"/>
<path d="M61.9852 38.2822C61.9728 39.1508 61.2586 39.845 60.39 39.8326C59.5214 39.8202 58.8273 39.106 58.8397 38.2374C58.8521 37.3687 59.5662 36.6746 60.4349 36.687C61.3035 36.6994 61.9976 37.4136 61.9852 38.2822Z" fill="black"/>
<path d="M59.2995 42.7851C59.2872 43.6537 58.573 44.3478 57.7044 44.3355C56.8357 44.3231 56.1416 43.6089 56.154 42.7403C56.1664 41.8716 56.8806 41.1775 57.7492 41.1899C58.6178 41.2023 59.3119 41.9165 59.2995 42.7851Z" fill="black"/>
<path d="M61.7538 47.1796C61.7414 48.0482 61.0273 48.7424 60.1586 48.73C59.29 48.7176 58.5959 48.0034 58.6083 47.1348C58.6207 46.2661 59.3349 45.572 60.2035 45.5844C61.0721 45.5968 61.7662 46.311 61.7538 47.1796Z" fill="black"/>
<path d="M59.0222 51.3492C59.0098 52.2178 58.2957 52.912 57.427 52.8996C56.5584 52.8872 55.8643 52.173 55.8767 51.3044C55.8891 50.4358 56.6033 49.7416 57.4719 49.754C58.3405 49.7664 59.0346 50.4806 59.0222 51.3492Z" fill="black"/>
<path d="M61.5253 55.831C61.5129 56.6996 60.7987 57.3937 59.9301 57.3814C59.0615 57.369 58.3673 56.6548 58.3797 55.7862C58.3921 54.9175 59.1063 54.2234 59.9749 54.2358C60.8435 54.2482 61.5376 54.9624 61.5253 55.831Z" fill="black"/>
<path d="M58.9445 60.1575C58.9321 61.0262 58.2179 61.7203 57.3493 61.7079C56.4807 61.6955 55.7866 60.9813 55.7989 60.1127C55.8113 59.2441 56.5255 58.5499 57.3941 58.5623C58.2627 58.5747 58.9568 59.2889 58.9445 60.1575Z" fill="black"/>
<path d="M61.5423 64.809C61.5299 65.6776 60.8157 66.3718 59.9471 66.3594C59.0785 66.347 58.3844 65.6328 58.3968 64.7642C58.4091 63.8955 59.1233 63.2014 59.9919 63.2138C60.8605 63.2262 61.5547 63.9404 61.5423 64.809Z" fill="black"/>
<ellipse cx="64.8316" cy="37.2749" rx="1.57292" ry="1.57295" transform="rotate(0.816619 64.8316 37.2749)" fill="black"/>
<ellipse cx="68.0171" cy="34.3843" rx="1.57292" ry="1.57295" transform="rotate(0.816619 68.0171 34.3843)" fill="black"/>
<ellipse cx="67.9605" cy="38.3647" rx="1.57292" ry="1.57295" transform="rotate(0.816619 67.9605 38.3647)" fill="black"/>
<ellipse cx="67.9039" cy="42.353" rx="1.57292" ry="1.57295" transform="rotate(0.816619 67.9039 42.353)" fill="black"/>
<ellipse cx="67.8472" cy="46.3374" rx="1.57292" ry="1.57295" transform="rotate(0.816619 67.8472 46.3374)" fill="black"/>
<ellipse cx="67.7906" cy="50.3218" rx="1.57292" ry="1.57295" transform="rotate(0.816619 67.7906 50.3218)" fill="black"/>
<ellipse cx="67.7339" cy="54.3061" rx="1.57292" ry="1.57295" transform="rotate(0.816619 67.7339 54.3061)" fill="black"/>
<ellipse cx="67.6773" cy="58.2944" rx="1.57292" ry="1.57295" transform="rotate(0.816619 67.6773 58.2944)" fill="black"/>
<ellipse cx="67.6207" cy="62.2749" rx="1.57292" ry="1.57295" transform="rotate(0.816619 67.6207 62.2749)" fill="black"/>
<ellipse cx="66.3882" cy="31.0054" rx="1.57292" ry="1.57295" transform="rotate(0.816619 66.3882 31.0054)" fill="black"/>
<path d="M47.8836 81.5699L47.7167 93.2816L45.8261 93.2547L45.9635 83.6176L42.4209 92.0598L40.43 92.0314L37.1282 83.5837L36.9921 93.1287L35.1015 93.1018L35.2685 81.3901L38.1713 81.4315L41.4568 89.8455L44.9808 81.5286L47.8836 81.5699ZM54.214 85.1493C55.335 85.1653 56.2385 85.5686 56.9245 86.3593C57.6161 87.1445 57.9558 88.1618 57.9436 89.4111C57.9412 89.5784 57.927 89.7958 57.9008 90.0632L51.9781 89.9787C52.0798 90.6663 52.3458 91.1833 52.776 91.5297C53.2062 91.8705 53.7253 92.0452 54.3331 92.0539C55.1697 92.0658 55.9461 91.7952 56.6624 91.242L57.5147 92.5009C56.6228 93.2412 55.5187 93.602 54.2026 93.5832C52.9924 93.566 52.0108 93.1643 51.2578 92.3782C50.5103 91.5922 50.1456 90.569 50.1636 89.3086C50.1815 88.0538 50.564 87.044 51.3112 86.2793C52.0641 85.5091 53.0317 85.1324 54.214 85.1493ZM54.1584 86.7048C53.5561 86.6962 53.0711 86.8678 52.7035 87.2195C52.3416 87.5658 52.1089 88.0422 52.0054 88.6487L56.163 88.708C56.0771 88.082 55.8582 87.5936 55.5062 87.2428C55.1598 86.892 54.7105 86.7126 54.1584 86.7048ZM65.541 85.5199L65.5184 87.1093L62.4482 87.0656L62.3985 90.554C62.3912 91.0671 62.5029 91.448 62.7337 91.6967C62.9645 91.9399 63.2695 92.0641 63.6487 92.0695C64.1507 92.0767 64.6914 91.9031 65.271 91.5488L65.9454 92.9557C65.1515 93.4743 64.3279 93.7276 63.4747 93.7154C62.5489 93.7022 61.8415 93.4355 61.3524 92.9154C60.8634 92.3952 60.6264 91.6109 60.6413 90.5624L60.6915 87.0405L59.0937 87.0178L59.1163 85.4283L60.7142 85.4511L60.7487 83.0251L62.5055 83.0502L62.4709 85.4761L65.541 85.5199ZM75.3722 85.66L75.2579 93.6742L73.5096 93.6492L73.5233 92.6872C72.9042 93.4593 72.0593 93.8378 70.9886 93.8225C69.8564 93.8064 68.9112 93.394 68.153 92.5856C67.3947 91.7771 67.0243 90.765 67.0416 89.5492C67.0589 88.3334 67.4581 87.3322 68.2391 86.5457C69.0201 85.7591 69.9766 85.3739 71.1088 85.3901C72.1795 85.4053 73.0133 85.8105 73.61 86.6055L73.6238 85.6351L75.3722 85.66ZM71.2944 87.0411C70.5638 87.0307 69.9747 87.2705 69.527 87.7606C69.0795 88.245 68.8505 88.8498 68.8402 89.5748C68.8298 90.2998 69.0414 90.9136 69.4749 91.4163C69.9085 91.9133 70.4906 92.1671 71.2212 92.1775C71.935 92.1876 72.5185 91.9533 72.9716 91.4745C73.4302 90.9957 73.6649 90.3855 73.6754 89.6437C73.686 88.902 73.4689 88.2853 73.0241 87.7937C72.5848 87.3021 72.0083 87.0512 71.2944 87.0411ZM79.9307 81.692L79.759 93.7383L78.0022 93.7133L78.1739 81.667L79.9307 81.692Z" fill="black"/>
<path d="M42.2332 119.205C41.808 119.199 41.4644 118.845 41.4704 118.42C41.4766 117.988 41.83 117.651 42.2553 117.657C42.6875 117.663 43.0241 118.017 43.0181 118.442C43.012 118.867 42.6585 119.211 42.2332 119.205ZM43.7808 119.227C43.3556 119.221 43.012 118.867 43.0181 118.442C43.0242 118.01 43.3776 117.673 43.8029 117.679C44.2351 117.686 44.5717 118.039 44.5657 118.464C44.5596 118.889 44.213 119.233 43.7808 119.227ZM45.3354 119.249C44.9032 119.243 44.5596 118.889 44.5657 118.464C44.5718 118.032 44.9253 117.695 45.3575 117.702C45.7827 117.708 46.1263 118.061 46.1203 118.486C46.1142 118.912 45.7607 119.255 45.3354 119.249ZM43.8029 117.679C43.3776 117.673 43.0341 117.32 43.0401 116.895C43.0463 116.462 43.3997 116.126 43.8249 116.132C44.2572 116.138 44.5939 116.484 44.5877 116.917C44.5817 117.342 44.2351 117.686 43.8029 117.679ZM43.8249 116.132C43.3997 116.126 43.0561 115.772 43.0623 115.34C43.0683 114.915 43.4219 114.571 43.8471 114.577C44.2793 114.583 44.6159 114.937 44.6099 115.362C44.6037 115.794 44.2572 116.138 43.8249 116.132ZM43.8471 114.577C43.4219 114.571 43.0782 114.225 43.0843 113.792C43.0904 113.367 43.4439 113.023 43.8692 113.03C44.3014 113.036 44.638 113.389 44.6319 113.814C44.6258 114.247 44.2793 114.583 43.8471 114.577ZM43.8692 113.03C43.4439 113.023 43.1003 112.67 43.1064 112.245C43.1125 111.819 43.466 111.476 43.8912 111.482C44.3234 111.488 44.6601 111.842 44.654 112.267C44.6479 112.692 44.3014 113.036 43.8692 113.03ZM42.3436 111.46C41.9184 111.454 41.5748 111.1 41.5808 110.675C41.587 110.243 41.9404 109.906 42.3657 109.912C42.7979 109.918 43.1346 110.265 43.1284 110.697C43.1224 111.122 42.7689 111.466 42.3436 111.46ZM43.8912 111.482C43.466 111.476 43.1224 111.122 43.1284 110.697C43.1346 110.265 43.488 109.928 43.9133 109.934C44.3455 109.94 44.6822 110.287 44.6761 110.719C44.67 111.144 44.3234 111.488 43.8912 111.482ZM43.9133 109.934C43.488 109.928 43.1444 109.575 43.1505 109.149C43.1567 108.717 43.5102 108.374 43.9354 108.38C44.3677 108.386 44.7043 108.739 44.6981 109.172C44.6921 109.597 44.3455 109.94 43.9133 109.934ZM49.976 119.315C49.5507 119.309 49.2071 118.956 49.2132 118.53C49.2194 118.098 49.5728 117.762 49.998 117.768C50.4302 117.774 50.7669 118.127 50.7608 118.553C50.7547 118.978 50.4082 119.321 49.976 119.315ZM51.5306 119.337C51.0983 119.331 50.7547 118.978 50.7608 118.553C50.767 118.12 51.1204 117.784 51.5526 117.79C51.9779 117.796 52.3215 118.149 52.3154 118.575C52.3093 119 51.9558 119.344 51.5306 119.337ZM53.0782 119.359C52.646 119.353 52.3093 119 52.3154 118.575C52.3216 118.142 52.668 117.806 53.1002 117.812C53.5255 117.818 53.8691 118.171 53.863 118.597C53.8569 119.022 53.5034 119.366 53.0782 119.359ZM48.4504 117.746C48.0252 117.74 47.6816 117.386 47.6876 116.961C47.6938 116.529 48.0472 116.192 48.4725 116.198C48.9047 116.204 49.2414 116.551 49.2353 116.983C49.2292 117.408 48.8757 117.752 48.4504 117.746ZM54.6478 117.834C54.2226 117.828 53.879 117.474 53.8851 117.049C53.8912 116.617 54.2447 116.28 54.6699 116.286C55.0951 116.292 55.4388 116.639 55.4327 117.071C55.4266 117.496 55.0731 117.84 54.6478 117.834ZM48.4725 116.198C48.0472 116.192 47.7036 115.838 47.7098 115.406C47.7159 114.981 48.0694 114.637 48.4946 114.643C48.9269 114.65 49.2635 115.003 49.2574 115.428C49.2513 115.86 48.8977 116.204 48.4725 116.198ZM54.6699 116.286C54.2447 116.28 53.9011 115.927 53.9072 115.495C53.9133 115.069 54.2668 114.726 54.6921 114.732C55.1173 114.738 55.4609 115.091 55.4548 115.517C55.4487 115.949 55.0951 116.292 54.6699 116.286ZM50.0422 114.665C49.617 114.659 49.2733 114.313 49.2795 113.881C49.2855 113.455 49.6391 113.112 50.0643 113.118C50.4965 113.124 50.8331 113.477 50.8271 113.903C50.8209 114.335 50.4745 114.672 50.0422 114.665ZM51.5968 114.688C51.1646 114.681 50.8209 114.335 50.8271 113.903C50.8331 113.477 51.1867 113.134 51.6189 113.14C52.0441 113.146 52.3877 113.5 52.3817 113.925C52.3755 114.357 52.0221 114.694 51.5968 114.688ZM53.1444 114.71C52.7122 114.704 52.3755 114.357 52.3817 113.925C52.3877 113.5 52.7343 113.156 53.1665 113.162C53.5918 113.168 53.9353 113.522 53.9293 113.947C53.9231 114.379 53.5697 114.716 53.1444 114.71ZM48.5167 113.096C48.0914 113.09 47.7479 112.736 47.7539 112.311C47.76 111.886 48.1135 111.542 48.5388 111.548C48.971 111.554 49.3076 111.908 49.3015 112.333C49.2955 112.758 48.9419 113.102 48.5167 113.096ZM54.7141 113.184C54.2889 113.178 53.9453 112.825 53.9513 112.399C53.9574 111.974 54.3109 111.63 54.7362 111.637C55.1614 111.643 55.505 111.996 55.499 112.421C55.4929 112.847 55.1394 113.19 54.7141 113.184ZM48.5388 111.548C48.1135 111.542 47.7699 111.189 47.776 110.763C47.7821 110.331 48.1356 109.995 48.5608 110.001C48.993 110.007 49.3297 110.353 49.3236 110.785C49.3175 111.211 48.964 111.554 48.5388 111.548ZM54.7362 111.637C54.3109 111.63 53.9673 111.277 53.9734 110.852C53.9796 110.419 54.333 110.083 54.7582 110.089C55.1835 110.095 55.5272 110.442 55.521 110.874C55.515 111.299 55.1614 111.643 54.7362 111.637ZM50.1084 110.023C49.6832 110.017 49.3396 109.663 49.3456 109.238C49.3518 108.806 49.7053 108.462 50.1306 108.468C50.5628 108.474 50.8994 108.828 50.8933 109.26C50.8872 109.685 50.5406 110.029 50.1084 110.023ZM51.663 110.045C51.2308 110.039 50.8872 109.685 50.8933 109.26C50.8994 108.828 51.253 108.484 51.6852 108.49C52.1104 108.496 52.454 108.85 52.4478 109.282C52.4418 109.707 52.0883 110.051 51.663 110.045ZM53.2106 110.067C52.7784 110.061 52.4418 109.707 52.4478 109.282C52.454 108.85 52.8006 108.506 53.2328 108.512C53.658 108.518 54.0016 108.872 53.9955 109.304C53.9894 109.729 53.6359 110.073 53.2106 110.067ZM59.2619 119.448C58.8366 119.442 58.493 119.088 58.4991 118.663C58.5053 118.231 58.8587 117.894 59.2839 117.9C59.7162 117.906 60.0528 118.26 60.0467 118.685C60.0406 119.11 59.6941 119.454 59.2619 119.448ZM67.0069 119.558C66.5817 119.552 66.2381 119.198 66.2441 118.773C66.2503 118.341 66.6037 118.004 67.029 118.01C67.4612 118.017 67.8048 118.37 67.7987 118.795C67.7927 119.221 67.4391 119.564 67.0069 119.558ZM68.5615 119.58C68.1293 119.574 67.7927 119.221 67.7987 118.795C67.8049 118.363 68.1513 118.026 68.5836 118.033C69.0088 118.039 69.3524 118.392 69.3463 118.817C69.3403 119.243 68.9867 119.586 68.5615 119.58ZM60.8385 117.922C60.4063 117.916 60.0627 117.562 60.0688 117.137C60.0749 116.705 60.4284 116.368 60.8606 116.375C61.2858 116.381 61.6295 116.727 61.6234 117.159C61.6173 117.585 61.2638 117.928 60.8385 117.922ZM65.4814 117.988C65.0561 117.982 64.7125 117.629 64.7186 117.204C64.7247 116.771 65.0782 116.435 65.5034 116.441C65.9356 116.447 66.2724 116.793 66.2662 117.226C66.2601 117.651 65.9136 117.995 65.4814 117.988ZM70.1312 118.055C69.699 118.048 69.3623 117.695 69.3684 117.27C69.3746 116.838 69.728 116.501 70.1532 116.507C70.5785 116.513 70.9222 116.86 70.916 117.292C70.91 117.717 70.5564 118.061 70.1312 118.055ZM62.4082 116.397C61.976 116.39 61.6394 116.037 61.6455 115.605C61.6516 115.18 61.9981 114.836 62.4304 114.842C62.8556 114.848 63.1992 115.202 63.1931 115.627C63.187 116.059 62.8334 116.403 62.4082 116.397ZM65.5034 116.441C65.0782 116.435 64.7346 116.081 64.7407 115.649C64.7468 115.224 65.1003 114.88 65.5256 114.886C65.9578 114.892 66.2944 115.246 66.2884 115.671C66.2822 116.103 65.9356 116.447 65.5034 116.441ZM70.1532 116.507C69.721 116.501 69.3844 116.147 69.3906 115.715C69.3966 115.29 69.7501 114.946 70.1754 114.952C70.6006 114.958 70.9442 115.312 70.9382 115.737C70.932 116.169 70.5785 116.513 70.1532 116.507ZM59.3282 114.798C58.9029 114.792 58.5592 114.445 58.5654 114.013C58.5714 113.588 58.925 113.244 59.3502 113.25C59.7824 113.256 60.119 113.61 60.113 114.035C60.1068 114.467 59.7604 114.804 59.3282 114.798ZM60.8827 114.82C60.4505 114.814 60.1068 114.467 60.113 114.035C60.119 113.61 60.4726 113.266 60.9048 113.272C61.33 113.278 61.6736 113.632 61.6676 114.057C61.6614 114.489 61.308 114.826 60.8827 114.82ZM63.978 114.864C63.5527 114.858 63.209 114.511 63.2152 114.079C63.2212 113.654 63.5748 113.31 64 113.316C64.4253 113.323 64.7689 113.676 64.7628 114.101C64.7566 114.534 64.4032 114.87 63.978 114.864ZM67.0732 114.908C66.6479 114.902 66.3043 114.556 66.3104 114.123C66.3165 113.698 66.67 113.355 67.0953 113.361C67.5275 113.367 67.8711 113.72 67.865 114.146C67.8588 114.578 67.5054 114.914 67.0732 114.908ZM68.6278 114.93C68.1956 114.924 67.8588 114.578 67.865 114.146C67.8711 113.72 68.2176 113.377 68.6498 113.383C69.0751 113.389 69.4187 113.742 69.4126 114.168C69.4065 114.6 69.053 114.936 68.6278 114.93ZM57.8026 113.228C57.3774 113.222 57.0338 112.869 57.0398 112.443C57.0459 112.018 57.3994 111.674 57.8247 111.681C58.2569 111.687 58.5935 112.04 58.5874 112.465C58.5814 112.891 58.2278 113.234 57.8026 113.228ZM62.4524 113.294C62.0202 113.288 61.6836 112.935 61.6896 112.51C61.6957 112.084 62.0423 111.741 62.4745 111.747C62.8997 111.753 63.2433 112.106 63.2372 112.532C63.2312 112.957 62.8777 113.3 62.4524 113.294ZM65.5476 113.339C65.1224 113.332 64.7788 112.979 64.7849 112.554C64.7909 112.128 65.1445 111.785 65.5697 111.791C66.0019 111.797 66.3385 112.151 66.3325 112.576C66.3264 113.001 65.9799 113.345 65.5476 113.339ZM57.8247 111.681C57.3994 111.674 57.0558 111.321 57.0619 110.896C57.068 110.463 57.4215 110.127 57.8467 110.133C58.2789 110.139 58.6157 110.486 58.6095 110.918C58.6034 111.343 58.2499 111.687 57.8247 111.681ZM62.4745 111.747C62.0423 111.741 61.7056 111.387 61.7117 110.962C61.7179 110.53 62.0643 110.193 62.4965 110.199C62.9218 110.205 63.2655 110.552 63.2593 110.984C63.2532 111.409 62.8997 111.753 62.4745 111.747ZM67.1173 111.813C66.6921 111.807 66.3485 111.453 66.3545 111.028C66.3607 110.596 66.7141 110.259 67.1394 110.265C67.5716 110.272 67.9153 110.618 67.9091 111.05C67.9031 111.476 67.5495 111.819 67.1173 111.813ZM59.3943 110.155C58.9691 110.149 58.6255 109.795 58.6316 109.37C58.6377 108.938 58.9912 108.594 59.4165 108.6C59.8487 108.607 60.1853 108.96 60.1792 109.392C60.1731 109.817 59.8265 110.161 59.3943 110.155ZM60.9489 110.177C60.5167 110.171 60.1731 109.817 60.1792 109.392C60.1853 108.96 60.5389 108.616 60.9711 108.623C61.3963 108.629 61.7399 108.982 61.7338 109.414C61.7277 109.84 61.3742 110.183 60.9489 110.177ZM68.694 110.288C68.2617 110.281 67.9251 109.928 67.9312 109.503C67.9373 109.07 68.2839 108.727 68.7161 108.733C69.1414 108.739 69.485 109.093 69.4788 109.525C69.4727 109.95 69.1192 110.294 68.694 110.288Z" fill="black"/>
</svg>
