<svg width="148" height="196" viewBox="0 0 148 196" fill="none" xmlns="http://www.w3.org/2000/svg">
<path d="M117.891 16.313C124.486 19.2439 127.457 26.9661 124.526 33.5611L117.682 48.9605C116.659 51.2645 116.966 53.9429 118.485 55.9547L123.935 63.1683C125.406 65.1153 126.302 67.4352 126.522 69.8654L127.632 82.1172C127.833 84.3352 127.465 86.5679 126.56 88.6031L84.0826 184.186C81.1516 190.781 73.4297 193.751 66.8349 190.82L10.8328 165.932C4.23797 163.001 1.26735 155.28 4.19784 148.685L46.6755 53.1019C47.58 51.0668 48.99 49.2969 50.771 47.9597L60.6087 40.5732C62.56 39.1081 64.8825 38.2185 67.3133 38.0054L76.3192 37.2158C78.8308 36.9955 81.0247 35.4286 82.0486 33.1246L88.8922 17.7252C91.823 11.1303 99.5453 8.15995 106.14 11.0907L117.891 16.313Z" fill="#C9DCD9" stroke="#C9DCD9" stroke-width="6.13458" stroke-linejoin="round"/>
<ellipse cx="92.9237" cy="57.4026" rx="2.09252" ry="2.09252" transform="rotate(23.9606 92.9237 57.4026)" fill="black"/>
<ellipse cx="88.4648" cy="55.4221" rx="2.09252" ry="2.09252" transform="rotate(23.9606 88.4648 55.4221)" fill="black"/>
<ellipse cx="86.4823" cy="59.8792" rx="2.09252" ry="2.09252" transform="rotate(23.9606 86.4823 59.8792)" fill="black"/>
<ellipse cx="84.4999" cy="64.344" rx="2.09252" ry="2.09252" transform="rotate(23.9606 84.4999 64.344)" fill="black"/>
<ellipse cx="88.9589" cy="66.3245" rx="2.09252" ry="2.09252" transform="rotate(23.9606 88.9589 66.3245)" fill="black"/>
<ellipse cx="79.121" cy="65.0081" rx="2.09252" ry="2.09252" transform="rotate(23.9606 79.121 65.0081)" fill="black"/>
<ellipse cx="74.8319" cy="68.4417" rx="2.09252" ry="2.09252" transform="rotate(23.9606 74.8319 68.4417)" fill="black"/>
<ellipse cx="72.5644" cy="73.5432" rx="2.09252" ry="2.09252" transform="rotate(23.9606 72.5644 73.5432)" fill="black"/>
<circle cx="80.211" cy="77.9474" r="1.05807" transform="rotate(23.9606 80.211 77.9474)" fill="black"/>
<circle cx="79.0665" cy="80.5255" r="1.05807" transform="rotate(23.9606 79.0665 80.5255)" fill="black"/>
<circle cx="77.92" cy="83.1036" r="1.05807" transform="rotate(23.9606 77.92 83.1036)" fill="black"/>
<circle cx="80.4981" cy="84.2481" r="1.05807" transform="rotate(23.9606 80.4981 84.2481)" fill="black"/>
<circle cx="83.0763" cy="85.3927" r="1.05807" transform="rotate(23.9606 83.0763 85.3927)" fill="black"/>
<circle cx="76.7735" cy="85.6817" r="1.05807" transform="rotate(23.9606 76.7735 85.6817)" fill="black"/>
<circle cx="75.629" cy="88.2599" r="1.05807" transform="rotate(23.9606 75.629 88.2599)" fill="black"/>
<circle cx="82.7911" cy="79.0919" r="1.05807" transform="rotate(23.9606 82.7911 79.0919)" fill="black"/>
<circle cx="85.3692" cy="80.2364" r="1.05807" transform="rotate(23.9606 85.3692 80.2364)" fill="black"/>
<circle cx="86.1563" cy="83.6739" r="1.05807" transform="rotate(23.9606 86.1563 83.6739)" fill="black"/>
<ellipse cx="70.5819" cy="78.0042" rx="2.09252" ry="2.09252" transform="rotate(23.9606 70.5819 78.0042)" fill="black"/>
<ellipse cx="68.5995" cy="82.4651" rx="2.09252" ry="2.09252" transform="rotate(23.9606 68.5995 82.4651)" fill="black"/>
<ellipse cx="66.6171" cy="86.926" rx="2.09252" ry="2.09252" transform="rotate(23.9606 66.6171 86.926)" fill="black"/>
<ellipse cx="64.3495" cy="92.0276" rx="2.09252" ry="2.09252" transform="rotate(23.9606 64.3495 92.0276)" fill="black"/>
<ellipse cx="62.3671" cy="96.4925" rx="2.09252" ry="2.09252" transform="rotate(23.9606 62.3671 96.4925)" fill="black"/>
<ellipse cx="60.3847" cy="100.953" rx="2.09252" ry="2.09252" transform="rotate(23.9606 60.3847 100.953)" fill="black"/>
<ellipse cx="64.8476" cy="102.938" rx="2.09252" ry="2.09252" transform="rotate(23.9606 64.8476 102.938)" fill="black"/>
<ellipse cx="69.3065" cy="104.918" rx="2.09252" ry="2.09252" transform="rotate(23.9606 69.3065 104.918)" fill="black"/>
<ellipse cx="73.7694" cy="106.903" rx="2.09252" ry="2.09252" transform="rotate(23.9606 73.7694 106.903)" fill="black"/>
<ellipse cx="78.4062" cy="108.961" rx="2.09252" ry="2.09252" transform="rotate(23.9606 78.4062 108.961)" fill="black"/>
<ellipse cx="82.869" cy="110.946" rx="2.09252" ry="2.09252" transform="rotate(23.9606 82.869 110.946)" fill="black"/>
<ellipse cx="97.3866" cy="59.387" rx="2.09252" ry="2.09252" transform="rotate(23.9606 97.3866 59.387)" fill="black"/>
<ellipse cx="95.4042" cy="63.844" rx="2.09252" ry="2.09252" transform="rotate(23.9606 95.4042 63.844)" fill="black"/>
<ellipse cx="93.4218" cy="68.3089" rx="2.09252" ry="2.09252" transform="rotate(23.9606 93.4218 68.3089)" fill="black"/>
<ellipse cx="96.748" cy="72.844" rx="2.09252" ry="2.09252" transform="rotate(23.9606 96.748 72.844)" fill="black"/>
<ellipse cx="97.3183" cy="78.4339" rx="2.09252" ry="2.09252" transform="rotate(23.9606 97.3183 78.4339)" fill="black"/>
<ellipse cx="95.0507" cy="83.5354" rx="2.09252" ry="2.09252" transform="rotate(23.9606 95.0507 83.5354)" fill="black"/>
<ellipse cx="93.0683" cy="87.9964" rx="2.09252" ry="2.09252" transform="rotate(23.9606 93.0683 87.9964)" fill="black"/>
<ellipse cx="91.0839" cy="92.4573" rx="2.09252" ry="2.09252" transform="rotate(23.9606 91.0839 92.4573)" fill="black"/>
<ellipse cx="89.1034" cy="96.9182" rx="2.09252" ry="2.09252" transform="rotate(23.9606 89.1034 96.9182)" fill="black"/>
<ellipse cx="86.8358" cy="102.02" rx="2.09252" ry="2.09252" transform="rotate(23.9606 86.8358 102.02)" fill="black"/>
<ellipse cx="84.8515" cy="106.485" rx="2.09252" ry="2.09252" transform="rotate(23.9606 84.8515 106.485)" fill="black"/>
<path d="M52.273 120.679L49.4805 119.438L47.3274 124.283L45.3365 123.399L50.8173 111.066L55.6006 113.191C57.0042 113.815 57.9344 114.626 58.3912 115.624C58.8539 116.624 58.8255 117.708 58.3062 118.877C57.7868 120.046 57.0009 120.794 55.9484 121.121C54.9017 121.45 53.6766 121.303 52.273 120.679ZM54.7139 115.044L51.9743 113.827L50.3144 117.562L53.054 118.779C53.8586 119.137 54.5196 119.248 55.0371 119.112C55.5545 118.976 55.9542 118.591 56.236 117.957C56.5179 117.323 56.5358 116.768 56.2898 116.293C56.0438 115.818 55.5185 115.402 54.7139 115.044ZM66.8258 130.712L65.9959 132.58L57.0018 128.583L62.4825 116.25L71.3622 120.196L70.5322 122.064L63.6434 119.002L62.1676 122.323L68.8185 125.279L67.9885 127.146L61.3376 124.191L59.8226 127.6L66.8258 130.712ZM83.1249 125.423L82.2871 127.309L78.2965 125.535L73.6535 135.983L71.6627 135.098L76.3057 124.65L72.3151 122.877L73.1529 120.992L83.1249 125.423Z" fill="black"/>
<path d="M34.7625 147.152C34.3147 146.953 34.1108 146.423 34.3098 145.975C34.5121 145.52 35.039 145.323 35.4868 145.522C35.9419 145.725 36.1385 146.252 35.9395 146.699C35.7405 147.147 35.2103 147.351 34.7625 147.152ZM36.3922 147.876C35.9444 147.677 35.7405 147.147 35.9395 146.699C36.1417 146.244 36.6687 146.048 37.1164 146.247C37.5716 146.449 37.7682 146.976 37.5692 147.424C37.3702 147.871 36.8473 148.079 36.3922 147.876ZM38.0292 148.604C37.5741 148.402 37.3702 147.871 37.5692 147.424C37.7714 146.968 38.2983 146.772 38.7535 146.974C39.2013 147.173 39.4052 147.703 39.2062 148.151C39.0072 148.599 38.477 148.803 38.0292 148.604ZM39.6589 149.328C39.2038 149.126 39.0072 148.599 39.2062 148.151C39.4085 147.696 39.928 147.496 40.3832 147.698C40.831 147.897 41.0349 148.428 40.8359 148.875C40.6369 149.323 40.1067 149.527 39.6589 149.328ZM41.2886 150.052C40.8408 149.853 40.6369 149.323 40.8359 148.875C41.0382 148.42 41.5651 148.224 42.0129 148.423C42.4607 148.622 42.6646 149.152 42.4656 149.6C42.2666 150.047 41.7364 150.251 41.2886 150.052ZM37.1164 146.247C36.6687 146.048 36.4647 145.517 36.6637 145.07C36.866 144.615 37.3929 144.418 37.8407 144.617C38.2958 144.819 38.4957 145.339 38.2934 145.794C38.0944 146.242 37.5716 146.449 37.1164 146.247ZM39.4777 145.344C39.0226 145.142 38.8187 144.612 39.0209 144.157C39.2199 143.709 39.7501 143.505 40.2052 143.707C40.653 143.906 40.857 144.437 40.658 144.884C40.4557 145.34 39.9255 145.543 39.4777 145.344ZM41.8349 144.432C41.3798 144.229 41.1799 143.71 41.3822 143.255C41.5812 142.807 42.104 142.6 42.5592 142.802C43.007 143.001 43.2109 143.531 43.0119 143.979C42.8096 144.434 42.2827 144.631 41.8349 144.432ZM44.1889 143.526C43.7411 143.327 43.5371 142.797 43.7361 142.349C43.9352 141.901 44.4653 141.698 44.9131 141.897C45.3609 142.096 45.5648 142.626 45.3658 143.073C45.1668 143.521 44.6367 143.725 44.1889 143.526ZM38.387 138.996C37.9392 138.797 37.7353 138.267 37.9343 137.819C38.1365 137.364 38.6634 137.168 39.1112 137.367C39.5664 137.569 39.7662 138.088 39.564 138.544C39.365 138.991 38.8348 139.195 38.387 138.996ZM44.9131 141.897C44.4653 141.698 44.2614 141.167 44.4604 140.72C44.6627 140.264 45.1896 140.068 45.6374 140.267C46.0852 140.466 46.2924 140.989 46.0901 141.444C45.8911 141.892 45.3609 142.096 44.9131 141.897ZM40.7409 138.091C40.2931 137.892 40.0892 137.362 40.2882 136.914C40.4905 136.459 41.0206 136.255 41.4684 136.454C41.9236 136.656 42.1202 137.183 41.9179 137.638C41.7189 138.086 41.1961 138.293 40.7409 138.091ZM42.378 138.818C41.9228 138.616 41.7189 138.086 41.9179 137.638C42.1202 137.183 42.6503 136.979 43.1055 137.181C43.5533 137.38 43.7572 137.91 43.5549 138.366C43.3559 138.813 42.8258 139.017 42.378 138.818ZM44.0077 139.543C43.5525 139.34 43.3559 138.813 43.5549 138.366C43.7572 137.91 44.28 137.703 44.7352 137.906C45.183 138.105 45.3869 138.635 45.1846 139.09C44.9856 139.538 44.4555 139.742 44.0077 139.543ZM44.5409 151.498C44.0931 151.299 43.8892 150.768 44.0882 150.321C44.2904 149.866 44.8174 149.669 45.2652 149.868C45.7203 150.07 45.9169 150.597 45.7179 151.045C45.5189 151.493 44.9887 151.697 44.5409 151.498ZM46.1706 152.222C45.7228 152.023 45.5189 151.493 45.7179 151.045C45.9201 150.59 46.447 150.393 46.8948 150.592C47.35 150.794 47.5466 151.321 47.3476 151.769C47.1486 152.217 46.6257 152.424 46.1706 152.222ZM47.8076 152.949C47.3525 152.747 47.1486 152.217 47.3476 151.769C47.5498 151.314 48.0767 151.117 48.5319 151.32C48.9797 151.519 49.1836 152.049 48.9846 152.497C48.7856 152.944 48.2554 153.148 47.8076 152.949ZM46.8948 150.592C46.447 150.393 46.2431 149.863 46.4421 149.415C46.6444 148.96 47.1713 148.764 47.6191 148.963C48.0742 149.165 48.2741 149.684 48.0718 150.139C47.8728 150.587 47.35 150.794 46.8948 150.592ZM47.6191 148.963C47.1713 148.764 46.9674 148.233 47.1696 147.778C47.3686 147.33 47.8988 147.126 48.3466 147.325C48.8017 147.528 48.9983 148.055 48.7993 148.502C48.5971 148.958 48.0742 149.165 47.6191 148.963ZM48.3466 147.325C47.8988 147.126 47.6916 146.604 47.8939 146.149C48.0929 145.701 48.623 145.497 49.0708 145.696C49.526 145.898 49.7226 146.425 49.5236 146.873C49.3213 147.328 48.8017 147.528 48.3466 147.325ZM49.0708 145.696C48.623 145.497 48.4191 144.967 48.6181 144.519C48.8171 144.071 49.3473 143.867 49.7951 144.066C50.2502 144.268 50.4468 144.795 50.2478 145.243C50.0488 145.691 49.526 145.898 49.0708 145.696ZM48.1654 143.342C47.7176 143.143 47.5137 142.613 47.7127 142.165C47.9149 141.71 48.4418 141.513 48.8896 141.712C49.3448 141.914 49.5446 142.434 49.3424 142.889C49.1434 143.337 48.6132 143.541 48.1654 143.342ZM49.7951 144.066C49.3473 143.867 49.1434 143.337 49.3424 142.889C49.5446 142.434 50.0715 142.237 50.5193 142.436C50.9745 142.639 51.1743 143.158 50.9721 143.613C50.7731 144.061 50.2502 144.268 49.7951 144.066ZM50.5193 142.436C50.0715 142.237 49.8676 141.707 50.0666 141.259C50.2689 140.804 50.799 140.6 51.2468 140.799C51.702 141.002 51.8986 141.529 51.6963 141.984C51.4973 142.431 50.9745 142.639 50.5193 142.436ZM52.6943 155.121C52.2465 154.922 52.0426 154.392 52.2416 153.944C52.4439 153.489 52.9708 153.292 53.4186 153.491C53.8737 153.694 54.0703 154.221 53.8713 154.668C53.6723 155.116 53.1495 155.323 52.6943 155.121ZM60.8501 158.746C60.4023 158.547 60.1984 158.016 60.3974 157.569C60.5997 157.113 61.1266 156.917 61.5744 157.116C62.0295 157.318 62.2334 157.848 62.0344 158.296C61.8354 158.744 61.3053 158.948 60.8501 158.746ZM62.4872 159.473C62.032 159.271 61.8354 158.744 62.0344 158.296C62.2367 157.841 62.7563 157.641 63.2114 157.843C63.6592 158.042 63.8631 158.573 63.6641 159.02C63.4651 159.468 62.935 159.672 62.4872 159.473ZM55.0556 154.219C54.6005 154.017 54.3965 153.486 54.5955 153.039C54.7978 152.584 55.3247 152.387 55.7798 152.589C56.2276 152.788 56.4348 153.311 56.2326 153.766C56.0336 154.214 55.5034 154.418 55.0556 154.219ZM59.9447 156.392C59.4969 156.193 59.2929 155.662 59.492 155.215C59.6942 154.76 60.2211 154.563 60.6689 154.762C61.1241 154.964 61.3239 155.484 61.1216 155.939C60.9226 156.387 60.3998 156.594 59.9447 156.392ZM64.8411 158.568C64.386 158.365 64.1894 157.838 64.3884 157.391C64.5906 156.936 65.1175 156.739 65.5653 156.938C66.0131 157.137 66.2203 157.66 66.0181 158.115C65.8191 158.563 65.2889 158.767 64.8411 158.568ZM57.4095 153.313C56.9544 153.111 56.7578 152.584 56.9601 152.129C57.1591 151.681 57.6819 151.474 58.137 151.676C58.5848 151.875 58.7888 152.406 58.5898 152.853C58.3875 153.309 57.8573 153.512 57.4095 153.313ZM60.6689 154.762C60.2211 154.563 60.0172 154.033 60.2195 153.578C60.4185 153.13 60.9486 152.926 61.3964 153.125C61.8516 153.327 62.0482 153.854 61.8492 154.302C61.6469 154.757 61.1241 154.964 60.6689 154.762ZM65.5653 156.938C65.1102 156.736 64.9136 156.209 65.1159 155.754C65.3149 155.306 65.8451 155.102 66.2929 155.301C66.7407 155.5 66.9446 156.03 66.7456 156.478C66.5433 156.933 66.0131 157.137 65.5653 156.938ZM54.8703 150.225C54.4225 150.026 54.2153 149.503 54.4176 149.048C54.6166 148.6 55.1468 148.396 55.5946 148.595C56.0497 148.797 56.2463 149.324 56.0473 149.772C55.845 150.227 55.3254 150.427 54.8703 150.225ZM56.5073 150.952C56.0522 150.75 55.845 150.227 56.0473 149.772C56.2463 149.324 56.7764 149.12 57.2316 149.322C57.6794 149.521 57.8833 150.052 57.6843 150.499C57.482 150.955 56.9551 151.151 56.5073 150.952ZM59.7667 152.401C59.3189 152.202 59.1117 151.679 59.314 151.224C59.513 150.776 60.0432 150.572 60.491 150.771C60.9388 150.97 61.1427 151.5 60.9437 151.948C60.7414 152.403 60.2145 152.6 59.7667 152.401ZM63.0261 153.849C62.5783 153.65 62.3711 153.127 62.5734 152.672C62.7724 152.224 63.3026 152.02 63.7504 152.219C64.2055 152.422 64.4094 152.952 64.2104 153.4C64.0082 153.855 63.4813 154.051 63.0261 153.849ZM64.6632 154.577C64.208 154.374 64.0082 153.855 64.2104 153.4C64.4094 152.952 64.9323 152.745 65.3874 152.947C65.8352 153.146 66.0391 153.676 65.8401 154.124C65.6379 154.579 65.111 154.776 64.6632 154.577ZM53.9649 147.871C53.5171 147.672 53.3131 147.142 53.5121 146.694C53.7111 146.246 54.2413 146.042 54.6891 146.241C55.1442 146.443 55.3408 146.97 55.1418 147.418C54.9428 147.866 54.4127 148.07 53.9649 147.871ZM58.8613 150.047C58.4061 149.844 58.2096 149.318 58.4086 148.87C58.6076 148.422 59.1304 148.215 59.5855 148.417C60.0333 148.616 60.2373 149.146 60.0383 149.594C59.8392 150.042 59.3091 150.246 58.8613 150.047ZM62.1207 151.495C61.6729 151.296 61.4689 150.766 61.6679 150.318C61.867 149.87 62.3971 149.667 62.8449 149.866C63.3001 150.068 63.4966 150.595 63.2976 151.042C63.0986 151.49 62.5758 151.697 62.1207 151.495ZM54.6891 146.241C54.2413 146.042 54.0374 145.512 54.2364 145.064C54.4386 144.609 54.9655 144.412 55.4133 144.611C55.8685 144.814 56.0683 145.333 55.8661 145.788C55.6671 146.236 55.1369 146.44 54.6891 146.241ZM59.5855 148.417C59.1304 148.215 58.9338 147.688 59.1328 147.24C59.3351 146.785 59.8546 146.585 60.3098 146.787C60.7576 146.986 60.9648 147.509 60.7625 147.964C60.5635 148.412 60.0333 148.616 59.5855 148.417ZM64.4746 150.59C64.0268 150.391 63.8229 149.861 64.0219 149.413C64.2242 148.958 64.7511 148.761 65.1989 148.96C65.654 149.162 65.8612 149.685 65.6589 150.14C65.4599 150.588 64.9298 150.792 64.4746 150.59ZM57.043 145.336C56.5952 145.137 56.3913 144.606 56.5903 144.159C56.7926 143.703 57.3228 143.5 57.7705 143.699C58.2257 143.901 58.4223 144.428 58.22 144.883C58.021 145.331 57.4982 145.538 57.043 145.336ZM58.6801 146.063C58.2249 145.861 58.021 145.331 58.22 144.883C58.4223 144.428 58.9524 144.224 59.4076 144.426C59.8554 144.625 60.0593 145.155 59.857 145.61C59.658 146.058 59.1279 146.262 58.6801 146.063ZM66.8359 149.688C66.3808 149.485 66.1842 148.958 66.3832 148.511C66.5854 148.055 67.1083 147.848 67.5634 148.051C68.0112 148.25 68.2151 148.78 68.0129 149.235C67.8139 149.683 67.2837 149.887 66.8359 149.688Z" fill="black"/>
</svg>
