<svg width="94" height="187" viewBox="0 0 94 187" fill="none" xmlns="http://www.w3.org/2000/svg">
<path d="M53.2061 3.06543C60.4229 3.06547 66.2734 8.91597 66.2734 16.1328V32.9844C66.2734 35.5056 67.6419 37.8285 69.8477 39.0498L77.7568 43.4287C79.8916 44.6106 81.6526 46.3667 82.8408 48.498L88.8311 59.2432C89.9155 61.1884 90.4853 63.3784 90.4854 65.6055V170.202C90.4851 177.419 84.6347 183.269 77.418 183.269H16.1348C8.91807 183.269 3.06765 177.419 3.06738 170.202V65.6055C3.06746 63.3784 3.63725 61.1884 4.72168 59.2432L10.7119 48.498C11.9001 46.3667 13.6611 44.6106 15.7959 43.4287L23.7051 39.0498C25.9108 37.8285 27.2793 35.5057 27.2793 32.9844V16.1328C27.2793 8.91599 33.1299 3.06549 40.3467 3.06543H53.2061Z" fill="#C9DCD9" stroke="#C9DCD9" stroke-width="6.13458" stroke-linejoin="round"/>
<ellipse cx="47.0788" cy="50.7527" rx="2.09252" ry="2.09252" fill="black"/>
<ellipse cx="42.198" cy="50.7527" rx="2.09252" ry="2.09252" fill="black"/>
<ellipse cx="42.198" cy="55.6316" rx="2.09252" ry="2.09252" fill="black"/>
<ellipse cx="42.198" cy="60.5144" rx="2.09252" ry="2.09252" fill="black"/>
<ellipse cx="47.0788" cy="60.5144" rx="2.09252" ry="2.09252" fill="black"/>
<ellipse cx="37.5535" cy="63.3113" rx="2.09252" ry="2.09252" fill="black"/>
<ellipse cx="35.0281" cy="68.1863" rx="2.09252" ry="2.09252" fill="black"/>
<ellipse cx="35.0281" cy="73.7683" rx="2.09252" ry="2.09252" fill="black"/>
<circle cx="43.8042" cy="74.687" r="1.05807" fill="black"/>
<circle cx="43.8042" cy="77.5112" r="1.05807" fill="black"/>
<circle cx="43.8042" cy="80.3315" r="1.05807" fill="black"/>
<circle cx="46.6264" cy="80.3315" r="1.05807" fill="black"/>
<circle cx="49.4487" cy="80.3315" r="1.05807" fill="black"/>
<circle cx="43.8042" cy="83.1518" r="1.05807" fill="black"/>
<circle cx="43.8042" cy="85.976" r="1.05807" fill="black"/>
<circle cx="46.6264" cy="74.687" r="1.05807" fill="black"/>
<circle cx="49.4487" cy="74.687" r="1.05807" fill="black"/>
<circle cx="51.5639" cy="77.5112" r="1.05807" fill="black"/>
<ellipse cx="35.0281" cy="78.6511" rx="2.09252" ry="2.09252" fill="black"/>
<ellipse cx="35.0281" cy="83.5339" rx="2.09252" ry="2.09252" fill="black"/>
<ellipse cx="35.0281" cy="88.4128" rx="2.09252" ry="2.09252" fill="black"/>
<ellipse cx="35.0281" cy="93.9988" rx="2.09252" ry="2.09252" fill="black"/>
<ellipse cx="35.0281" cy="98.8816" rx="2.09252" ry="2.09252" fill="black"/>
<ellipse cx="35.0281" cy="103.764" rx="2.09252" ry="2.09252" fill="black"/>
<ellipse cx="39.9148" cy="103.764" rx="2.09252" ry="2.09252" fill="black"/>
<ellipse cx="44.7937" cy="103.764" rx="2.09252" ry="2.09252" fill="black"/>
<ellipse cx="49.6765" cy="103.764" rx="2.09252" ry="2.09252" fill="black"/>
<ellipse cx="54.7507" cy="103.764" rx="2.09252" ry="2.09252" fill="black"/>
<ellipse cx="59.6335" cy="103.764" rx="2.09252" ry="2.09252" fill="black"/>
<ellipse cx="51.9617" cy="50.7527" rx="2.09252" ry="2.09252" fill="black"/>
<ellipse cx="51.9617" cy="55.6316" rx="2.09252" ry="2.09252" fill="black"/>
<ellipse cx="51.9617" cy="60.5144" rx="2.09252" ry="2.09252" fill="black"/>
<ellipse cx="56.8425" cy="63.3113" rx="2.09252" ry="2.09252" fill="black"/>
<ellipse cx="59.6335" cy="68.1863" rx="2.09252" ry="2.09252" fill="black"/>
<ellipse cx="59.6335" cy="73.7683" rx="2.09252" ry="2.09252" fill="black"/>
<ellipse cx="59.6335" cy="78.6511" rx="2.09252" ry="2.09252" fill="black"/>
<ellipse cx="59.6335" cy="83.5339" rx="2.09252" ry="2.09252" fill="black"/>
<ellipse cx="59.6335" cy="88.4128" rx="2.09252" ry="2.09252" fill="black"/>
<ellipse cx="59.6335" cy="93.9988" rx="2.09252" ry="2.09252" fill="black"/>
<ellipse cx="59.6335" cy="98.8816" rx="2.09252" ry="2.09252" fill="black"/>
<path d="M35.6267 125.081H32.5708V130.383H30.3922V116.887H35.6267C37.1626 116.887 38.3419 117.25 39.1645 117.976C39.9935 118.702 40.408 119.705 40.408 120.984C40.408 122.263 39.9935 123.265 39.1645 123.992C38.3419 124.718 37.1626 125.081 35.6267 125.081ZM35.5688 118.94H32.5708V123.028H35.5688C36.4493 123.028 37.0983 122.86 37.5161 122.526C37.9338 122.192 38.1427 121.678 38.1427 120.984C38.1427 120.29 37.9338 119.776 37.5161 119.442C37.0983 119.107 36.4493 118.94 35.5688 118.94ZM52.9998 128.339V130.383H43.1575V116.887H52.8745V118.931H45.3361V122.565H52.6142V124.609H45.3361V128.339H52.9998ZM65.7465 116.887V118.95H61.3796V130.383H59.201V118.95H54.8341V116.887H65.7465Z" fill="black"/>
<path d="M30.3759 156.383C29.8859 156.383 29.4842 155.981 29.4842 155.491C29.4842 154.993 29.8859 154.599 30.3759 154.599C30.8739 154.599 31.2676 155.001 31.2676 155.491C31.2676 155.981 30.8659 156.383 30.3759 156.383ZM32.1593 156.383C31.6692 156.383 31.2676 155.981 31.2676 155.491C31.2676 154.993 31.6692 154.599 32.1593 154.599C32.6573 154.599 33.051 155.001 33.051 155.491C33.051 155.981 32.6573 156.383 32.1593 156.383ZM33.9507 156.383C33.4526 156.383 33.051 155.981 33.051 155.491C33.051 154.993 33.4526 154.599 33.9507 154.599C34.4407 154.599 34.8424 155.001 34.8424 155.491C34.8424 155.981 34.4407 156.383 33.9507 156.383ZM35.7341 156.383C35.236 156.383 34.8424 155.981 34.8424 155.491C34.8424 154.993 35.236 154.599 35.7341 154.599C36.2241 154.599 36.6257 155.001 36.6257 155.491C36.6257 155.981 36.2241 156.383 35.7341 156.383ZM37.5174 156.383C37.0274 156.383 36.6257 155.981 36.6257 155.491C36.6257 154.993 37.0274 154.599 37.5174 154.599C38.0075 154.599 38.4091 155.001 38.4091 155.491C38.4091 155.981 38.0075 156.383 37.5174 156.383ZM32.1593 154.599C31.6692 154.599 31.2676 154.198 31.2676 153.708C31.2676 153.21 31.6692 152.816 32.1593 152.816C32.6573 152.816 33.051 153.21 33.051 153.708C33.051 154.198 32.6573 154.599 32.1593 154.599ZM33.9507 152.816C33.4526 152.816 33.051 152.414 33.051 151.916C33.051 151.426 33.4526 151.025 33.9507 151.025C34.4407 151.025 34.8424 151.426 34.8424 151.916C34.8424 152.414 34.4407 152.816 33.9507 152.816ZM35.7341 151.025C35.236 151.025 34.8424 150.631 34.8424 150.133C34.8424 149.643 35.236 149.241 35.7341 149.241C36.2241 149.241 36.6257 149.643 36.6257 150.133C36.6257 150.631 36.2241 151.025 35.7341 151.025ZM37.5174 149.241C37.0274 149.241 36.6257 148.84 36.6257 148.35C36.6257 147.86 37.0274 147.458 37.5174 147.458C38.0075 147.458 38.4091 147.86 38.4091 148.35C38.4091 148.84 38.0075 149.241 37.5174 149.241ZM30.3759 147.458C29.8859 147.458 29.4842 147.056 29.4842 146.566C29.4842 146.068 29.8859 145.675 30.3759 145.675C30.8739 145.675 31.2676 146.068 31.2676 146.566C31.2676 147.056 30.8659 147.458 30.3759 147.458ZM37.5174 147.458C37.0274 147.458 36.6257 147.056 36.6257 146.566C36.6257 146.068 37.0274 145.675 37.5174 145.675C38.0075 145.675 38.4091 146.068 38.4091 146.566C38.4091 147.056 38.0075 147.458 37.5174 147.458ZM32.1593 145.675C31.6692 145.675 31.2676 145.273 31.2676 144.783C31.2676 144.285 31.6692 143.883 32.1593 143.883C32.6573 143.883 33.051 144.285 33.051 144.783C33.051 145.273 32.6573 145.675 32.1593 145.675ZM33.9507 145.675C33.4526 145.675 33.051 145.273 33.051 144.783C33.051 144.285 33.4526 143.883 33.9507 143.883C34.4407 143.883 34.8424 144.285 34.8424 144.783C34.8424 145.273 34.4407 145.675 33.9507 145.675ZM35.7341 145.675C35.236 145.675 34.8424 145.273 34.8424 144.783C34.8424 144.285 35.236 143.883 35.7341 143.883C36.2241 143.883 36.6257 144.285 36.6257 144.783C36.6257 145.273 36.2241 145.675 35.7341 145.675ZM41.0764 156.383C40.5864 156.383 40.1847 155.981 40.1847 155.491C40.1847 154.993 40.5864 154.599 41.0764 154.599C41.5745 154.599 41.9681 155.001 41.9681 155.491C41.9681 155.981 41.5664 156.383 41.0764 156.383ZM42.8598 156.383C42.3698 156.383 41.9681 155.981 41.9681 155.491C41.9681 154.993 42.3698 154.599 42.8598 154.599C43.3578 154.599 43.7515 155.001 43.7515 155.491C43.7515 155.981 43.3578 156.383 42.8598 156.383ZM44.6512 156.383C44.1531 156.383 43.7515 155.981 43.7515 155.491C43.7515 154.993 44.1531 154.599 44.6512 154.599C45.1412 154.599 45.5429 155.001 45.5429 155.491C45.5429 155.981 45.1412 156.383 44.6512 156.383ZM42.8598 154.599C42.3698 154.599 41.9681 154.198 41.9681 153.708C41.9681 153.21 42.3698 152.816 42.8598 152.816C43.3578 152.816 43.7515 153.21 43.7515 153.708C43.7515 154.198 43.3578 154.599 42.8598 154.599ZM42.8598 152.816C42.3698 152.816 41.9681 152.414 41.9681 151.916C41.9681 151.426 42.3698 151.025 42.8598 151.025C43.3578 151.025 43.7515 151.426 43.7515 151.916C43.7515 152.414 43.3578 152.816 42.8598 152.816ZM42.8598 151.025C42.3698 151.025 41.9681 150.631 41.9681 150.133C41.9681 149.643 42.3698 149.241 42.8598 149.241C43.3578 149.241 43.7515 149.643 43.7515 150.133C43.7515 150.631 43.3578 151.025 42.8598 151.025ZM42.8598 149.241C42.3698 149.241 41.9681 148.84 41.9681 148.35C41.9681 147.86 42.3698 147.458 42.8598 147.458C43.3578 147.458 43.7515 147.86 43.7515 148.35C43.7515 148.84 43.3578 149.241 42.8598 149.241ZM41.0764 147.458C40.5864 147.458 40.1847 147.056 40.1847 146.566C40.1847 146.068 40.5864 145.675 41.0764 145.675C41.5745 145.675 41.9681 146.068 41.9681 146.566C41.9681 147.056 41.5664 147.458 41.0764 147.458ZM42.8598 147.458C42.3698 147.458 41.9681 147.056 41.9681 146.566C41.9681 146.068 42.3698 145.675 42.8598 145.675C43.3578 145.675 43.7515 146.068 43.7515 146.566C43.7515 147.056 43.3578 147.458 42.8598 147.458ZM42.8598 145.675C42.3698 145.675 41.9681 145.273 41.9681 144.783C41.9681 144.285 42.3698 143.883 42.8598 143.883C43.3578 143.883 43.7515 144.285 43.7515 144.783C43.7515 145.273 43.3578 145.675 42.8598 145.675ZM49.9987 156.383C49.5087 156.383 49.107 155.981 49.107 155.491C49.107 154.993 49.5087 154.599 49.9987 154.599C50.4967 154.599 50.8904 155.001 50.8904 155.491C50.8904 155.981 50.4967 156.383 49.9987 156.383ZM58.9236 156.383C58.4336 156.383 58.0319 155.981 58.0319 155.491C58.0319 154.993 58.4336 154.599 58.9236 154.599C59.4217 154.599 59.8233 155.001 59.8233 155.491C59.8233 155.981 59.4217 156.383 58.9236 156.383ZM60.715 156.383C60.217 156.383 59.8233 155.981 59.8233 155.491C59.8233 154.993 60.217 154.599 60.715 154.599C61.205 154.599 61.6067 155.001 61.6067 155.491C61.6067 155.981 61.205 156.383 60.715 156.383ZM51.7901 154.599C51.292 154.599 50.8904 154.198 50.8904 153.708C50.8904 153.21 51.292 152.816 51.7901 152.816C52.2801 152.816 52.6818 153.21 52.6818 153.708C52.6818 154.198 52.2801 154.599 51.7901 154.599ZM57.1402 154.599C56.6502 154.599 56.2485 154.198 56.2485 153.708C56.2485 153.21 56.6502 152.816 57.1402 152.816C57.6383 152.816 58.0319 153.21 58.0319 153.708C58.0319 154.198 57.6383 154.599 57.1402 154.599ZM62.4984 154.599C62.0003 154.599 61.6067 154.198 61.6067 153.708C61.6067 153.21 62.0084 152.816 62.4984 152.816C62.9884 152.816 63.3901 153.21 63.3901 153.708C63.3901 154.198 62.9884 154.599 62.4984 154.599ZM53.5735 152.816C53.0754 152.816 52.6818 152.414 52.6818 151.916C52.6818 151.426 53.0754 151.025 53.5735 151.025C54.0635 151.025 54.4652 151.426 54.4652 151.916C54.4652 152.414 54.0635 152.816 53.5735 152.816ZM57.1402 152.816C56.6502 152.816 56.2485 152.414 56.2485 151.916C56.2485 151.426 56.6502 151.025 57.1402 151.025C57.6383 151.025 58.0319 151.426 58.0319 151.916C58.0319 152.414 57.6383 152.816 57.1402 152.816ZM62.4984 152.816C62.0003 152.816 61.6067 152.414 61.6067 151.916C61.6067 151.426 62.0084 151.025 62.4984 151.025C62.9884 151.025 63.3901 151.426 63.3901 151.916C63.3901 152.414 62.9884 152.816 62.4984 152.816ZM49.9987 151.025C49.5087 151.025 49.107 150.631 49.107 150.133C49.107 149.643 49.5087 149.241 49.9987 149.241C50.4967 149.241 50.8904 149.643 50.8904 150.133C50.8904 150.631 50.4967 151.025 49.9987 151.025ZM51.7901 151.025C51.292 151.025 50.8904 150.631 50.8904 150.133C50.8904 149.643 51.292 149.241 51.7901 149.241C52.2801 149.241 52.6818 149.643 52.6818 150.133C52.6818 150.631 52.2801 151.025 51.7901 151.025ZM55.3568 151.025C54.8668 151.025 54.4652 150.631 54.4652 150.133C54.4652 149.643 54.8668 149.241 55.3568 149.241C55.8469 149.241 56.2485 149.643 56.2485 150.133C56.2485 150.631 55.8469 151.025 55.3568 151.025ZM58.9236 151.025C58.4336 151.025 58.0319 150.631 58.0319 150.133C58.0319 149.643 58.4336 149.241 58.9236 149.241C59.4217 149.241 59.8233 149.643 59.8233 150.133C59.8233 150.631 59.4217 151.025 58.9236 151.025ZM60.715 151.025C60.217 151.025 59.8233 150.631 59.8233 150.133C59.8233 149.643 60.217 149.241 60.715 149.241C61.205 149.241 61.6067 149.643 61.6067 150.133C61.6067 150.631 61.205 151.025 60.715 151.025ZM48.2153 149.241C47.7253 149.241 47.3236 148.84 47.3236 148.35C47.3236 147.86 47.7253 147.458 48.2153 147.458C48.7134 147.458 49.107 147.86 49.107 148.35C49.107 148.84 48.7053 149.241 48.2153 149.241ZM53.5735 149.241C53.0754 149.241 52.6818 148.84 52.6818 148.35C52.6818 147.86 53.0754 147.458 53.5735 147.458C54.0635 147.458 54.4652 147.86 54.4652 148.35C54.4652 148.84 54.0635 149.241 53.5735 149.241ZM57.1402 149.241C56.6502 149.241 56.2485 148.84 56.2485 148.35C56.2485 147.86 56.6502 147.458 57.1402 147.458C57.6383 147.458 58.0319 147.86 58.0319 148.35C58.0319 148.84 57.6383 149.241 57.1402 149.241ZM48.2153 147.458C47.7253 147.458 47.3236 147.056 47.3236 146.566C47.3236 146.068 47.7253 145.675 48.2153 145.675C48.7134 145.675 49.107 146.068 49.107 146.566C49.107 147.056 48.7053 147.458 48.2153 147.458ZM53.5735 147.458C53.0754 147.458 52.6818 147.056 52.6818 146.566C52.6818 146.068 53.0754 145.675 53.5735 145.675C54.0635 145.675 54.4652 146.068 54.4652 146.566C54.4652 147.056 54.0635 147.458 53.5735 147.458ZM58.9236 147.458C58.4336 147.458 58.0319 147.056 58.0319 146.566C58.0319 146.068 58.4336 145.675 58.9236 145.675C59.4217 145.675 59.8233 146.068 59.8233 146.566C59.8233 147.056 59.4217 147.458 58.9236 147.458ZM49.9987 145.675C49.5087 145.675 49.107 145.273 49.107 144.783C49.107 144.285 49.5087 143.883 49.9987 143.883C50.4967 143.883 50.8904 144.285 50.8904 144.783C50.8904 145.273 50.4967 145.675 49.9987 145.675ZM51.7901 145.675C51.292 145.675 50.8904 145.273 50.8904 144.783C50.8904 144.285 51.292 143.883 51.7901 143.883C52.2801 143.883 52.6818 144.285 52.6818 144.783C52.6818 145.273 52.2801 145.675 51.7901 145.675ZM60.715 145.675C60.217 145.675 59.8233 145.273 59.8233 144.783C59.8233 144.285 60.217 143.883 60.715 143.883C61.205 143.883 61.6067 144.285 61.6067 144.783C61.6067 145.273 61.205 145.675 60.715 145.675Z" fill="black"/>
</svg>
