<svg width="157" height="285" viewBox="0 0 157 285" fill="none" xmlns="http://www.w3.org/2000/svg">
<path d="M69.7913 4.71398C80.5589 3.58264 90.2056 11.394 91.3369 22.1616L93.9814 47.3307C94.3765 51.091 96.7817 54.3408 100.263 55.8165L112.763 61.1155C116.133 62.5442 119.036 64.8879 121.143 67.8813L131.773 82.986C133.696 85.7184 134.889 88.8975 135.238 92.2204L151.644 248.362C152.775 259.129 144.964 268.776 134.196 269.908L42.6996 279.521C31.9322 280.652 22.2865 272.841 21.155 262.073L4.74914 105.931C4.4 102.608 4.90552 99.2504 6.21853 96.178L13.4776 79.1937C14.9163 75.8277 17.2686 72.9319 20.2682 70.8338L31.3939 63.0525C34.4924 60.8855 36.1696 57.2068 35.7745 53.4465L33.13 28.2774C31.9987 17.5098 39.8111 7.86399 50.5787 6.73264L69.7913 4.71398Z" fill="#7DA9A2" stroke="#7DA9A2" stroke-width="9.20755" stroke-linejoin="round"/>
<circle cx="69.0979" cy="91.8216" r="2.6962" transform="rotate(-5.99804 69.0979 91.8216)" fill="black"/>
<circle cx="62.844" cy="92.4817" r="2.6962" transform="rotate(-5.99804 62.844 92.4817)" fill="black"/>
<circle cx="63.5003" cy="98.7356" r="2.6962" transform="rotate(-5.99804 63.5003 98.7356)" fill="black"/>
<circle cx="64.1585" cy="104.99" r="2.6962" transform="rotate(-5.99804 64.1585 104.99)" fill="black"/>
<circle cx="70.4124" cy="104.341" r="2.6962" transform="rotate(-5.99804 70.4124 104.341)" fill="black"/>
<circle cx="58.5823" cy="109.193" r="2.6962" transform="rotate(-5.99804 58.5823 109.193)" fill="black"/>
<circle cx="56.0042" cy="115.79" r="2.6962" transform="rotate(-5.99804 56.0042 115.79)" fill="black"/>
<circle cx="56.7561" cy="122.935" r="2.6962" transform="rotate(-5.99804 56.7561 122.935)" fill="black"/>
<circle cx="63.0159" cy="122.283" r="2.6962" transform="rotate(-5.99804 63.0159 122.283)" fill="black"/>
<circle cx="69.2698" cy="121.618" r="2.6962" transform="rotate(-5.99804 69.2698 121.618)" fill="black"/>
<circle cx="75.5257" cy="120.97" r="2.6962" transform="rotate(-5.99804 75.5257 120.97)" fill="black"/>
<circle cx="82.0276" cy="120.286" r="2.6962" transform="rotate(-5.99804 82.0276 120.286)" fill="black"/>
<circle cx="57.4143" cy="129.204" r="2.6962" transform="rotate(-5.99804 57.4143 129.204)" fill="black"/>
<circle cx="58.0706" cy="135.454" r="2.6962" transform="rotate(-5.99804 58.0706 135.454)" fill="black"/>
<circle cx="64.3284" cy="134.798" r="2.6962" transform="rotate(-5.99804 64.3284 134.798)" fill="black"/>
<circle cx="70.5862" cy="134.138" r="2.6962" transform="rotate(-5.99804 70.5862 134.138)" fill="black"/>
<circle cx="76.8421" cy="133.482" r="2.6962" transform="rotate(-5.99804 76.8421 133.482)" fill="black"/>
<circle cx="83.344" cy="132.794" r="2.6962" transform="rotate(-5.99804 83.344 132.794)" fill="black"/>
<circle cx="65.7386" cy="148.2" r="2.6962" transform="rotate(-5.99804 65.7386 148.2)" fill="black"/>
<circle cx="71.9944" cy="147.544" r="2.6962" transform="rotate(-5.99804 71.9944 147.544)" fill="black"/>
<circle cx="78.2483" cy="146.892" r="2.6962" transform="rotate(-5.99804 78.2483 146.892)" fill="black"/>
<circle cx="84.7542" cy="146.208" r="2.6962" transform="rotate(-5.99804 84.7542 146.208)" fill="black"/>
<circle cx="58.7288" cy="141.712" r="2.6962" transform="rotate(-5.99804 58.7288 141.712)" fill="black"/>
<circle cx="59.4827" cy="148.857" r="2.6962" transform="rotate(-5.99804 59.4827 148.857)" fill="black"/>
<circle cx="60.137" cy="155.115" r="2.6962" transform="rotate(-5.99804 60.137 155.115)" fill="black"/>
<circle cx="60.7952" cy="161.372" r="2.6962" transform="rotate(-5.99804 60.7952 161.372)" fill="black"/>
<circle cx="67.055" cy="160.72" r="2.6962" transform="rotate(-5.99804 67.055 160.72)" fill="black"/>
<circle cx="73.3089" cy="160.056" r="2.6962" transform="rotate(-5.99804 73.3089 160.056)" fill="black"/>
<circle cx="79.5628" cy="159.4" r="2.6962" transform="rotate(-5.99804 79.5628 159.4)" fill="black"/>
<circle cx="86.0647" cy="158.724" r="2.6962" transform="rotate(-5.99804 86.0647 158.724)" fill="black"/>
<circle cx="92.3284" cy="158.06" r="2.6962" transform="rotate(-5.99804 92.3284 158.06)" fill="black"/>
<circle cx="75.3558" cy="91.1614" r="2.6962" transform="rotate(-5.99804 75.3558 91.1614)" fill="black"/>
<circle cx="76.012" cy="97.4192" r="2.6962" transform="rotate(-5.99804 76.012 97.4192)" fill="black"/>
<circle cx="76.6702" cy="103.681" r="2.6962" transform="rotate(-5.99804 76.6702 103.681)" fill="black"/>
<circle cx="83.303" cy="106.595" r="2.6962" transform="rotate(-5.99804 83.303 106.595)" fill="black"/>
<circle cx="87.5354" cy="112.478" r="2.6962" transform="rotate(-5.99804 87.5354 112.478)" fill="black"/>
<circle cx="88.2874" cy="119.626" r="2.6962" transform="rotate(-5.99804 88.2874 119.626)" fill="black"/>
<circle cx="88.9436" cy="125.884" r="2.6962" transform="rotate(-5.99804 88.9436 125.884)" fill="black"/>
<circle cx="89.6019" cy="132.138" r="2.6962" transform="rotate(-5.99804 89.6019 132.138)" fill="black"/>
<circle cx="90.2601" cy="138.4" r="2.6962" transform="rotate(-5.99804 90.2601 138.4)" fill="black"/>
<circle cx="91.0101" cy="145.552" r="2.6962" transform="rotate(-5.99804 91.0101 145.552)" fill="black"/>
<circle cx="91.6683" cy="151.806" r="2.6962" transform="rotate(-5.99804 91.6683 151.806)" fill="black"/>
<path d="M54.8694 189.803L51.8303 190.123L52.3843 195.396L50.2176 195.623L48.8074 182.201L54.0132 181.654C55.5407 181.494 56.7515 181.732 57.6455 182.368C58.5459 183.004 59.0629 183.957 59.1965 185.229C59.3301 186.501 59.0227 187.541 58.2741 188.35C57.5318 189.158 56.397 189.643 54.8694 189.803ZM54.1702 183.702L51.1886 184.016L51.6157 188.081L54.5973 187.767C55.473 187.675 56.101 187.441 56.4815 187.065C56.8621 186.689 57.0161 186.156 56.9435 185.466C56.871 184.776 56.6096 184.286 56.1592 183.997C55.7088 183.709 55.0459 183.61 54.1702 183.702ZM63.2266 180.298L64.6771 194.104L62.6638 194.315L61.2133 180.51L63.2266 180.298ZM75.6682 183.663L76.6332 192.848L74.6295 193.058L74.5137 191.956C73.9111 192.924 72.9962 193.472 71.769 193.601C70.4716 193.737 69.3338 193.395 68.3558 192.574C67.3777 191.752 66.8155 190.645 66.6691 189.252C66.5227 187.858 66.8425 186.658 67.6285 185.652C68.4145 184.645 69.4562 184.074 70.7536 183.937C71.9808 183.808 72.99 184.158 73.7814 184.986L73.6645 183.874L75.6682 183.663ZM71.1918 185.801C70.3545 185.889 69.7133 186.244 69.2681 186.866C68.8223 187.481 68.643 188.204 68.7303 189.035C68.8176 189.866 69.1436 190.539 69.7083 191.055C70.2723 191.565 70.973 191.775 71.8102 191.687C72.6283 191.601 73.2638 191.253 73.7167 190.644C74.176 190.033 74.361 189.303 74.2717 188.453C74.1824 187.603 73.8496 186.927 73.2735 186.425C72.7038 185.923 72.0099 185.715 71.1918 185.801ZM86.0045 183.324L85.3058 184.977C84.9584 184.807 84.5142 184.669 83.9733 184.564C83.4388 184.459 82.9095 184.434 82.3854 184.489C81.8486 184.545 81.4339 184.689 81.1416 184.92C80.8556 185.15 80.7301 185.432 80.765 185.764C80.7811 185.918 80.8304 186.048 80.9128 186.156C81.0009 186.256 81.1221 186.334 81.2765 186.389C81.4373 186.443 81.5996 186.481 81.7634 186.503C81.9336 186.523 82.139 186.541 82.3795 186.554L83.3437 186.598C85.5043 186.681 86.6635 187.474 86.8213 188.976C86.916 189.877 86.6215 190.642 85.9378 191.269C85.2542 191.897 84.2604 192.279 82.9566 192.416C81.3907 192.58 80.036 192.325 78.8924 191.651L79.6642 190.048C80.5481 190.588 81.5909 190.795 82.7924 190.669C83.4699 190.598 83.9772 190.444 84.3143 190.209C84.6514 189.973 84.8015 189.679 84.7646 189.328C84.7088 188.797 84.1428 188.514 83.0663 188.479L82.0945 188.455C81.0635 188.421 80.2589 188.205 79.6808 187.807C79.1019 187.403 78.7736 186.83 78.6957 186.088C78.6003 185.181 78.8638 184.429 79.4863 183.834C80.1144 183.232 81.0133 182.869 82.1829 182.746C83.6657 182.59 84.9396 182.783 86.0045 183.324ZM94.7731 181.656L94.9645 183.477L91.446 183.847L91.8661 187.845C91.9278 188.433 92.1077 188.853 92.4057 189.106C92.703 189.353 93.069 189.454 93.5036 189.408C94.0788 189.348 94.6738 189.075 95.2884 188.59L96.2524 190.108C95.415 190.81 94.5074 191.212 93.5295 191.315C92.4685 191.426 91.6227 191.218 90.9921 190.69C90.3615 190.161 89.9831 189.296 89.8568 188.095L89.4327 184.059L87.6016 184.251L87.4102 182.43L89.2413 182.237L88.9492 179.457L90.9625 179.245L91.2546 182.026L94.7731 181.656ZM99.233 181.187L100.198 190.372L98.1848 190.583L97.2198 181.399L99.233 181.187ZM96.7806 177.219C97.0201 176.916 97.338 176.743 97.7343 176.702C98.1306 176.66 98.4806 176.762 98.7843 177.008C99.088 177.254 99.2606 177.575 99.3023 177.972C99.3439 178.368 99.2414 178.715 98.9948 179.012C98.7482 179.309 98.4267 179.479 98.0305 179.52C97.6342 179.562 97.2877 179.463 96.9911 179.223C96.6944 178.982 96.5253 178.664 96.4837 178.268C96.442 177.872 96.541 177.522 96.7806 177.219ZM106.514 180.18C107.211 180.107 107.87 180.164 108.49 180.35C109.111 180.537 109.648 180.849 110.101 181.286L108.96 182.792C108.222 182.23 107.454 181.991 106.655 182.075C105.875 182.157 105.256 182.5 104.796 183.104C104.342 183.707 104.161 184.44 104.251 185.303C104.342 186.166 104.672 186.845 105.241 187.341C105.816 187.836 106.494 188.043 107.274 187.961C108.092 187.875 108.809 187.477 109.426 186.766L110.808 188.016C110.067 189.083 108.974 189.692 107.53 189.844C106.085 189.996 104.871 189.661 103.886 188.84C102.902 188.02 102.336 186.913 102.19 185.52C102.044 184.126 102.367 182.926 103.159 181.919C103.951 180.911 105.07 180.332 106.514 180.18Z" fill="black"/>
<path d="M68.1551 224.908C67.6678 224.959 67.2263 224.602 67.1751 224.114C67.1231 223.619 67.4814 223.185 67.9688 223.134C68.4641 223.082 68.8976 223.441 68.9488 223.928C69 224.415 68.6505 224.856 68.1551 224.908ZM69.9367 224.721C69.4414 224.773 69 224.415 68.9488 223.928C68.8967 223.433 69.255 222.999 69.7504 222.947C70.2377 222.896 70.6792 223.253 70.7304 223.741C70.7816 224.228 70.4241 224.669 69.9367 224.721ZM71.7103 224.534C71.215 224.586 70.7816 224.228 70.7304 223.741C70.6783 223.245 71.0287 222.813 71.524 222.761C72.0113 222.709 72.4528 223.067 72.504 223.554C72.5552 224.042 72.1977 224.483 71.7103 224.534ZM66.1952 223.321C65.7078 223.372 65.2664 223.014 65.2152 222.527C65.1631 222.032 65.5215 221.598 66.0088 221.547C66.5041 221.495 66.9367 221.845 66.9888 222.341C67.04 222.828 66.6825 223.269 66.1952 223.321ZM73.2976 222.574C72.8103 222.626 72.3688 222.268 72.3176 221.781C72.2656 221.285 72.6239 220.852 73.1113 220.801C73.5986 220.75 74.0392 221.099 74.0912 221.594C74.1424 222.082 73.785 222.523 73.2976 222.574ZM73.1113 220.801C72.6239 220.852 72.1825 220.494 72.1304 219.999C72.0792 219.512 72.4367 219.07 72.9241 219.019C73.4114 218.968 73.8528 219.325 73.904 219.813C73.9561 220.308 73.5986 220.75 73.1113 220.801ZM65.8216 219.765C65.3343 219.817 64.8937 219.467 64.8416 218.972C64.7904 218.484 65.1479 218.043 65.6353 217.992C66.1306 217.94 66.564 218.298 66.6152 218.785C66.6673 219.281 66.309 219.714 65.8216 219.765ZM67.5952 219.579C67.1079 219.63 66.6673 219.281 66.6152 218.785C66.564 218.298 66.9215 217.857 67.4089 217.805C67.9042 217.753 68.3377 218.112 68.3889 218.599C68.4409 219.094 68.0906 219.527 67.5952 219.579ZM69.3768 219.392C68.8815 219.444 68.4409 219.094 68.3889 218.599C68.3377 218.112 68.6951 217.67 69.1905 217.618C69.6778 217.567 70.1193 217.924 70.1705 218.412C70.2225 218.907 69.8642 219.341 69.3768 219.392ZM71.1504 219.205C70.6551 219.258 70.2225 218.907 70.1705 218.412C70.1193 217.924 70.4688 217.484 70.9641 217.432C71.4514 217.381 71.8929 217.738 71.9441 218.225C71.9961 218.721 71.6378 219.154 71.1504 219.205ZM65.6353 217.992C65.1479 218.043 64.7065 217.685 64.6553 217.198C64.6041 216.711 64.9616 216.269 65.4489 216.218C65.9442 216.166 66.3777 216.524 66.4289 217.012C66.4801 217.499 66.1226 217.941 65.6353 217.992ZM65.4489 216.218C64.9616 216.269 64.5201 215.912 64.4689 215.424C64.4169 214.929 64.7752 214.496 65.2626 214.445C65.7579 214.392 66.1905 214.743 66.2425 215.238C66.2937 215.725 65.9363 216.167 65.4489 216.218ZM65.2626 214.445C64.7752 214.496 64.3338 214.138 64.2826 213.651C64.2305 213.156 64.588 212.714 65.0754 212.663C65.5707 212.611 66.0041 212.969 66.0562 213.465C66.1074 213.952 65.7499 214.393 65.2626 214.445ZM67.0362 214.258C66.5488 214.309 66.1074 213.952 66.0562 213.465C66.0041 212.969 66.3616 212.528 66.849 212.477C67.3443 212.425 67.7778 212.783 67.8298 213.278C67.881 213.766 67.5315 214.206 67.0362 214.258ZM68.8178 214.071C68.3224 214.123 67.881 213.766 67.8298 213.278C67.7778 212.783 68.1352 212.341 68.6306 212.289C69.1179 212.238 69.5594 212.596 69.6114 213.091C69.6626 213.578 69.3051 214.02 68.8178 214.071ZM70.5914 213.885C70.0961 213.937 69.6626 213.578 69.6114 213.091C69.5594 212.596 69.9089 212.155 70.4042 212.103C70.8915 212.052 71.333 212.409 71.385 212.905C71.4362 213.392 71.0787 213.833 70.5914 213.885ZM72.365 213.698C71.8777 213.749 71.4362 213.392 71.385 212.905C71.333 212.409 71.6905 211.968 72.1778 211.917C72.6652 211.865 73.1066 212.223 73.1586 212.718C73.2098 213.206 72.8523 213.647 72.365 213.698ZM77.0234 223.976C76.5361 224.027 76.0947 223.67 76.0435 223.182C75.9914 222.687 76.3497 222.254 76.8371 222.202C77.3324 222.15 77.7659 222.509 77.8171 222.996C77.8683 223.483 77.5108 223.925 77.0234 223.976ZM78.7971 223.79C78.3097 223.841 77.8683 223.483 77.8171 222.996C77.765 222.501 78.1234 222.067 78.6107 222.016C79.106 221.964 79.5395 222.322 79.5907 222.81C79.6419 223.297 79.2924 223.738 78.7971 223.79ZM80.5787 223.603C80.0833 223.655 79.6419 223.297 79.5907 222.81C79.5386 222.314 79.897 221.881 80.3923 221.829C80.8797 221.778 81.3211 222.135 81.3723 222.623C81.4235 223.11 81.066 223.551 80.5787 223.603ZM78.6107 222.016C78.1234 222.067 77.6819 221.71 77.6307 221.222C77.5787 220.727 77.937 220.294 78.4244 220.242C78.9197 220.19 79.3523 220.541 79.4043 221.036C79.4555 221.523 79.106 221.964 78.6107 222.016ZM78.4244 220.242C77.937 220.294 77.4956 219.936 77.4435 219.441C77.3923 218.953 77.7498 218.512 78.2372 218.461C78.7325 218.409 79.1659 218.767 79.2171 219.254C79.2692 219.75 78.9197 220.19 78.4244 220.242ZM78.2372 218.461C77.7498 218.512 77.3092 218.163 77.2572 217.667C77.206 217.18 77.5635 216.738 78.0508 216.687C78.5461 216.635 78.9796 216.994 79.0308 217.481C79.0828 217.976 78.7325 218.409 78.2372 218.461ZM78.0508 216.687C77.5635 216.738 77.122 216.381 77.0708 215.894C77.0196 215.406 77.3771 214.965 77.8645 214.914C78.3598 214.862 78.7932 215.22 78.8444 215.707C78.8956 216.195 78.5461 216.635 78.0508 216.687ZM76.0908 215.1C75.6035 215.151 75.1621 214.794 75.1109 214.306C75.0588 213.811 75.4171 213.378 75.9045 213.326C76.3998 213.274 76.8324 213.625 76.8845 214.12C76.9357 214.607 76.5782 215.049 76.0908 215.1ZM77.8645 214.914C77.3771 214.965 76.9357 214.607 76.8845 214.12C76.8324 213.625 77.1908 213.191 77.6781 213.14C78.1734 213.088 78.606 213.438 78.6581 213.934C78.7093 214.421 78.3598 214.862 77.8645 214.914ZM77.6781 213.14C77.1908 213.191 76.7493 212.834 76.6981 212.346C76.6461 211.851 77.0036 211.41 77.4909 211.358C77.9862 211.306 78.4197 211.665 78.4717 212.16C78.5229 212.647 78.1734 213.088 77.6781 213.14ZM85.8969 223.044C85.4095 223.095 84.9681 222.737 84.9169 222.25C84.8649 221.755 85.2232 221.321 85.7105 221.27C86.2059 221.218 86.6393 221.576 86.6905 222.064C86.7417 222.551 86.3922 222.992 85.8969 223.044ZM94.7729 222.111C94.2856 222.162 93.8442 221.805 93.793 221.317C93.7409 220.822 94.0992 220.389 94.5866 220.337C95.0819 220.285 95.5234 220.643 95.5746 221.13C95.6258 221.618 95.2683 222.059 94.7729 222.111ZM96.5545 221.924C96.0592 221.976 95.6258 221.618 95.5746 221.13C95.5225 220.635 95.8729 220.202 96.3682 220.15C96.8555 220.099 97.297 220.457 97.3482 220.944C97.3994 221.431 97.0419 221.873 96.5545 221.924ZM87.4921 221.083C86.9968 221.135 86.5554 220.777 86.5042 220.29C86.4521 219.795 86.8104 219.361 87.3058 219.309C87.7931 219.258 88.2337 219.608 88.2858 220.103C88.337 220.59 87.9795 221.032 87.4921 221.083ZM92.813 220.524C92.3256 220.575 91.8842 220.218 91.833 219.73C91.7809 219.235 92.1393 218.801 92.6266 218.75C93.122 218.698 93.5546 219.049 93.6066 219.544C93.6578 220.031 93.3083 220.472 92.813 220.524ZM98.1418 219.964C97.6465 220.016 97.213 219.658 97.1618 219.17C97.1098 218.675 97.4681 218.242 97.9555 218.19C98.4428 218.139 98.8834 218.489 98.9354 218.984C98.9866 219.471 98.6292 219.913 98.1418 219.964ZM89.0794 219.123C88.5841 219.175 88.1506 218.817 88.0986 218.321C88.0474 217.834 88.3969 217.393 88.8922 217.341C89.3795 217.29 89.821 217.648 89.8722 218.135C89.9242 218.63 89.5667 219.072 89.0794 219.123ZM92.6266 218.75C92.1393 218.801 91.6978 218.444 91.6458 217.949C91.5946 217.461 91.9521 217.02 92.4394 216.969C92.9348 216.917 93.3682 217.275 93.4194 217.762C93.4715 218.258 93.122 218.698 92.6266 218.75ZM97.9555 218.19C97.4601 218.242 97.0267 217.884 96.9746 217.389C96.9234 216.901 97.2809 216.46 97.7683 216.409C98.2556 216.358 98.697 216.715 98.7482 217.202C98.8003 217.698 98.4428 218.139 97.9555 218.19ZM85.337 217.715C84.8496 217.766 84.409 217.417 84.357 216.921C84.3058 216.434 84.6633 215.992 85.1506 215.941C85.646 215.889 86.0794 216.248 86.1306 216.735C86.1827 217.23 85.8323 217.663 85.337 217.715ZM87.1186 217.528C86.6233 217.58 86.1827 217.23 86.1306 216.735C86.0794 216.248 86.4369 215.806 86.9322 215.754C87.4196 215.703 87.861 216.06 87.9122 216.548C87.9643 217.043 87.6059 217.476 87.1186 217.528ZM90.6658 217.155C90.1785 217.206 89.7379 216.857 89.6858 216.361C89.6346 215.874 89.9921 215.433 90.4795 215.381C90.9668 215.33 91.4082 215.688 91.4594 216.175C91.5115 216.67 91.1532 217.104 90.6658 217.155ZM94.213 216.782C93.7257 216.833 93.2851 216.484 93.2331 215.989C93.1819 215.501 93.5393 215.06 94.0267 215.009C94.522 214.957 94.9635 215.314 95.0147 215.801C95.0667 216.297 94.7084 216.73 94.213 216.782ZM95.9946 216.595C95.4993 216.647 95.0667 216.297 95.0147 215.801C94.9635 215.314 95.313 214.874 95.8083 214.821C96.2956 214.77 96.7371 215.128 96.7883 215.615C96.8403 216.11 96.482 216.544 95.9946 216.595ZM83.377 216.128C82.8897 216.179 82.4482 215.821 82.397 215.334C82.3458 214.847 82.7033 214.405 83.1907 214.354C83.686 214.302 84.1194 214.66 84.1706 215.148C84.2219 215.635 83.8644 216.076 83.377 216.128ZM88.7059 215.568C88.2105 215.62 87.7771 215.261 87.7259 214.774C87.6747 214.287 88.0242 213.846 88.5195 213.794C89.0068 213.743 89.4483 214.1 89.4995 214.588C89.5507 215.075 89.1932 215.517 88.7059 215.568ZM92.2531 215.195C91.7657 215.246 91.3243 214.889 91.2731 214.401C91.2219 213.914 91.5794 213.473 92.0667 213.421C92.5621 213.369 92.9955 213.728 93.0467 214.215C93.0979 214.702 92.7484 215.143 92.2531 215.195ZM83.1907 214.354C82.7033 214.405 82.2619 214.048 82.2107 213.56C82.1586 213.065 82.517 212.632 83.0043 212.58C83.4996 212.528 83.9323 212.879 83.9843 213.374C84.0355 213.861 83.678 214.303 83.1907 214.354ZM88.5195 213.794C88.0242 213.846 87.5907 213.488 87.5395 213C87.4875 212.505 87.8378 212.073 88.3331 212.02C88.8205 211.969 89.2611 212.319 89.3131 212.814C89.3643 213.301 89.0068 213.743 88.5195 213.794ZM93.8403 213.235C93.353 213.286 92.9116 212.929 92.8604 212.441C92.8083 211.946 93.1666 211.513 93.654 211.461C94.1493 211.409 94.5899 211.759 94.642 212.254C94.6932 212.742 94.3357 213.183 93.8403 213.235ZM84.7779 212.394C84.2906 212.445 83.8491 212.088 83.7979 211.6C83.7459 211.105 84.1034 210.664 84.5907 210.612C85.0861 210.56 85.5195 210.919 85.5716 211.414C85.6228 211.901 85.2733 212.342 84.7779 212.394ZM86.5595 212.207C86.0642 212.259 85.6228 211.901 85.5716 211.414C85.5195 210.919 85.877 210.477 86.3723 210.425C86.8597 210.374 87.3011 210.732 87.3532 211.227C87.4044 211.714 87.0469 212.156 86.5595 212.207ZM95.4356 211.274C94.9403 211.326 94.5068 210.968 94.4556 210.481C94.4036 209.985 94.7531 209.545 95.2484 209.493C95.7357 209.441 96.1772 209.799 96.2292 210.294C96.2804 210.782 95.9229 211.223 95.4356 211.274Z" fill="black"/>
</svg>
