<svg width="141" height="280" viewBox="0 0 141 280" fill="none" xmlns="http://www.w3.org/2000/svg">
<path d="M79.8662 4.60352C90.6931 4.60352 99.4707 13.3802 99.4707 24.207V49.5146C99.4707 53.2957 101.523 56.779 104.831 58.6103L116.709 65.1865C119.911 66.9596 122.553 69.5938 124.336 72.791L133.33 88.9238C134.957 91.8422 135.811 95.1285 135.811 98.4697V255.471C135.811 266.298 127.034 275.075 116.207 275.075H24.207C13.3803 275.075 4.60378 266.298 4.60352 255.472V98.4697C4.60352 95.1285 5.45711 91.8422 7.08398 88.9238L16.0781 72.791C17.8606 69.5938 20.5026 66.9596 23.7051 65.1865L35.583 58.6103C38.8909 56.779 40.9434 53.2957 40.9434 49.5146V24.207C40.9434 13.3802 49.721 4.60352 60.5478 4.60352H79.8662Z" fill="#7DA9A2" stroke="#7DA9A2" stroke-width="9.20755" stroke-linejoin="round"/>
<circle cx="70.0751" cy="91.161" r="2.6962" fill="black"/>
<circle cx="63.786" cy="91.1689" r="2.6962" fill="black"/>
<circle cx="63.786" cy="97.454" r="2.6962" fill="black"/>
<circle cx="63.786" cy="103.747" r="2.6962" fill="black"/>
<circle cx="70.0751" cy="103.751" r="2.6962" fill="black"/>
<circle cx="57.8017" cy="107.341" r="2.6962" fill="black"/>
<circle cx="54.5478" cy="113.634" r="2.6962" fill="black"/>
<circle cx="54.5478" cy="120.817" r="2.6962" fill="black"/>
<circle cx="60.8427" cy="120.821" r="2.6962" fill="black"/>
<circle cx="67.1317" cy="120.817" r="2.6962" fill="black"/>
<circle cx="73.4208" cy="120.821" r="2.6962" fill="black"/>
<circle cx="79.9579" cy="120.821" r="2.6962" fill="black"/>
<circle cx="54.5478" cy="127.118" r="2.6962" fill="black"/>
<circle cx="54.5478" cy="133.407" r="2.6962" fill="black"/>
<circle cx="60.8407" cy="133.407" r="2.6962" fill="black"/>
<circle cx="67.1317" cy="133.407" r="2.6962" fill="black"/>
<circle cx="73.4228" cy="133.407" r="2.6962" fill="black"/>
<circle cx="79.9618" cy="133.399" r="2.6962" fill="black"/>
<circle cx="60.8427" cy="146.884" r="2.6962" fill="black"/>
<circle cx="67.1317" cy="146.884" r="2.6962" fill="black"/>
<circle cx="73.4208" cy="146.888" r="2.6962" fill="black"/>
<circle cx="79.9618" cy="146.888" r="2.6962" fill="black"/>
<circle cx="54.5478" cy="139.696" r="2.6962" fill="black"/>
<circle cx="54.5517" cy="146.884" r="2.6962" fill="black"/>
<circle cx="54.5478" cy="153.173" r="2.6962" fill="black"/>
<circle cx="54.5478" cy="159.466" r="2.6962" fill="black"/>
<circle cx="60.8427" cy="159.47" r="2.6962" fill="black"/>
<circle cx="67.1317" cy="159.466" r="2.6962" fill="black"/>
<circle cx="73.4208" cy="159.466" r="2.6962" fill="black"/>
<circle cx="79.9579" cy="159.47" r="2.6962" fill="black"/>
<circle cx="86.2548" cy="159.466" r="2.6962" fill="black"/>
<circle cx="76.3661" cy="91.161" r="2.6962" fill="black"/>
<circle cx="76.3661" cy="97.454" r="2.6962" fill="black"/>
<circle cx="76.3661" cy="103.751" r="2.6962" fill="black"/>
<circle cx="82.6571" cy="107.341" r="2.6962" fill="black"/>
<circle cx="86.2528" cy="113.634" r="2.6962" fill="black"/>
<circle cx="86.2528" cy="120.821" r="2.6962" fill="black"/>
<circle cx="86.2528" cy="127.114" r="2.6962" fill="black"/>
<circle cx="86.2528" cy="133.399" r="2.6962" fill="black"/>
<circle cx="86.2528" cy="139.696" r="2.6962" fill="black"/>
<circle cx="86.2528" cy="146.888" r="2.6962" fill="black"/>
<circle cx="86.2528" cy="153.181" r="2.6962" fill="black"/>
<path d="M45.6869 187.12H42.6311V192.422H40.4524V178.926H45.6869C47.2229 178.926 48.4021 179.289 49.2247 180.015C50.0538 180.742 50.4683 181.744 50.4683 183.023C50.4683 184.302 50.0538 185.304 49.2247 186.031C48.4021 186.757 47.2229 187.12 45.6869 187.12ZM45.6291 180.979H42.6311V185.067H45.6291C46.5095 185.067 47.1586 184.9 47.5763 184.565C47.994 184.231 48.2029 183.717 48.2029 183.023C48.2029 182.329 47.994 181.815 47.5763 181.481C47.1586 181.146 46.5095 180.979 45.6291 180.979ZM54.9915 178.54V192.422H52.9671V178.54H54.9915ZM67.0135 183.187V192.422H64.9987V191.313C64.2982 192.213 63.331 192.663 62.0971 192.663C60.7925 192.663 59.6968 192.203 58.8099 191.284C57.9231 190.365 57.4796 189.205 57.4796 187.804C57.4796 186.403 57.9231 185.243 58.8099 184.324C59.6968 183.405 60.7925 182.946 62.0971 182.946C63.331 182.946 64.2982 183.399 64.9987 184.305V183.187H67.0135ZM62.3381 184.845C61.4962 184.845 60.8215 185.131 60.3138 185.703C59.8061 186.268 59.5522 186.969 59.5522 187.804C59.5522 188.64 59.8061 189.344 60.3138 189.916C60.8215 190.481 61.4962 190.764 62.3381 190.764C63.1607 190.764 63.8291 190.484 64.3432 189.925C64.8638 189.366 65.1241 188.659 65.1241 187.804C65.1241 186.95 64.8638 186.243 64.3432 185.684C63.8291 185.124 63.1607 184.845 62.3381 184.845ZM77.3286 183.929L76.461 185.5C76.1332 185.295 75.7059 185.112 75.1789 184.951C74.6583 184.79 74.1346 184.71 73.6076 184.71C73.0678 184.71 72.6404 184.81 72.3255 185.009C72.017 185.208 71.8628 185.475 71.8628 185.809C71.8628 185.963 71.8981 186.098 71.9688 186.214C72.0459 186.323 72.1584 186.413 72.3062 186.484C72.4605 186.554 72.6179 186.609 72.7786 186.648C72.9457 186.686 73.1481 186.725 73.3859 186.763L74.3402 186.908C76.4803 187.216 77.5503 188.126 77.5503 189.636C77.5503 190.542 77.1776 191.272 76.4321 191.824C75.6866 192.377 74.6583 192.653 73.3473 192.653C71.7728 192.653 70.4521 192.258 69.3853 191.468L70.3204 189.954C71.143 190.584 72.1584 190.899 73.3666 190.899C74.0478 190.899 74.5684 190.799 74.9283 190.6C75.2882 190.401 75.4681 190.124 75.4681 189.771C75.4681 189.238 74.9347 188.897 73.8679 188.749L72.9039 188.624C71.8821 188.482 71.1044 188.184 70.571 187.727C70.0376 187.265 69.7709 186.66 69.7709 185.915C69.7709 185.002 70.1115 184.283 70.7928 183.756C71.4804 183.222 72.4123 182.956 73.5883 182.956C75.0793 182.956 76.326 183.28 77.3286 183.929ZM86.2235 183.187V185.018H82.6857V189.038C82.6857 189.63 82.8206 190.067 83.0905 190.349C83.3604 190.626 83.7139 190.764 84.1509 190.764C84.7293 190.764 85.3495 190.555 86.0114 190.137L86.8115 191.747C85.9054 192.358 84.9607 192.663 83.9774 192.663C82.9106 192.663 82.0912 192.367 81.5192 191.776C80.9473 191.185 80.6613 190.285 80.6613 189.077V185.018H78.8201V183.187H80.6613V180.391H82.6857V183.187H86.2235ZM90.708 183.187V192.422H88.6836V183.187H90.708ZM88.6836 178.984C88.9535 178.708 89.2877 178.569 89.6862 178.569C90.0846 178.569 90.422 178.708 90.6983 178.984C90.9747 179.26 91.1129 179.598 91.1129 179.996C91.1129 180.395 90.9747 180.729 90.6983 180.999C90.422 181.269 90.0846 181.403 89.6862 181.403C89.2877 181.403 88.9535 181.269 88.6836 180.999C88.4137 180.729 88.2787 180.395 88.2787 179.996C88.2787 179.598 88.4137 179.26 88.6836 178.984ZM98.0546 182.946C98.7551 182.946 99.4042 183.071 100.002 183.322C100.6 183.572 101.101 183.939 101.506 184.421L100.214 185.799C99.5392 185.163 98.8001 184.845 97.9968 184.845C97.2127 184.845 96.5604 185.121 96.0399 185.674C95.5258 186.227 95.2687 186.937 95.2687 187.804C95.2687 188.672 95.5258 189.382 96.0399 189.935C96.5604 190.487 97.2127 190.764 97.9968 190.764C98.8194 190.764 99.5745 190.442 100.262 189.8L101.506 191.188C100.657 192.171 99.507 192.663 98.0546 192.663C96.6022 192.663 95.4294 192.203 94.5361 191.284C93.6428 190.365 93.1961 189.205 93.1961 187.804C93.1961 186.403 93.6428 185.243 94.5361 184.324C95.4294 183.405 96.6022 182.946 98.0546 182.946Z" fill="black"/>
<path d="M55.2296 223.422C54.7395 223.422 54.3379 223.02 54.3379 222.53C54.3379 222.032 54.7395 221.638 55.2296 221.638C55.7276 221.638 56.1213 222.04 56.1213 222.53C56.1213 223.02 55.7276 223.422 55.2296 223.422ZM57.021 223.422C56.5229 223.422 56.1213 223.02 56.1213 222.53C56.1213 222.032 56.5229 221.638 57.021 221.638C57.511 221.638 57.9127 222.04 57.9127 222.53C57.9127 223.02 57.511 223.422 57.021 223.422ZM58.8044 223.422C58.3063 223.422 57.9127 223.02 57.9127 222.53C57.9127 222.032 58.3063 221.638 58.8044 221.638C59.2944 221.638 59.696 222.04 59.696 222.53C59.696 223.02 59.2944 223.422 58.8044 223.422ZM53.4462 221.638C52.9562 221.638 52.5545 221.237 52.5545 220.747C52.5545 220.249 52.9562 219.855 53.4462 219.855C53.9443 219.855 54.3379 220.249 54.3379 220.747C54.3379 221.237 53.9362 221.638 53.4462 221.638ZM60.5877 221.638C60.0977 221.638 59.696 221.237 59.696 220.747C59.696 220.249 60.0977 219.855 60.5877 219.855C61.0778 219.855 61.4794 220.249 61.4794 220.747C61.4794 221.237 61.0778 221.638 60.5877 221.638ZM60.5877 219.855C60.0977 219.855 59.696 219.453 59.696 218.955C59.696 218.465 60.0977 218.064 60.5877 218.064C61.0778 218.064 61.4794 218.465 61.4794 218.955C61.4794 219.453 61.0778 219.855 60.5877 219.855ZM53.4462 218.064C52.9562 218.064 52.5545 217.67 52.5545 217.172C52.5545 216.682 52.9562 216.28 53.4462 216.28C53.9443 216.28 54.3379 216.682 54.3379 217.172C54.3379 217.67 53.9362 218.064 53.4462 218.064ZM55.2296 218.064C54.7395 218.064 54.3379 217.67 54.3379 217.172C54.3379 216.682 54.7395 216.28 55.2296 216.28C55.7276 216.28 56.1213 216.682 56.1213 217.172C56.1213 217.67 55.7276 218.064 55.2296 218.064ZM57.021 218.064C56.5229 218.064 56.1213 217.67 56.1213 217.172C56.1213 216.682 56.5229 216.28 57.021 216.28C57.511 216.28 57.9127 216.682 57.9127 217.172C57.9127 217.67 57.511 218.064 57.021 218.064ZM58.8044 218.064C58.3063 218.064 57.9127 217.67 57.9127 217.172C57.9127 216.682 58.3063 216.28 58.8044 216.28C59.2944 216.28 59.696 216.682 59.696 217.172C59.696 217.67 59.2944 218.064 58.8044 218.064ZM53.4462 216.28C52.9562 216.28 52.5545 215.879 52.5545 215.389C52.5545 214.899 52.9562 214.497 53.4462 214.497C53.9443 214.497 54.3379 214.899 54.3379 215.389C54.3379 215.879 53.9362 216.28 53.4462 216.28ZM53.4462 214.497C52.9562 214.497 52.5545 214.095 52.5545 213.605C52.5545 213.107 52.9562 212.714 53.4462 212.714C53.9443 212.714 54.3379 213.107 54.3379 213.605C54.3379 214.095 53.9362 214.497 53.4462 214.497ZM53.4462 212.714C52.9562 212.714 52.5545 212.312 52.5545 211.822C52.5545 211.324 52.9562 210.922 53.4462 210.922C53.9443 210.922 54.3379 211.324 54.3379 211.822C54.3379 212.312 53.9362 212.714 53.4462 212.714ZM55.2296 212.714C54.7395 212.714 54.3379 212.312 54.3379 211.822C54.3379 211.324 54.7395 210.922 55.2296 210.922C55.7276 210.922 56.1213 211.324 56.1213 211.822C56.1213 212.312 55.7276 212.714 55.2296 212.714ZM57.021 212.714C56.5229 212.714 56.1213 212.312 56.1213 211.822C56.1213 211.324 56.5229 210.922 57.021 210.922C57.511 210.922 57.9127 211.324 57.9127 211.822C57.9127 212.312 57.511 212.714 57.021 212.714ZM58.8044 212.714C58.3063 212.714 57.9127 212.312 57.9127 211.822C57.9127 211.324 58.3063 210.922 58.8044 210.922C59.2944 210.922 59.696 211.324 59.696 211.822C59.696 212.312 59.2944 212.714 58.8044 212.714ZM60.5877 212.714C60.0977 212.714 59.696 212.312 59.696 211.822C59.696 211.324 60.0977 210.922 60.5877 210.922C61.0778 210.922 61.4794 211.324 61.4794 211.822C61.4794 212.312 61.0778 212.714 60.5877 212.714ZM64.1467 223.422C63.6567 223.422 63.255 223.02 63.255 222.53C63.255 222.032 63.6567 221.638 64.1467 221.638C64.6448 221.638 65.0384 222.04 65.0384 222.53C65.0384 223.02 64.6367 223.422 64.1467 223.422ZM65.9301 223.422C65.4401 223.422 65.0384 223.02 65.0384 222.53C65.0384 222.032 65.4401 221.638 65.9301 221.638C66.4281 221.638 66.8218 222.04 66.8218 222.53C66.8218 223.02 66.4281 223.422 65.9301 223.422ZM67.7215 223.422C67.2234 223.422 66.8218 223.02 66.8218 222.53C66.8218 222.032 67.2234 221.638 67.7215 221.638C68.2115 221.638 68.6132 222.04 68.6132 222.53C68.6132 223.02 68.2115 223.422 67.7215 223.422ZM65.9301 221.638C65.4401 221.638 65.0384 221.237 65.0384 220.747C65.0384 220.249 65.4401 219.855 65.9301 219.855C66.4281 219.855 66.8218 220.249 66.8218 220.747C66.8218 221.237 66.4281 221.638 65.9301 221.638ZM65.9301 219.855C65.4401 219.855 65.0384 219.453 65.0384 218.955C65.0384 218.465 65.4401 218.064 65.9301 218.064C66.4281 218.064 66.8218 218.465 66.8218 218.955C66.8218 219.453 66.4281 219.855 65.9301 219.855ZM65.9301 218.064C65.4401 218.064 65.0384 217.67 65.0384 217.172C65.0384 216.682 65.4401 216.28 65.9301 216.28C66.4281 216.28 66.8218 216.682 66.8218 217.172C66.8218 217.67 66.4281 218.064 65.9301 218.064ZM65.9301 216.28C65.4401 216.28 65.0384 215.879 65.0384 215.389C65.0384 214.899 65.4401 214.497 65.9301 214.497C66.4281 214.497 66.8218 214.899 66.8218 215.389C66.8218 215.879 66.4281 216.28 65.9301 216.28ZM64.1467 214.497C63.6567 214.497 63.255 214.095 63.255 213.605C63.255 213.107 63.6567 212.714 64.1467 212.714C64.6448 212.714 65.0384 213.107 65.0384 213.605C65.0384 214.095 64.6367 214.497 64.1467 214.497ZM65.9301 214.497C65.4401 214.497 65.0384 214.095 65.0384 213.605C65.0384 213.107 65.4401 212.714 65.9301 212.714C66.4281 212.714 66.8218 213.107 66.8218 213.605C66.8218 214.095 66.4281 214.497 65.9301 214.497ZM65.9301 212.714C65.4401 212.714 65.0384 212.312 65.0384 211.822C65.0384 211.324 65.4401 210.922 65.9301 210.922C66.4281 210.922 66.8218 211.324 66.8218 211.822C66.8218 212.312 66.4281 212.714 65.9301 212.714ZM73.069 223.422C72.579 223.422 72.1773 223.02 72.1773 222.53C72.1773 222.032 72.579 221.638 73.069 221.638C73.5671 221.638 73.9607 222.04 73.9607 222.53C73.9607 223.02 73.5671 223.422 73.069 223.422ZM81.9939 223.422C81.5039 223.422 81.1022 223.02 81.1022 222.53C81.1022 222.032 81.5039 221.638 81.9939 221.638C82.492 221.638 82.8936 222.04 82.8936 222.53C82.8936 223.02 82.492 223.422 81.9939 223.422ZM83.7853 223.422C83.2873 223.422 82.8936 223.02 82.8936 222.53C82.8936 222.032 83.2873 221.638 83.7853 221.638C84.2754 221.638 84.677 222.04 84.677 222.53C84.677 223.02 84.2754 223.422 83.7853 223.422ZM74.8604 221.638C74.3623 221.638 73.9607 221.237 73.9607 220.747C73.9607 220.249 74.3623 219.855 74.8604 219.855C75.3504 219.855 75.7521 220.249 75.7521 220.747C75.7521 221.237 75.3504 221.638 74.8604 221.638ZM80.2105 221.638C79.7205 221.638 79.3188 221.237 79.3188 220.747C79.3188 220.249 79.7205 219.855 80.2105 219.855C80.7086 219.855 81.1022 220.249 81.1022 220.747C81.1022 221.237 80.7086 221.638 80.2105 221.638ZM85.5687 221.638C85.0706 221.638 84.677 221.237 84.677 220.747C84.677 220.249 85.0787 219.855 85.5687 219.855C86.0587 219.855 86.4604 220.249 86.4604 220.747C86.4604 221.237 86.0587 221.638 85.5687 221.638ZM76.6438 219.855C76.1457 219.855 75.7521 219.453 75.7521 218.955C75.7521 218.465 76.1457 218.064 76.6438 218.064C77.1338 218.064 77.5355 218.465 77.5355 218.955C77.5355 219.453 77.1338 219.855 76.6438 219.855ZM80.2105 219.855C79.7205 219.855 79.3188 219.453 79.3188 218.955C79.3188 218.465 79.7205 218.064 80.2105 218.064C80.7086 218.064 81.1022 218.465 81.1022 218.955C81.1022 219.453 80.7086 219.855 80.2105 219.855ZM85.5687 219.855C85.0706 219.855 84.677 219.453 84.677 218.955C84.677 218.465 85.0787 218.064 85.5687 218.064C86.0587 218.064 86.4604 218.465 86.4604 218.955C86.4604 219.453 86.0587 219.855 85.5687 219.855ZM73.069 218.064C72.579 218.064 72.1773 217.67 72.1773 217.172C72.1773 216.682 72.579 216.28 73.069 216.28C73.5671 216.28 73.9607 216.682 73.9607 217.172C73.9607 217.67 73.5671 218.064 73.069 218.064ZM74.8604 218.064C74.3623 218.064 73.9607 217.67 73.9607 217.172C73.9607 216.682 74.3623 216.28 74.8604 216.28C75.3504 216.28 75.7521 216.682 75.7521 217.172C75.7521 217.67 75.3504 218.064 74.8604 218.064ZM78.4272 218.064C77.9371 218.064 77.5355 217.67 77.5355 217.172C77.5355 216.682 77.9371 216.28 78.4272 216.28C78.9172 216.28 79.3188 216.682 79.3188 217.172C79.3188 217.67 78.9172 218.064 78.4272 218.064ZM81.9939 218.064C81.5039 218.064 81.1022 217.67 81.1022 217.172C81.1022 216.682 81.5039 216.28 81.9939 216.28C82.492 216.28 82.8936 216.682 82.8936 217.172C82.8936 217.67 82.492 218.064 81.9939 218.064ZM83.7853 218.064C83.2873 218.064 82.8936 217.67 82.8936 217.172C82.8936 216.682 83.2873 216.28 83.7853 216.28C84.2754 216.28 84.677 216.682 84.677 217.172C84.677 217.67 84.2754 218.064 83.7853 218.064ZM71.2856 216.28C70.7956 216.28 70.3939 215.879 70.3939 215.389C70.3939 214.899 70.7956 214.497 71.2856 214.497C71.7837 214.497 72.1773 214.899 72.1773 215.389C72.1773 215.879 71.7756 216.28 71.2856 216.28ZM76.6438 216.28C76.1457 216.28 75.7521 215.879 75.7521 215.389C75.7521 214.899 76.1457 214.497 76.6438 214.497C77.1338 214.497 77.5355 214.899 77.5355 215.389C77.5355 215.879 77.1338 216.28 76.6438 216.28ZM80.2105 216.28C79.7205 216.28 79.3188 215.879 79.3188 215.389C79.3188 214.899 79.7205 214.497 80.2105 214.497C80.7086 214.497 81.1022 214.899 81.1022 215.389C81.1022 215.879 80.7086 216.28 80.2105 216.28ZM71.2856 214.497C70.7956 214.497 70.3939 214.095 70.3939 213.605C70.3939 213.107 70.7956 212.714 71.2856 212.714C71.7837 212.714 72.1773 213.107 72.1773 213.605C72.1773 214.095 71.7756 214.497 71.2856 214.497ZM76.6438 214.497C76.1457 214.497 75.7521 214.095 75.7521 213.605C75.7521 213.107 76.1457 212.714 76.6438 212.714C77.1338 212.714 77.5355 213.107 77.5355 213.605C77.5355 214.095 77.1338 214.497 76.6438 214.497ZM81.9939 214.497C81.5039 214.497 81.1022 214.095 81.1022 213.605C81.1022 213.107 81.5039 212.714 81.9939 212.714C82.492 212.714 82.8936 213.107 82.8936 213.605C82.8936 214.095 82.492 214.497 81.9939 214.497ZM73.069 212.714C72.579 212.714 72.1773 212.312 72.1773 211.822C72.1773 211.324 72.579 210.922 73.069 210.922C73.5671 210.922 73.9607 211.324 73.9607 211.822C73.9607 212.312 73.5671 212.714 73.069 212.714ZM74.8604 212.714C74.3623 212.714 73.9607 212.312 73.9607 211.822C73.9607 211.324 74.3623 210.922 74.8604 210.922C75.3504 210.922 75.7521 211.324 75.7521 211.822C75.7521 212.312 75.3504 212.714 74.8604 212.714ZM83.7853 212.714C83.2873 212.714 82.8936 212.312 82.8936 211.822C82.8936 211.324 83.2873 210.922 83.7853 210.922C84.2754 210.922 84.677 211.324 84.677 211.822C84.677 212.312 84.2754 212.714 83.7853 212.714Z" fill="black"/>
</svg>
